<svg xmlns="http://www.w3.org/2000/svg" width="23" height="23" fill="#2F354D"><rect width="100%" height="100%" fill="none"/><g class="currentLayer"><path fill="#e7eaf3" fill-rule="evenodd" d="M0 11.5a11.5 11.5 0 1123 0 11.5 11.5 0 01-23 0z"/><path fill-rule="evenodd" d="M11.5 7c-2.92 0-4.36.9-4.87 1.47a.1.1 0 00-.03.06c0 .02 0 .05.03.08.49.72 1.91 1.89 4.87 1.89s4.38-1.17 4.87-1.89a.13.13 0 00.03-.08.1.1 0 00-.03-.06C15.87 7.91 14.42 7 11.5 7zm-5.61.8C6.64 6.97 8.39 6 11.5 6c3.12 0 4.86.97 5.61 1.8.36.4.37.96.09 1.37-.7 1.04-2.47 2.33-5.7 2.33s-5-1.3-5.7-2.33a1.1 1.1 0 01.1-1.37zM6 13.5c.28 0 .5.22.5.5v.07c0 .32.08.55.23.69.52.49 1.77 1.24 4.77 1.24 3 0 4.25-.75 4.77-1.24.15-.14.23-.37.23-.7V14a.5.5 0 011 0v.07c0 .46-.12 1.02-.54 1.42-.77.72-2.3 1.51-5.46 1.51s-4.7-.8-5.46-1.51c-.42-.4-.54-.96-.54-1.42V14c0-.28.22-.5.5-.5zm.5-2.25a.5.5 0 00-1 0v.07c0 .46.12 1.02.54 1.42.77.72 2.3 1.51 5.46 1.51s4.7-.8 5.46-1.51c.42-.4.54-.96.54-1.42v-.07a.5.5 0 00-1 0v.07c0 .32-.08.55-.23.69-.52.49-1.77 1.24-4.77 1.24-3 0-4.25-.75-4.77-1.24-.15-.14-.23-.37-.23-.7v-.06z" clip-rule="evenodd" fill="#9faac4"/></g></svg>
