<svg xmlns="http://www.w3.org/2000/svg" width="302" height="140" fill="none" viewBox="0 0 302 140"><path fill="#343A52" d="M44.554 98.126C-15.785 76-13.245 61.4 46.668 48.371l121.603-19.223c20.404 19.223 8.28-5.291 53.229 19.223l-85.046 77.292c-10.172 17.943-84.733-4.655-91.9-27.537Z"/><path fill="#202436" d="M137.324 8.287C110.13 10.44 68.642 20.302 42.414 32.94l21.44 53.551c13.033-3.35 28.616-8.883 44.555-16.343l2.678 1.434a266.61 266.61 0 0 0-12.331 6.381l23.199 56.095c44.849-13.536 67.409-24.997 93.116-47.074l18.438-6.047c10.491-17.43-4.638-40.49-17.086-39.799l-18.205 8.395c-9.044.503-17.672 1.406-26 2.73v-.445c-5.041-4.773-9.51-8.612-13.876-11.891l15.455-6.307c2.951-15.713-4.97-30.714-14.281-33.619l-22.192 8.287Z"/><path fill="#4E5472" d="m140.203 10.003 3.38-.237c3.219 2.023 7.363 7.66 9.919 14.32l19.926-5.727a36.745 36.745 0 0 1 .369 15.255l-15.459 6.308c-4.524-3.397-8.936-6.193-13.76-8.802 3.075-2.087 5.693-4.132 7.727-6.08-3.208-6.635-7.871-12.425-12.102-15.037ZM94.665 62.793l13.738 7.351c-15.936 7.46-31.517 12.99-44.548 16.341l-7.457-18.623v-5.457c9.14 0 21.672-2.684 34.794-6.841l3.473 7.23ZM121.955 134.052c44.849-13.536 67.409-24.998 93.116-47.074l18.539-5.231c2.047-3.401 3.018-7.833 3.324-11.444l-22.495 6.278c-.922-10.043-6.771-21.338-10.937-24.386h-3.388c5.361 3.855 11.541 14.846 13.717 24.605-11.673 12.55-63.399 35.271-86.933 35.271l-6.807 17.474 1.864 4.507ZM172.824 52.196c-16.02 1.782-36.716 8.818-51.66 15.119 10.196-6.301 25.242-13.69 46.389-19.83l5.271 4.71Z"/><path fill="#4E5472" d="M64.915 86.549c8.257-3.066 10.311-17.957 4.589-33.259C63.78 37.988 52.447 28.068 44.19 31.134c-8.258 3.066-10.312 17.957-4.59 33.26 5.724 15.301 17.057 25.221 25.315 22.155ZM122.572 134.431c8.136-3.075 9.795-18.532 3.707-34.525-6.089-15.993-17.62-26.465-25.755-23.39-8.136 3.075-9.795 18.533-3.706 34.526 6.088 15.992 17.619 26.464 25.754 23.389Z"/><path fill="#1A1D2F" fill-rule="evenodd" d="M69.504 53.29c5.722 15.302 3.668 30.193-4.59 33.259-8.257 3.066-19.59-6.854-25.313-22.156-5.723-15.302-3.669-30.193 4.589-33.259 8.257-3.066 19.59 6.854 25.314 22.156Zm-1.697 27.327c-.961 1.574-2.22 2.712-3.766 3.297-6.828 2.58-16.667-6.633-21.977-20.58-5.31-13.946-4.078-27.343 2.75-29.924 2.161-.817 4.624-.452 7.15.87l.25.134a8.47 8.47 0 0 0-.204.184c-4.705 4.398-5.274 15.465-.95 26.82 3.923 10.306 10.704 17.772 16.745 19.2h.002ZM126.279 99.906c6.088 15.993 4.429 31.45-3.707 34.525-8.135 3.075-19.666-7.397-25.754-23.389-6.089-15.993-4.43-31.45 3.706-34.526l.096-.035-12.785-7.793c0-9.96-1.778-21.014-5.022-30.211 12.202 7.419 24.507 16.254 38.683 28.703l-16.37 8.934c7.454 1.218 16.144 10.637 21.153 23.792Zm-19.47-20.578-.569-.197c-1.775-.557-3.479-.585-5.024 0-6.916 2.614-8.048 16.488-2.528 30.987 5.52 14.5 15.602 24.136 22.519 21.521 1.772-.669 3.164-2.078 4.162-4.047-6.28-1.429-13.554-9.646-17.858-20.953-4.259-11.185-4.33-22.025-.702-27.31Z" clip-rule="evenodd"/><path fill="#343A52" fill-rule="evenodd" d="M248.119 22.185c-20.103-1.555-45.237-1.584-73.921.6-.247-1.753-.397-2.622-.456-2.975 28.905-2.21 54.275-2.189 74.608-.616 20.308 1.571 35.736 4.7 44.629 8.786 4.379 2.011 7.563 4.428 8.635 7.36 1.17 3.204-.371 6.278-3.574 8.948-3.206 2.672-8.424 5.283-15.701 7.798-4.609 1.593-10.089 3.162-16.484 4.688 3.282.205 6.075.498 8.416.87 2.442.387 4.435.866 5.997 1.439 1.537.563 2.789 1.264 3.61 2.177.886.986 1.231 2.187.927 3.45-.277 1.15-1.049 2.177-1.988 3.074-1.89 1.805-5.029 3.62-8.889 5.368-15.485 7.008-45.05 13.984-65.017 13.984a1.5 1.5 0 0 1 0-3c19.518 0 48.663-6.875 63.78-13.717 3.791-1.716 6.545-3.363 8.053-4.804.568-.543 1.62-1.551.903-2.35-.347-.385-1.071-.874-2.412-1.366-1.316-.482-3.102-.923-5.434-1.293-4.661-.74-11.333-1.172-20.417-1.172a1.5 1.5 0 0 1-.289-2.971c11.777-2.313 21.131-4.747 28.264-7.212 7.163-2.476 11.973-4.944 14.76-7.267 2.79-2.325 3.207-4.162 2.677-5.614-.63-1.723-2.805-3.705-7.069-5.664-8.392-3.856-23.38-6.956-43.608-8.52Z" clip-rule="evenodd"/></svg>