<svg width="430" height="186" fill="none" xmlns="http://www.w3.org/2000/svg"><g clip-path="url(#clip0)"><path d="M51.9 43.74a2.26 2.26 0 012.8-1.57l5.28 1.47a9.39 9.39 0 013.27-3.31 6.1 6.1 0 015.43-.59c1.7-5 6.44-7.93 11.37-6.56a7.3 7.3 0 014.87 4.5 6.68 6.68 0 014.9-.45c3.24.9 5.44 4.29 5.11 8.94.77-.02 1.48.1 2.05.27 1.1.3 2.34.93 3.23 2.2.89 1.28 1.32 3.06 1.06 5.49" stroke="#7A859E" stroke-width="1.5" stroke-linecap="round" stroke-linejoin="round"/><path d="M148.81 54.9a68.41 68.41 0 012.99 3.91v.02c.9 1.3 1.8 2.49 2.75 3.63" stroke="#2F354D" stroke-width="1.5" stroke-linecap="round" stroke-linejoin="round"/><path d="M386.3 37.7a67.94 67.94 0 012.15-4.42v-.01a53.38 53.38 0 002.01-4.09M351.6 82.67c1.62.52 3.17 1.14 4.63 1.73h.01c1.46.62 2.86 1.16 4.28 1.63" stroke="#7A859E" stroke-width="1.5" stroke-linecap="round" stroke-linejoin="round"/><path d="M230.19 173.93a67.99 67.99 0 012.98 3.92l.01.01c.9 1.3 1.8 2.5 2.74 3.64" stroke="#2F354D" stroke-width="1.5" stroke-linecap="round" stroke-linejoin="round"/><path d="M125.47 183.73c1.57-2.43 2.05-5.2 2.83-7.7m3.69-7.8l1.72 7.88-9.56-3.5 7.84-4.37zM117.65 36.3c.33-.33.91-.72 1.74-1.16.8-.42 1.8-.86 2.9-1.3 1.05-.43 2.18-.86 3.35-1.3l.19-.07c1.23-.47 2.49-.95 3.7-1.44 2.4-.99 4.72-2.07 6.24-3.31a5.35 5.35 0 001.74-2.22c.33-.91.24-1.87-.29-2.8-.28-.5-.63-.9-1.05-1.16-.44-.27-.9-.37-1.35-.32-.82.08-1.43.6-1.72.9m-2.68 6.84c-.71-2.1-3-7.42-7.77-4.9-4.77 2.52-1.92 7.33-1.41 8.4M322.5 160.5a6.36 6.36 0 01-1.19-1.38 29.2 29.2 0 01-1.4-2.38c-.48-.86-.96-1.8-1.46-2.77l-.07-.14c-.53-1.02-1.07-2.06-1.61-3.06-1.08-1.97-2.25-3.86-3.48-5.06a4.7 4.7 0 00-2.1-1.28 2.88 2.88 0 00-2.41.5c-.41.3-.73.63-.92 1.02-.2.4-.24.81-.16 1.19.15.7.66 1.17.94 1.4m6.24 1.66c-1.77.8-6.2 3.28-3.56 7.14 2.64 3.87 6.59.97 7.48.43" stroke="#7A859E" stroke-width="1.5" stroke-linecap="round" stroke-linejoin="round"/><path d="M137.24 128.4a2.47 2.47 0 00-1.67 2.3 1.96 1.96 0 001.94 2.13c.9.03 2.42-.57 2.46-2.06.04-1.49-1.58-2.38-2.33-2.4-.1-.06-.25-.01-.4.04zM78.58 69.71A2.47 2.47 0 0076.91 72a1.96 1.96 0 001.94 2.14c.9.03 2.42-.58 2.46-2.06.05-1.5-1.58-2.38-2.33-2.4-.1-.06-.25-.01-.4.03zM363.56 42.46a2.47 2.47 0 00-1.67 2.28 1.96 1.96 0 001.94 2.14c.9.03 2.42-.57 2.47-2.06.04-1.49-1.59-2.38-2.34-2.4-.1-.05-.25 0-.4.04zM196.02 165.83a2.32 2.32 0 00-1.16 2c-.05 1.64 1.28 2.37 2.28 2.4 1.3.04 2.43-.92 2.48-2.4.03-1.05-1.14-2.18-2.6-2.22a1.7 1.7 0 00-.5.04c-.1-.06-.34.09-.5.18zM330.82 136c-1.2.06-1.99 1.18-2.02 2.32a2.35 2.35 0 002.23 2.5c2 .06 2.51-2.06 2.53-2.56.02-.8-1.19-2.22-2.59-2.26h-.15z" fill="#14C393"/><path d="M62.44 137.7c6.35-10.1 2.66-26.06-8.32-31.12m-4.16 3.86l.02.01c9.41 4.13 10.63 14.58 8.01 23.56m-5.1-.6c2.94-6.4-.73-15.08-7.14-17.9m.49 12.39c.61-.98 1.64-3.38-1.42-5.3-.39-.25-.81-.33-1.15-.36a3.84 3.84 0 00-3.56 1.87c-1.12 1.78-.7 4.04.93 5.06 1.79 1.12 4.31.23 5.2-1.27z" stroke="#7A859E" stroke-width="1.5" stroke-linecap="round" stroke-linejoin="round"/><path d="M99.62 121.97a2.86 2.86 0 01.6.57c.3.36.62.86.96 1.46a39.4 39.4 0 011.98 4.26 88.37 88.37 0 012.13 5.83l.03.1v.02h0m-1.03-5.95c1.43-.8 4.1-1.8 5.71-.98 3.24 1.64.65 4.63-3.59 6.44" stroke="#2F354D" stroke-width="1.5" stroke-linecap="round" stroke-linejoin="round"/><path d="M322.33 12.85l.19.12c.18.13.45.38.8.81.48.6 1 1.4 1.55 2.38a64.08 64.08 0 013.23 6.93 144.13 144.13 0 013.25 8.88l.2.6.05.15v.04l.01.01m-1.68-9.68c2.32-1.3 6.66-2.92 9.29-1.59 5.26 2.66 1.05 7.53-5.84 10.47" stroke="#7A859E" stroke-width="1.5" stroke-linecap="round" stroke-linejoin="round"/><path d="M357.1 126.56c-.24-.43-.23-.9.04-1.32a1.3 1.3 0 011.12-.65c1.56.04 3.92.22 6.23.34.45.01.9.29 1.13.77.24.48.23.95.01 1.42-.85 1.56-1.76 3.38-2.62 5.2-.26.57-.78.93-1.38.9-.6.04-1.15-.29-1.44-.82-1.23-2.41-2.33-4.45-3.1-5.84z" fill="#2F354D"/><path d="M357.62 155.74c-.1-.65-.61-1.2-1.25-1.39a1.89 1.89 0 00-1.84.42c-2.6 2.56-5.32 5.12-8.04 7.57-.6.57-.92 1.38-.82 2.2a2.4 2.4 0 001.47 1.86l9.74 4.34c.75.31 1.58.22 2.18-.3.6-.5.92-1.32.77-2.08l-2.21-12.62zM80.13 152.2c-.62.23-1.05.84-1.1 1.5-.06.66.24 1.32.79 1.69 3.07 1.98 6.17 4.08 9.15 6.2.69.47 1.55.6 2.34.34a2.4 2.4 0 001.53-1.81l2.22-10.36c.15-.8-.11-1.58-.74-2.06a2.26 2.26 0 00-2.22-.3l-11.97 4.8z" fill="#E7EAF3"/><path d="M305.21 99.3c2.15-1.33 4.15-2.97 6.58-4.14.56-.23 3.07-2.3 4.37-2.26 1.55.05 5.79 10.55 7.94 10.61 1.05.03 8.8-2.93 9.3-2.91.5.01.5-.33.35 4.63-.21 7.1-.71 7.09-7.06 6.9-8.05-.22-10.2-1.58-21.2-1.9-.56 0-1.2-1.96-1.13-4.05.1-3.72.09-4.72 1.78-7.8l-.93.92z" fill="#8AFFCE"/><path d="M333.33 86.14h0a2.3 2.3 0 012.38 2.5h0c-.4 5.12-1.14 14.89-1.67 22.52h0a1.94 1.94 0 01-2 1.76h-.05l-26.5-1.45c-1-.07-1.75-.9-1.72-1.88.14-3.33.37-6.72.6-10.05h0l.19-2.87.26-3.84h0c.1-1.28.18-2.56.27-3.85h0a2.4 2.4 0 012.36-2.24s0 0 0 0l25.88-.6z" stroke="#7A859E" stroke-width="1.5"/><ellipse rx="2.82" ry="2.8" transform="matrix(1.00001 -.00033 -.00034 .99999 328.22 94.1)" fill="#7A859E"/><path d="M26.9 92.83c2.66 5.64 7.4 5.72 10.68 1.9 3.3-3.83-6.34-4.28-8.2-8.62-1.18-2.74-5.48-9.55-8.99-10.03-3.51-.49-.59-7.37-.13-9.2.46-1.81 4.71-1.88 5.82-4.3 1.37-2.96 2.9-4.2 1.34-5.51a5.33 5.33 0 00-6.22-.54c-2.34 1.32-3.39 5.7-3.8 6.3-1.88 2.93-2.39 3.77-4.47 5.32-2.08 1.55-4.73 4.43-4.4 6.2.31 1.75 2.36 2.14 2.75 2.31 4.5 2.9 3 6.02 7.41 9.03 2.4 1.65 5.55 1.5 8.2 7.14z" fill="#E7EAF3"/><path d="M35.44 91.2l.03-.04c4.18-5.33 8.58-10.48 12.82-15.77.52-.63.44-1.53-.19-2.06l-.05-.04c-6.58-5.48-13.62-10.38-20.4-15.62a1.53 1.53 0 00-1.99.17c-4.44 4.8-8.59 9.85-12.67 14.96-.49.58-.4 1.48.23 2.01 6.88 5.33 13.37 11.18 20.2 16.6.58.48 1.55.35 2.02-.22z" stroke="#2F354D" stroke-width="1.5" stroke-linecap="round" stroke-linejoin="round"/><path d="M130.66 88.75c-.15 5.05-4.36 8-9.44 7.86-5.08-.15-9.1-3.34-8.96-8.39.15-5.04 4.41-9.52 9.5-9.37 5.07.14 9.06 4.86 8.9 9.9z" fill="#8AFFCE"/><path d="M134.94 100.05c8.07 3.83 1.77-28.39 9.59-23.08 7.82 5.3-2.82 10.22 3.41 15.84 6.24 5.62-3.26 6.5-.85 11.65 2.4 5.15-16.06 6.36-22.03.9-5.98-5.47 1.8-9.13 9.88-5.3z" fill="#E7EAF3"/><path d="M102.27 75.6c.4-.9 37.61-1.14 38.68 0 1.07 1.14.83 17.86 1.07 26.8l-38.65.15c-.74-8.96-1.5-26.04-1.1-26.94zM130.63 73.18c-1.53-4.47-5.26-5.55-9.15-5.59-4.22-.04-6.94 1.65-8.56 5.87" stroke="#7A859E" stroke-width="1.5" stroke-linecap="round" stroke-linejoin="round"/><path d="M127.55 87.79c0 3.06-2.5 5.55-5.6 5.55-3.1 0-5.61-2.49-5.61-5.55 0-3.06 2.5-5.55 5.6-5.55 3.1 0 5.6 2.49 5.6 5.55z" stroke="#7A859E" stroke-width="1.5"/><path d="M386.42 67.84h0l-.8 1.68h0-.01c-1.4 2.92-2.8 5.86-4.38 8.7-.5.9-.3 1.98.47 2.6l.02.01c2.9 2.2 7 4.75 12.78 7.91 3.9 2.14 7.08 3.6 9.71 4.49 2.64.87 4.78 1.17 6.6.92 3.73-.51 5.8-3.28 7.88-6.98h0c1.83-3.3 2.62-5.62 2.75-7.29.14-1.7-.42-2.8-1.33-3.39-1.96-1.3-2.56-2.38-2.68-3.32-.12-1 .27-2.03.82-3.38h0v-.01h0v-.02c.43-1.06 1-2.5.93-3.97a4.42 4.42 0 00-.72-2.25 6.01 6.01 0 00-2.2-1.92 5.33 5.33 0 00-3.27-.58c-1.2.18-2.4.84-3.15 2.2l-.43.78a22.01 22.01 0 01-2.49 3.76 3.94 3.94 0 01-2.32 1.42c-.87.15-1.98 0-3.53-.57a46.12 46.12 0 01-5.96-2.87c-.54-.3-1.08-.6-1.62-.92 0 0 0 0 0 0h0l-1.66-.94-.88-.48a2.38 2.38 0 00-1.55-.13 2 2 0 00-1.24 1.02v.02c-.62 1.18-1.19 2.36-1.74 3.51z" stroke="#2F354D" stroke-width="1.5" stroke-linecap="round" stroke-linejoin="round"/><path d="M397.3 66.78l-9.18 18.2" stroke="#2F354D" stroke-width="1.5"/><path d="M349.62 57.07c-1.38 1.3-2.7 2.74-4 4.11-.47.46-.86 1.3-1.39 1.11-.52-.13-.92-1.1-1.25-1.5-.46-.52-1.18-.2-1.44.4-.79 1.89 1.31 4.7 3.35 4.76 1.45 0 2.63-1.37 3.62-2.29 1.3-1.17 2.69-2.35 3.94-3.65 1.97-1.96-.86-4.77-2.83-2.94z" fill="#E7EAF3"/><path d="M341.38 62.79l.53-.53-.53.53c.45.45 1.31 1.26 2.24 1.95.46.35.96.69 1.44.94.47.24 1 .45 1.52.45.61 0 1.22-.36 1.7-.74a13.37 13.37 0 004-5.5c.1-.3.01-.6-.21-.8a87.66 87.66 0 01-3.58-3.37 1.8 1.8 0 00-1.26-.55c-.69 0-1.36.37-1.93.78-.58.43-1.18 1-1.71 1.58a29.25 29.25 0 00-2.43 3.06h0c-.48.71-.35 1.63.22 2.2z" stroke="#2F354D" stroke-width="1.5" stroke-linecap="round" stroke-linejoin="round"/><path fill-rule="evenodd" clip-rule="evenodd" d="M244.51 11.76c2.07-1.49.06-1.72-1.98-1.95-1.05-.12-2.12-.24-2.63-.53-2.19-1.18-4.3-2.42-6.43-3.72-1.63-.98-3.57.26-3.27 2.13l.45 2.9a4.04 4.04 0 004.2 3.35c3.24-.22 7.6-.7 9.66-2.18zm4.13 6.82c-1.63-1.87-4.72-1.63-8.09-1.36-5.4.44-11.5.93-13.38-7.2-1.71-7.4-39.62 1.87-56.83 6.08l-.68.16c-16.86 4.12-11.96 15.01-7.94 22.01 1.79 3.11 2.76 15.75 3.78 29 1.28 16.57 2.63 34.09 5.74 35.03 3.23.97 5.7-1 8.2-2.97.93-.73 2.4 2.77 3.89 6.35 1.45 3.47 2.93 7.02 3.98 6.86l5.14-86.03 58.15 5.43c-.43-3.2-.15-5.2.07-6.76.32-2.34.5-3.67-2.03-6.6zm-72.3 35.6c.09.4.28.75.62.96.34.2.74.32 1.14.23l10.12-1.94 1.18-16.1-14.34 2.66c-.66.13-1.13.76-1 1.41.83 4.25 1.6 8.54 2.28 12.78zm3.33 11.44c-.55-.02-1.09-.43-1.17-.98a1.24 1.24 0 011-1.46l7.5-1.52c.65-.13 1.34.29 1.47.99.13.64-.3 1.33-1 1.46l-7.5 1.52c-.07-.04-.13-.03-.2-.02a.6.6 0 01-.1 0zm1.87 7.48a1.28 1.28 0 01-1.22-1.03c-.13-.7.34-1.33 1.04-1.41l5.49-.88c.65-.13 1.34.33 1.42 1.03.08.7-.34 1.33-1.05 1.4l-5.48.9-.2-.01zm-.28 7.76a1.19 1.19 0 01-1.17-1.02c-.13-.7.34-1.33 1-1.46l3.27-.55a1.3 1.3 0 011.47.98c.13.7-.34 1.33-1 1.46l-3.27.55c-.1.05-.2.05-.3.04z" fill="#E7EAF3"/><path d="M203.35 56.53c.09.35.38.6.73.66l16.08 1.17c.25 0 .5-.14.56-.38.69-2.96 1.62-7.45 2.08-11.16 0-.15-.04-.3-.19-.4-.14-.11-.3-.07-.45-.02a93.15 93.15 0 00-5.32 3.92c-.15.1-.35.13-.5.08-.2-.05-.35-.16-.39-.36a86.46 86.46 0 01-2.04-5.42.48.48 0 00-.44-.36c-.2-.06-.4.04-.56.18l-4.95 5.07a.85.85 0 01-.96.17l-4.99-2.33c-.14-.05-.3-.06-.4.04-.1.1-.15.24-.1.4.8 2.85 1.22 5.79 1.84 8.74zM296.43 30.4c-.05-.16-.15-.3-.25-.44a.56.56 0 00-.68-.47c-.56-.2-1.2-.06-1.55.58l-.17.3c-2.57 1.49-4.98 3.32-7.5 4.85-.91.56-.48 1.91.53 1.94l6.05.22c1.27.05 3.03.46 4.22-.13 2.52-1.2 0-5.08-.65-6.86z" fill="#FFAD4D"/><path d="M262.27 28.97s12.7-18.8 14.74-18.8c2.03 0 40.15 21.34 40.66 22.35.51 1.02-17.28 33.55-18.79 33.87-1.51.33-10.95-3.57-15.1-6.3m-9.85-30.24a13.62 13.62 0 0113.7-6.24c5.64.78 15.93 7.98 13.49 17.28-2.4 9.23-8.67 13.63-15.66 11.82" stroke="#7A859E" stroke-width="1.5" stroke-linecap="round" stroke-linejoin="round"/><path d="M287.57 35.64a.75.75 0 00.32 1.3c3.48.83 6.95 1.1 10.59 1.17.38 0 .71-.29.75-.67.31-2.91.14-4.9-.53-6.1a2.52 2.52 0 00-1.5-1.26 3.32 3.32 0 00-1.88.07 13.26 13.26 0 00-3.88 2.25c-1.16.89-2.34 1.91-3.42 2.85l-.45.4z" stroke="#7A859E" stroke-width="1.5" stroke-linecap="round" stroke-linejoin="round"/><path d="M139 163.83c3.38-12.84 11.84-18.59 20.88-23.5-2.14-2.56-4.95-6.3-6.16-8.1-1.22-1.8 0-3.3 1.92-3.1 5.66.53 26.12.7 28.95.7 2.82 0 4.94.7 4.23 3.5-.7 2.8-5.07 21.05-7.76 22.4-2.58 1.3-7.5-3.13-9.7-4.69-2.55 3.88-4.22 7.42-5.1 10.79a19.38 19.38 0 00-.32 9.2M184.19 127.77c2.38-33.13 5.21-95.3 7.33-100.91 12 0 67.78.7 90.9 5.8 2.3 2.6-1.07 28.08-1.92 42.37h0c-.33 5.57-.66 11.14-.95 16.71-1.06 19.9-2.7 35.8-1.19 54.91M231.6 52.33c.2.48.71.69 1.15.46l.1-.06.05-.02h0l.03-.02.02-.01a.8.8 0 01.03-.02h0a.82.82 0 00.11-.04l.02-.01c.8-.42 2.03-1.05 3.27-1.01.91.03 1.8.56 2.94 1.35h.01c1.13.77 2.53 1.7 4.1 1.75.48.01 1.02-.1 1.55-.22.43-.1.91-.24 1.39-.38l.33-.1h.01c1.72-.5 3.57-1.02 5.33-.97 1.75.06 3.03.68 4.27 1.31h0a8.08 8.08 0 003.49 1.11c1.21.04 2.35-.34 3.39-.7l.16-.05.09-.03h0a9.28 9.28 0 013.21-.7c1.56.05 3.05.68 4.54 1.41m-.39 13.2c-1.49-.74-2.99-1.36-4.54-1.41a9.28 9.28 0 00-3.2.7h-.01l-.09.03-.16.05c-1.04.35-2.18.74-3.4.7a8.07 8.07 0 01-3.47-1.11h-.01a9.47 9.47 0 00-4.27-1.3c-1.76-.06-3.61.45-5.33.96h-.01m5.73 82.38c-4-.03-9.5.3-20.64 0h0-.03l-11.68-.3c-15.5-.4-30.57-.75-34.43-.6M273.9 166.53c6.54 6.3 16.37.18 13.3-5.7" stroke="#2F354D" stroke-width="1.5" stroke-linecap="round" stroke-linejoin="round"/><path d="M238.28 77.64c-3.82-1.2-11.53-2.77-13.94 1.7-.1.2.03.48.2.58 1.1.4 2.25.4 3.4.42.84.01 1.67.02 2.49.17 2.2.42 4.3 1.4 6.1 2.76a21.48 21.48 0 017.58 11.28c1.05 3.64.08 7.6-.82 11.24l-.32 1.34c-.8 3.42-3.04 5.6-5.33 7.83-1.13 1.1-2.27 2.2-3.26 3.48-.96 1.25.4 2.67 1.71 2.25 2.7-.83 5.3-2.71 7.65-4.4l.87-.63 1.2-.85c2.32-1.64 4.78-3.38 6.55-5.56 4.46-5.46 4.24-13.71 1.07-19.69-3.02-5.69-9.09-10.04-15.15-11.92z" fill="#E7EAF3"/><path d="M260.16 158.46c6.97 5.3 11.81.05 11.94-2.43.18-3.52-6.3-9.7-10.96-14.15-1.7-1.63-3.17-3.03-3.98-3.98a47.54 47.54 0 01-2.63-3.62 43.37 43.37 0 00-3.47-4.65c4.6-3.4 8.52-7.42 11.23-12.63 1.03-1.97-1.92-3.43-3.24-1.87-5.54 6.56-13.19 8.42-21.45 7.76l-2.01-.16c-7.71-.58-15.17-1.15-22.04-4.98-6.95-3.87-10.54-12.67-10.87-20.31-.2-4.8 1.45-9.69 3.23-14.1.66-1.65.78-2.73.88-3.64.16-1.38.27-2.36 2.17-4.28-5-.05-5.06-.83-5.15-2.18-.07-.99-.16-2.27-2.19-3.79-6.69 1.18-6.42 6.8-6.12 13.08.15 3.13.3 6.42-.4 9.4-2.1 9.04-2.13 18.4 2.4 26.7a39.82 39.82 0 008.82 11.33c3.65 3.18 8.26 4.94 12.9 6.2 8.58 2.34 17.41 1.72 25.24-2.33a9.04 9.04 0 01-.09 3.16c-.35 2.35-.69 4.63 3.33 6.92 2.9 1.64 4.27 3.96 5.79 6.53 1.52 2.56 3.18 5.37 6.67 8.02z" fill="#E7EAF3"/><path d="M251.04 135.2a8.84 8.84 0 01-1.58-3.76 3.09 3.09 0 01-.21-3.02c1.63-2.95 4.33-4.87 6.48-7.03 1.2-1.22 2.7-.04 3.09 2 .16.74.18 1.45.16 2.1a92.14 92.14 0 004.27 7.8c.65 1.03.28 2.5-.42 2.94a34.74 34.74 0 00-7.4 7.1c-1.05 1.35-2.7-.42-2.65-2.3.08-2.1-1.12-3.88-1.74-5.83z" fill="#8AFFCE"/><path d="M263.86 109.2h0c5.97-14.8.97-31.29-11.86-39.22a30.03 30.03 0 00-5.26-2.58h0c-15.39-5.8-36.72-.16-44.48 18.97a35.03 35.03 0 00-1.17 22.96c1.9 6.19 6.63 14.54 18.66 19.08h0a34.08 34.08 0 0016.44 1.93c12-1.54 22.9-9.31 27.67-21.15zM287.2 160.81a394.5 394.5 0 00-14.56-19.97c-5.17-6.42-10.54-13.02-15-19.95M244.13 128.8c8.14 13.14 24.19 30.88 29.77 37.66" stroke="#2F354D" stroke-width="1.5" stroke-linecap="round" stroke-linejoin="round"/><path d="M236.31 121.06c7.48-.95 13.71-5.9 16.93-14.23 4.02-10.49.5-22.58-8.34-28.75a18.37 18.37 0 00-3.5-1.9c-12.76-5.07-25.9 2.48-29.73 12.4-5.32 13.86 2.22 26.72 12.18 30.69a25.39 25.39 0 0012.46 1.8zM264.84 134.43a166.9 166.9 0 01-8.87 7.31" stroke="#2F354D" stroke-width="1.5" stroke-linecap="round" stroke-linejoin="round"/><path d="M391.6 135.18h0v-.01l1-15.11c.12-1.68 1.31-2.93 2.7-3.09h0c6.1-.7 16.23-1.6 30.02-1.85h0c.76-.01 1.54.35 2.07 1 .54.66.81 1.56.71 2.44h0c-.4 3.7-.95 9.1-1.5 14.58h0l-.12 1.23h0a2.34 2.34 0 01-1.92 2.18c-5.09.7-10.12 1.19-14.92 1.44a.75.75 0 00-.54.28 39.4 39.4 0 01-9.66 8.71c-.06 0-.12-.01-.23-.1a.66.66 0 01-.13-.63 48.87 48.87 0 001.97-7.18.75.75 0 00-.72-.9 85.95 85.95 0 01-6.54-.24 2.29 2.29 0 01-1.6-.83 2.78 2.78 0 01-.6-1.92z" stroke="#7A859E" stroke-width="1.5" stroke-linecap="round" stroke-linejoin="round"/><ellipse cx="400.83" cy="127.71" rx="2.82" ry="2.8" fill="#7A859E"/><ellipse cx="409.3" cy="127.71" rx="2.82" ry="2.8" fill="#7A859E"/><ellipse cx="419.19" cy="127.71" rx="2.82" ry="2.8" fill="#7A859E"/></g><defs><clipPath id="clip0"><path fill="#fff" d="M0 0h430v186H0z"/></clipPath></defs></svg>
