<svg width="48" height="48" fill="none" xmlns="http://www.w3.org/2000/svg"><g clip-path="url(#clip0)"><path d="M4.2 16.3C3.2 29.8 8.7 41 17.6 42c9 1 0-11 17-17s1.8-18.4-6.3-20.2c-8-1.8-23.2-2-24 11.5z" fill="#F9FAFC"/><path d="M37.8 18.8c-3.4.1-3.3-4.7-7.2-4.1-3.8.5-3 4.9 4.2 9.1 6.3 3.7-5.8 1.7-7.6 8.2-2.4 8.5 8 11.2 12.3 8.8 4.2-2.5 3.5-5.6 5.4-8 4.8-6-.7-8-.7-10.3 0-2.2-2-3.8-6.4-3.7z" fill="#DAE0FD"/><path d="M31.9 7.9a2 2 0 104 0 2 2 0 00-4 0zM41.4 16.7a1.5 1.5 0 103 0 1.5 1.5 0 00-3 0z" fill="#375BE9"/><path fill-rule="evenodd" clip-rule="evenodd" d="M20.2 25.9a7.1 7.1 0 1014.2 0 7.1 7.1 0 00-14.2 0zm7 5a5.1 5.1 0 110-10.1 5.1 5.1 0 010 10.2z" fill="#5275FF"/><path fill-rule="evenodd" clip-rule="evenodd" d="M37.5 30.8l.5-1.2c.2-.5.7-1 1.2-1h.9c.5 0 1-.3 1-.8l.2-2c0-1-.2-1.9-.2-1.9 0-.5-.5-.9-1-.9h-.9c-.5 0-1-.4-1.2-.9l-.5-1.2c-.2-.4-.1-1.1.2-1.5l.6-.6c.4-.3.4-1 .1-1.4l-2.7-2.7a1 1 0 00-1.4.1l-.6.6c-.3.4-1 .5-1.5.2l-1.2-.5c-.5-.1-.9-.7-.9-1.2v-.8c0-.5-.4-1-.9-1.1l-2-.1-1.8.1c-.5 0-1 .6-1 1v1c0 .4-.4 1-.8 1.1l-1.3.5c-.4.3-1 .2-1.4-.2l-.6-.6a1 1 0 00-1.4 0l-2.7 2.6a1 1 0 000 1.4l.6.6c.4.4.5 1 .3 1.5l-.5 1.2c-.2.5-.7 1-1.3 1h-.8c-.5 0-1 .3-1 .8l-.2 2 .1 1.9c.1.5.6.9 1.1.9h.8c.6 0 1.1.4 1.3.9l.5 1.2c.2.5.1 1.1-.3 1.5l-.6.6a1 1 0 000 1.4l2.7 2.7c.4.3 1 .3 1.4-.1l.6-.6c.3-.4 1-.5 1.4-.2l1.3.5c.4.1.8.7.8 1.2v.8c0 .5.5 1 1 1.1l1.9.2 2-.2c.4 0 .8-.6.8-1v-.9c0-.5.4-1 1-1.2l1.1-.5c.5-.3 1.2-.2 1.5.2l.6.6c.4.4 1 .4 1.4 0l2.7-2.6c.3-.4.3-1 0-1.4l-.7-.6c-.3-.4-.4-1-.2-1.5zm1.7-5.8a10.6 10.6 0 010 1.7c-.7 0-1.4.3-1.9.6-.5.4-1 .9-1.2 1.6l-.4 1c-.3.7-.4 1.4-.3 2 .1.6.4 1.2.8 1.7L35 34.8c-.5-.5-1.1-.7-1.7-.8-.5-.1-1.2 0-1.9.2l-1.1.5c-.7.2-1.2.7-1.5 1.2-.4.5-.7 1.1-.7 1.9a10.6 10.6 0 01-1.7 0 3.3 3.3 0 00-2.2-3.1l-1-.5c-.7-.3-1.4-.3-2-.2-.5 0-1.1.3-1.7.8l-1.2-1.2c.5-.5.8-1.1.9-1.7 0-.6 0-1.3-.3-2l-.5-1c-.2-.7-.7-1.2-1.1-1.6-.5-.3-1.2-.6-2-.6a10.6 10.6 0 010-1.7c.8 0 1.5-.3 2-.6.4-.4.9-.9 1.1-1.6l.5-1c.3-.7.3-1.4.3-2-.1-.6-.4-1.2-.9-1.7l1.2-1.2c.6.5 1.2.7 1.7.8.6.1 1.3 0 2-.2l1-.5c.8-.2 1.3-.7 1.6-1.2.4-.5.6-1.1.6-1.9a10.6 10.6 0 011.7 0c0 .8.3 1.4.7 2 .3.4.8.9 1.5 1.1l1.1.5c.7.3 1.4.3 2 .2.5 0 1.1-.3 1.6-.8l1.2 1.2c-.4.5-.7 1.1-.8 1.7 0 .6 0 1.3.3 2l.4 1c.3.7.7 1.2 1.2 1.6.5.3 1.2.6 2 .6z" fill="#5275FF"/></g><defs><clipPath id="clip0"><path fill="#fff" d="M0 0h48v48H0z"/></clipPath></defs></svg>
