<svg width="48" height="48" fill="none" xmlns="http://www.w3.org/2000/svg"><g clip-path="url(#clip0)"><path d="M2.5 15c-1 13.5 3 22.5 12 23.5S18.1 34.1 35 28c17-6-1.5-29.5-8.5-22s-23-4.5-24 9z" fill="#F9FAFC"/><path d="M80.4-139.3l-23.7-.5-65.5-1.4c-50.4 55.5-84 107.4-100 154.1-14 40.8-14.2 76.7-1 107 21 47.1 77.2 77.6 143.4 77.6 67.6 0 125-31.2 146.2-79.6 13.2-30.1 13-65.8-.7-106-15.8-46-49-97-98.7-151.2zM37.8 133a84.9 84.9 0 010-169.5 84.9 84.9 0 010 169.5z" fill="#000"/><path d="M24.3 40.3c2.1-1.3-5.4-6-5.2-8.4.3-2 3.5-4.1 6.2-3.4 3.5.8 4.8-4.7 2.2-6.7-3-2.2-3.4 2.3-7.7-.5-6.4-4.2-3 5.5-8.5 8.5s2.5 11.5 5.5 9 5.4 2.8 7.5 1.5z" fill="#D6F6D6"/><path fill-rule="evenodd" clip-rule="evenodd" d="M29.2 12a7 7 0 012.3-.4l2.3.3c-.2 2-1 4-3 6a1 1 0 01-.7.2h-6.3a1 1 0 01-1-.6l-2.5-5.9a11.4 11.4 0 014-.8c.8 0 1.6.1 2.3.3.7.1 1.5.4 2.2.9h.4zm-3 1l1.7.7-1.7-.7zm1.7.7c.6.4 1.3.4 2 .2a5 5 0 011.5-.3c-.4.9-1 1.7-1.7 2.5h-5.3L23.1 13a8.6 8.6 0 013 .1" fill="#26C953"/><path d="M32.7 27.6a1 1 0 10-1.7 1c1.7 3.2 1.5 4.9 1 5.6l-.1.2c-.6.7-1.6 1-2.6 1a1 1 0 100 2c1.4 0 3.4-.4 4.4-2.1l.2-.3c.9-1.7.6-4.1-1.2-7.4z" fill="#26C953"/><path fill-rule="evenodd" clip-rule="evenodd" d="M30 19.2c.2 0 .4 0 .6.2a29 29 0 017.6 9.7 9 9 0 010 7.5C36.5 40 32 42 26.4 42c-5.3 0-9.9-2-11.5-5.2-1.1-2-1-4.5 0-7.3 1.3-3 4.2-6.4 8.1-10 .2-.3.4-.3.7-.3h6.2zm6.4 10.7a7 7 0 010 5.8c-1.2 2.3-4.9 4.3-10 4.3-5 0-8.6-2-9.8-4.2-.7-1.3-.8-3.1.2-5.5 1-2.6 3.5-5.6 7.3-9.1h5.4c3.6 3.3 5.8 6.1 6.9 8.7z" fill="#26C953"/></g><defs><clipPath id="clip0"><path fill="#fff" d="M0 0h48v48H0z"/></clipPath></defs></svg>
