<svg width="48" height="48" fill="none" xmlns="http://www.w3.org/2000/svg"><g clip-path="url(#clip0)"><path d="M4.2 16.3C3.2 29.8 8.7 41 17.6 42c9 1 0-11 17-17s1.8-18.4-6.3-20.2c-8-1.8-23.2-2-24 11.5z" fill="#F9FAFC"/><path d="M8.6 16.4c1.3-1.4 2.4-2 3.5-2.7 1.4-.8 2.8-1.7 5-4A103 103 0 0127.3.7l.8-.6 14.6-11.8 1.2-1c3.1-2.5 5.7-5.7 8.2-8.9l1.5 1.3c-2.5 3.1-5.2 6.4-8.4 9.1l-1.3 1c-4.8 4-9.7 8-14.6 11.8l-.7.6c-3.5 2.8-7.2 5.7-10.3 9-2.3 2.5-3.9 3.4-5.3 4.3-1.5.9-2.8 1.6-4.7 4.2-2 2.8-2.7 4.2-3.5 5.8a42.6 42.6 0 01-4.5 7.9 149 149 0 00-4.2 7c-1.4 2.4-2 3.8-2.5 5.1-.5 1.4-1.1 2.9-2.6 5.5l-1.7-1c1.4-2.5 2-3.8 2.5-5.2a36 36 0 012.6-5.4c2.2-3.8 2.7-4.7 4.2-7l1.9-3c1.3-2.2 2-3.5 2.5-4.7.8-1.7 1.5-3.2 3.8-6.2.6-.8 1.1-1.5 1.7-2z" fill="#FD9317"/><path d="M29 23c-3.2 2-2.5 6 0 8s1.8 5.6 5 6c4 .5-.1-.2 3 5 1.5 2.5 4.5-3.5 4.5-5s1-5.5 0-9-2-2.5-3 1.5-3.5.5-4.5 0 0-4 0-7.5-1-1.5-5 1z" fill="#FFE7CA"/><path fill-rule="evenodd" clip-rule="evenodd" d="M39.2 24.8c.2 4.2-1.6 7-3 6.4-1-.5-.9-2-.9-2 .4-3 .2-6-.7-9a12 12 0 00-3.3-5 8.8 8.8 0 00-3-2.2 9 9 0 01-2 6c-.6 1-1.4 2-2.2 3-2.3 2.5-5.1 5.7-5.1 10.3a12.3 12.3 0 007.9 11l2.4.7a5 5 0 01-2-3.3s-.7-2.7 1.3-6.7c.3-.8.8-1.6 1.3-2.4 0 0 0 1 1 2.3.5.9 1.4 1.9 2.9 2.9a4.3 4.3 0 011.9 4.5 4.2 4.2 0 01-2 2.7 12.5 12.5 0 003.6-1.3c3.9-2.1 6.7-6.1 6.7-10.4a13.8 13.8 0 00-5-10.5l-.5-.3.2.6c.3 1 .4 1.9.5 2.7zm2.8 7.5c0-1.5-.4-3-1-4.5 0 .6-.2 1.2-.4 1.7-.4 1-1 2.1-1.7 2.8-.8.7-2.2 1.3-3.6.7a3.5 3.5 0 01-1.9-2.5 5 5 0 010-1.3h2-2V29a21 21 0 00-.7-8.2 10 10 0 00-2.8-4.3A11 11 0 0128 20c-.7 1.2-1.5 2.2-2.4 3.2-2.4 2.6-4.6 5.2-4.6 9a10 10 0 004.1 7.7l.1-2.1c.3-2 1-4.5 3-7.4a2 2 0 013.7 1v.1l.3.7c.3.7 1 1.7 2.6 2.8a6.3 6.3 0 013 5 10 10 0 004.2-7.8z" fill="#FFAD4D"/><path d="M22.1 12.2c-.1 1.4-1.4 2.4-3 4.1-.5.6-.9 1.3-1 2a5 5 0 000 2.4c6.6-3.1 4-8.5 4-8.5z" fill="#FD9317"/></g><defs><clipPath id="clip0"><path fill="#fff" d="M0 0h48v48H0z"/></clipPath></defs></svg>
