<svg width="48" height="48" fill="none" xmlns="http://www.w3.org/2000/svg">
  <g clip-path="url(#clip0)">
    <path d="M13.7 5.5C2 3.7 5.6 32.3 13.8 36c8.3 3.7 3.3-7.3 21.3-8 18-.9 6.5-19.2-.7-23.3-7.2-4.1-8.9 2.7-20.7 1z" fill="#F9FAFC"/>
    <path d="M24.4 16c-3.4.1-3.4 4.5-8.8 6s-9.3 5.4-6.9 12c2.5 6.4 9.7 8.5 13.8 6 4.2-2.5 3.5-5.5 5.4-8 4.7-6 0-5.3 0-7.5s.7-8.6-3.5-8.5z" fill="#F0EEFF"/>
    <path fill-rule="evenodd" clip-rule="evenodd" d="M35.7 20.8a12 12 0 00-9.7-8.6v8.6h9.7zM24.7 10A14 14 0 0138 22.2c0 .1 0 .3-.2.4 0 .2-.3.2-.4.2H24.6c-.3 0-.6-.2-.6-.6V10.6c0-.2 0-.3.2-.4.1-.2.3-.2.5-.2z" fill="#8358FF"/>
    <path fill-rule="evenodd" clip-rule="evenodd" d="M12.6 31.8a.6.6 0 00-.1 1A14.4 14.4 0 0038 24.6a.6.6 0 00-.6-.7H24l-.4.1-11 7.7zM35.8 26H24.4L15 32.6A12.4 12.4 0 0035.8 26z" fill="#8358FF"/>
    <path fill-rule="evenodd" clip-rule="evenodd" d="M22.6 23.7l.2-.5V10.6c0-.2 0-.3-.2-.4a.6.6 0 00-.4-.2c-7 .7-12.2 6.7-12.2 13.8 0 2.4.6 4.8 1.8 6.9a.6.6 0 00.5.3l.3-.1 10-7.2zm-9.8 4.6c-.5-1.4-.8-3-.8-4.5 0-5.6 3.7-10.3 8.8-11.5v10.2l-8 5.8zm8.6-6.2z" fill="#8358FF"/>
    <path fill-rule="evenodd" clip-rule="evenodd" d="M34 9c0-.6.4-1 1-1h5a1 1 0 110 2h-5a1 1 0 01-1-1z" fill="#8358FF"/>
    <path fill-rule="evenodd" clip-rule="evenodd" d="M1 22c0-.6.4-1 1-1h3a1 1 0 110 2H2a1 1 0 01-1-1z" fill="#8358FF"/>
    <path fill-rule="evenodd" clip-rule="evenodd" d="M38 36c0-.6.4-1 1-1h5a1 1 0 110 2h-5a1 1 0 01-1-1z" fill="#8358FF"/>
    <path fill-rule="evenodd" clip-rule="evenodd" d="M38 39c0-.6.4-1 1-1h3a1 1 0 110 2h-3a1 1 0 01-1-1z" fill="#8358FF"/>
  </g>
  <defs>
    <clipPath id="clip0">
      <path fill="#fff" d="M0 0h48v48H0z"/>
    </clipPath>
  </defs>
</svg>
