<svg width="18" height="15" xmlns="http://www.w3.org/2000/svg">
  <defs>
    <symbol id="icon" width="18" height="15">
      <path
        d="M15.75 3.5c0-.7-.56-1.25-1.25-1.25h-7c-.7 0-1.25.56-1.25 1.25v4c0 .7.56 1.25 1.25 1.25h2.75a.75.75 0 0 1 0 1.5H7.5A2.75 2.75 0 0 1 4.75 7.5v-4A2.75 2.75 0 0 1 7.5.75h7a2.75 2.75 0 0 1 2.75 2.75v4c0 .7-.2 1.37-.63 1.9-.45.53-1.1.85-1.87.85a.75.75 0 0 1 0-1.5c.33 0 .56-.13.71-.31.17-.2.29-.53.29-.94v-4z"
      />
      <path
        d="M11.75 7.5c0-.7-.56-1.25-1.25-1.25H7.75a.75.75 0 0 1 0-1.5h2.75a2.75 2.75 0 0 1 2.75 2.75v4a2.75 2.75 0 0 1-2.75 2.75h-7A2.75 2.75 0 0 1 .75 11.5v-4c0-.7.2-1.37.63-1.9.45-.53 1.1-.85 1.87-.85a.75.75 0 0 1 0 1.5.87.87 0 0 0-.71.31c-.17.2-.29.53-.29.94v4c0 .7.56 1.25 1.25 1.25h7c.7 0 1.25-.56 1.25-1.25v-4z"
      />
    </symbol>
  </defs>
</svg>
