<svg width="1025" height="701" fill="none" xmlns="http://www.w3.org/2000/svg"><g opacity=".4"><path d="M33.83 521.58c.3-.29 3.73 1.46 9.74 4.95 6 3.49 14.88 8.72 25.75 15.11l.86.3v.86c.8 9.2 1.88 19.85 2.96 31.36v1.15l-.87.57a4666.6 4666.6 0 00-30.9 27.13l-1.16 1.14-1.43-.87c-12.3-7.55-23.75-14.81-34.34-21.5l-.85-.57v-1.16c-.79-11.5-1.58-22.15-2.1-31.35v-.87l.58-.57c9.54-8.28 17.62-14.55 23.1-19.12 5.49-4.28 8.66-6.85 8.66-6.56.29.29-2.6 3.15-7.8 8-5.2 4.86-12.72 11.71-21.96 20.28.29-.57.3-.86.58-1.43.8 9.2 1.89 19.85 2.97 31.36l-.86-1.73c10.6 6.68 22.32 13.66 34.63 21.21-.86 0-1.73.28-2.59.27 10.97-9.42 21.37-18.55 30.9-26.83-.29.57-.58 1.14-.58 1.72-.8-11.51-1.59-22.16-2.1-31.36.28.57.57.86.85 1.44a924.65 924.65 0 01-24.89-16.26c-6-4.06-9.15-6.38-9.15-6.67z" fill="#E7EAF3"/><path d="M5.6 580.07c-.85-.87 10.7-12.3 25.73-25.72 1.15-1.15 2.3-2 3.47-3.15l-.88 1.72c-1.32-17.83-1.52-31.64-.37-31.63 1.15 0 3.07 13.53 4.68 31.37v1.15l-.87.86c-1.16 1.14-2.31 2-3.47 3.14-14.44 13.14-27.43 23.13-28.29 22.26z" fill="#E7EAF3"/><path d="M70.99 574.58c.67-1.08-6.55-6.77-16.12-12.71-9.58-5.94-17.88-9.88-18.55-8.8-.67 1.08 6.55 6.77 16.12 12.71 9.58 5.94 17.88 9.88 18.55 8.8zM897.58 396.86c-.28-.3 2.9-5.16 9-14.04 6.08-8.88 14.78-21.47 25.5-37.22l.58-.58.87.01c14.07-.49 30.16-.67 47.69-1.14h1.14l.57.88c11.68 15.31 24.51 31.78 37.9 49.4l1.14 1.45-.88 1.44c-12.74 17.75-24.63 34.64-35.93 50.1l-.58.85h-1.15c-17.52.18-33.6.36-47.68.56h-.86l-.57-.58c-11.4-15.31-20.8-27.74-27.06-36.4-6.55-9.54-9.97-14.45-9.68-14.73.3-.29 4.29 4.34 10.84 12.72 6.84 8.38 16.53 20.52 28.21 35.55-.57-.3-.86-.3-1.43-.59 14.08-.49 30.16-.67 47.69-1.14l-1.73.86c11.01-15.46 22.9-32.64 35.65-50.4l-.02 2.6c-13.39-17.63-26.21-34.1-37.6-49.42l1.71.88c-17.52.17-33.6.36-47.68.56.57-.28.86-.57 1.44-.85A4321.93 4321.93 0 01908 383.98c-6.38 8.59-10.14 13.17-10.43 12.88z" fill="#E7EAF3"/><path d="M983.16 445.42c-.86.86-16.83-18.22-35.35-42.2a99.56 99.56 0 00-4.27-5.79l1.72.88c-27 .4-47.68-.3-47.67-1.45 0-1.15 20.7-2.46 47.7-3.16l1.14.01.57.87a99.56 99.56 0 014.28 5.78c18.51 24.27 32.75 44.49 31.88 45.06z" fill="#E7EAF3"/><path d="M965.13 372.38c9.84-13.85 16.98-25.67 15.95-26.4-1.03-.74-9.85 9.88-19.7 23.73-9.84 13.84-16.99 25.66-15.95 26.4 1.03.73 9.85-9.9 19.7-23.73zM949.77 229.75c.03-.65 12.17 1.18 31.06 4.46l.89.17.47.92c3.06 6.32 6.7 13.94 10.6 21.7l.47.93-.56 1c-4.51 8.69-9.7 17.98-14.9 27.92l-.84 1.5-1.54-.2a2919.4 2919.4 0 01-30.71-6.25l-1.14-.3-.48-.93c-3.6-8.27-7.14-15.5-10.06-22.06l-.47-.93.42-.75c9.91-17.2 16.04-27.6 16.8-27.18.5.28-4.63 11.25-13.4 28.75.03-.65-.08-1.04.2-1.54 3.3 6.45 6.84 13.69 10.84 21.85-.5-.28-.86-.81-1.36-1.1 9.57 1.72 19.89 3.85 30.85 6-.78.23-1.7.7-2.38 1.32 5.47-9.8 10.4-19.23 15.15-27.77l-.08 1.93c-3.76-8.02-7.15-15.5-10.06-22.07.5.28.86.8 1.11.95-19.33-4.85-31.16-7.82-30.88-8.32z" fill="#E7EAF3"/><path d="M945.08 279.47c-1-.56 4.01-11.92 11.32-25.62l1.82-3.26-.09 1.92c-5.86-12.49-9.53-22.43-8.22-23.01.93-.48 6.3 8.77 12.3 21l.47.93-.56 1-1.82 3.27c-7.45 13.95-14.22 24.33-15.22 23.77z" fill="#E7EAF3"/><path d="M974.95 256.8c8.56 1.7 15.7 2.07 15.94.82.25-1.25-6.49-3.63-15.05-5.32-8.56-1.7-15.7-2.06-15.94-.81-.25 1.24 6.49 3.63 15.05 5.32zM107.56 426.36c.29-.57-11.23-4.82-29.36-11.03l-.87-.28-.85.58c-5.72 4.06-12.59 9-19.74 13.93l-.85.58v1.15c-.22 9.78-.16 20.42-.37 31.63v1.73l1.45.56a2888.2 2888.2 0 0029.93 9.3l1.15.29.86-.58c7.14-5.51 13.72-10.15 19.44-14.5l.86-.58-.01-.87c-.41-19.84-.77-31.91-1.64-31.9-.57 0-1.36 12.08-2.1 31.64.29-.58.57-.87.57-1.44-6 4.06-12.58 8.7-20.02 13.93.58 0 1.15-.3 1.72-.3-9.2-3.1-19.28-6.2-29.93-9.6a6.27 6.27 0 011.45 2.3c-.07-11.21.15-21.86.09-31.63l-.85 1.73c7.15-5.22 13.72-10.15 19.44-14.5-.58 0-1.15.3-1.43.3 19.27 5.05 31.07 8.14 31.06 7.56z" fill="#E7EAF3"/><path d="M87.74 472.21c1.15 0 2.23-12.38 2.42-27.9l-.03-3.75-.85 1.73c11.15-8.12 19.15-15.07 18.28-16.22-.58-.85-9.73 4.67-20.89 12.5l-.86.58.01 1.15.03 3.74c-.2 15.82.75 28.18 1.9 28.17z" fill="#E7EAF3"/><path d="M72.47 437.97c-8.32-2.64-14.75-5.76-14.37-6.97.39-1.21 7.44-.06 15.76 2.58s14.75 5.75 14.37 6.97c-.39 1.2-7.44.05-15.76-2.58zM446.63 604.87c.04-.28 2.5-1.4 7.16-3.69 4.64-2.28 11.72-5.4 20.95-9.4 18.16-8.02 44.3-19.35 76.3-33.37l.93-.45.81.4c22.3 13.12 48.13 28.15 76.07 44.63l.81.4.14 1.18c3.7 35.3 7.85 73.86 12.02 114.44l.06 1.75-1.54.67c-37.14 15.66-72.47 30.69-104.71 44.39l-.93.45-.82-.4a9649.83 9649.83 0 00-75.99-45.2l-.81-.4-.18-.9c-3.42-35.26-6.3-63.78-7.99-83.73-.99-10-1.42-17.6-1.88-22.88-.5-5-.72-7.64-.4-7.89.29.04.51 2.68 1.25 8 .75 5.32 1.75 13 2.78 22.7 2.3 19.75 5.46 48.31 9.49 83.37-.25-.32-.46-.93-.7-1.26 22.3 13.12 48.12 28.16 76.35 44.68l-2-.27c32.29-13.98 67.9-28.97 104.75-44.67-.4.82-.8 1.63-1.48 2.42-4.16-40.6-8.02-79.1-11.73-114.42.2.61.74.97.95 1.58-27.9-16.76-53.69-32.09-75.71-45.17.57.08 1.14.15 1.42.2-32.2 13.4-58.59 24.4-76.96 31.83a7535.7 7535.7 0 01-21.12 8.5c-4.9 1.96-7.33 2.8-7.29 2.51z" fill="#E7EAF3"/><path d="M534.4 764.2c-.61.21-2.27-11.32-4.8-29.35-2.2-18.28-5.2-43.63-8.15-71.58-.57-4.43-.82-9.1-1.43-13.25.5.65.7 1.26 1.23 1.62a2243.33 2243.33 0 01-53.6-32.66c-13.37-8.45-21.38-13.58-21.02-14.1.36-.54 8.73 4.05 22.78 11.73a2334.7 2334.7 0 0154.37 31.3l1.06.72.13 1.18c.61 4.14.86 8.82 1.43 13.25 2.95 27.95 5.38 53.22 6.7 71.67 1.35 18.17 1.86 29.55 1.3 29.47z" fill="#E7EAF3"/><path d="M575.73 629.57c28.9-12.3 51.94-23.22 51.44-24.39-.5-1.17-24.33 7.85-53.24 20.15-28.91 12.3-51.94 23.22-51.45 24.4.5 1.16 24.34-7.86 53.25-20.16zM381.04 137.1c.28.58-6.93 5.42-18.75 12.54-11.82 7.4-28.54 17.08-47.28 27.6a1758.4 1758.4 0 01-47.85 26.44c-12.39 6.54-20.17 10.52-20.45 9.94-.29-.58 6.92-5.42 18.74-12.54 11.83-7.4 28.55-17.07 47.29-27.6a1760.31 1760.31 0 0147.84-26.44c12.4-6.54 20.17-10.51 20.46-9.94z" fill="#E7EAF3"/><g opacity=".87"><g opacity=".87"><path opacity=".87" d="M589.97 348.34L618 461.54l-100.05 59.19-28.3-113.2 100.33-59.19zM517.94 520.73l-83.37-34.46-28.3-113.48 83.37 34.74 28.3 113.2zM489.64 407.53l-83.37-34.74 100.05-59.2 83.65 34.75-100.33 59.19z" fill="#E7EAF3"/></g><path opacity=".87" d="M589.97 348.34l-83.65-34.74-100.05 59.19 28.3 113.48 83.37 34.45 100.04-59.19-28-113.19z" fill="#E7EAF3"/></g><path d="M462.09 449.92c.28.57-6.06 4.85-16.73 11.4a1679 1679 0 01-41.8 24.47 1277.18 1277.18 0 01-42.38 23.31c-10.94 5.68-17.86 9.1-18.14 8.51-.29-.57 6.06-4.85 16.73-11.4a1680.85 1680.85 0 0141.8-24.46 1279.32 1279.32 0 0142.37-23.32c10.95-5.68 17.87-9.09 18.15-8.51zM757.37 586.64c.29.58-6.35 4.85-17.3 11.68-10.96 6.84-26.24 15.66-43.25 25.61-17 9.68-32.57 18.5-44.1 24.46-11.53 5.97-18.73 9.37-19.02 9.08-.28-.57 6.35-4.85 17.31-11.68 10.96-6.83 26.24-15.65 43.53-25.6 17.01-9.68 32.58-18.5 44.1-24.46 10.96-6.26 18.16-9.67 18.73-9.09zM497.94 367.03c-.58.29-3.39-9.8-7.6-25.64-4.2-16.13-9.52-38.3-15.4-62.79a2279.15 2279.15 0 01-13.97-63.06c-3.34-16.13-5.3-26.2-4.43-26.49.58-.28 3.39 9.8 7.6 25.64 4.2 16.13 9.52 38.31 15.4 62.8a2066.17 2066.17 0 0113.97 63.06c3.34 16.12 5 26.2 4.43 26.48zM238.25 508.9c-.58.3-3.39-9.5-7.31-25.06a4489.8 4489.8 0 01-14.84-60.77c-5.6-23.9-10.35-45.5-13.7-61.34-3.34-15.84-5-25.63-4.43-25.62.57-.29 3.39 9.51 7.31 25.06a3736.2 3736.2 0 0114.84 61.06c5.6 23.9 10.34 45.5 13.7 61.34 3.34 15.55 5 25.34 4.43 25.34zM184 494s-80-30.5-80.92-27.44C102.16 469.62 184 494 184 494zM955.5 339s5.5-49 3-50-3 50-3 50zM50 522c-1-.5 14-47 16.5-48-.5 2.5-15.5 48.5-16.5 48zM445.33 662.83c-.15.63-9.46-3.52-23.9-10.5-37.62-18.23-75-36.98-111.88-56.65-14.28-7.62-22.85-12.64-22.48-13.08.16-.62 9.47 3.52 23.9 10.51a3236.44 3236.44 0 01112.1 56.84c14.06 7.43 22.63 12.45 22.26 12.88zM705.23 205.66c-.12.63-9.67-2.94-24.5-9.03-38.68-15.87-152.4-51.75-190.42-69.12-14.73-6.72-23.58-11.2-23.24-11.67.11-.63 9.66 2.94 24.5 9.03 38.75 15.9 152.54 51.89 190.65 69.3 14.5 6.54 23.35 11.03 23 11.49zM841.39 457.7c-1.16 12.02-34.96-134.3-34.96-134.3-4.37-16.58-5.71-26.45-5.08-26.38.66-.24 3.48 9.44 8.29 26.1 0 0 32.91 122.57 31.75 134.59zM791.6 486.78c-.57.28-3.38-8.94-7.03-23.63-3.93-14.69-8.97-35.13-14.29-57.6-5.31-22.46-9.78-43.2-12.85-57.88-3.06-14.98-4.73-24.19-4.15-24.19.57-.28 3.39 8.94 7.03 23.63 3.93 14.7 8.97 35.14 14.29 57.6 5.31 22.47 9.78 43.2 12.85 57.89 3.07 14.68 4.73 23.9 4.16 24.18zM702.2 498.58c-.29.58-8.6-2.35-22.35-7.9-13.47-5.26-32.1-13.14-52.43-21.9a2200.14 2200.14 0 01-52.13-23.04c-13.18-6.13-21.2-10.2-21.2-10.78.3-.57 8.61 2.36 22.36 7.9 13.47 5.27 32.1 13.15 52.72 21.9a2190.1 2190.1 0 0152.13 23.05c13.18 6.12 21.2 10.2 20.9 10.77z" fill="#E7EAF3"/><path d="M553.78 439.56a4.31 4.31 0 10.05-8.62 4.31 4.31 0 00-.05 8.62zM497.91 371.35a4.31 4.31 0 10.05-8.63 4.31 4.31 0 00-.05 8.63zM462.06 454.23a4.31 4.31 0 10.05-8.62 4.31 4.31 0 00-.05 8.62zM238.22 513.22a4.31 4.31 0 10.05-8.62 4.31 4.31 0 00-.05 8.62zM791.58 491.1a4.31 4.31 0 10.05-8.63 4.31 4.31 0 00-.05 8.62zM381 142.85a4.31 4.31 0 10.05-8.62 4.31 4.31 0 00-.05 8.62zM757.35 590.96a4.31 4.31 0 10.05-8.62 4.31 4.31 0 00-.05 8.62zM471.3 122.65a4.31 4.31 0 10.06-8.62 4.31 4.31 0 00-.05 8.62zM78.38 201.52c0-.29 2.3-1.72 6.62-4.6a554.55 554.55 0 0119.55-12.03c16.97-10.32 41.4-24.95 71.31-43.01l.86-.57.87.28c23.82 10.11 51.37 21.66 81.22 34.37l.86.3.29 1.14c8.27 34.53 17.39 72.21 26.8 111.91l.28 1.73-1.44.86c-34.79 20.36-67.86 39.85-98.05 57.63l-.86.57-.86-.29c-29.85-13-57.4-24.83-81.23-34.94l-.86-.3-.28-.85c-7.98-34.53-14.54-62.43-18.81-82-2.28-9.78-3.7-17.26-4.84-22.44-.86-5.17-1.43-7.76-1.43-7.76.3 0 .86 2.59 2.29 7.77a685.88 685.88 0 015.7 22.15c4.85 19.28 11.7 47.18 20.25 81.42-.29-.29-.57-.87-.86-1.15 23.82 10.1 51.37 21.66 81.51 34.37h-2c30.18-18.07 63.54-37.57 98.04-57.92-.29.86-.58 1.72-1.15 2.58-9.41-39.7-18.25-77.39-26.51-111.9.28.57.86.86 1.14 1.43-29.85-13-57.4-24.83-80.93-34.94h1.43c-30.19 17.49-54.92 31.82-72.17 41.57-8.62 4.87-15.24 8.6-19.84 11.18-4.3 2.3-6.6 3.44-6.9 3.44z" fill="#E7EAF3"/><path d="M186.4 348.09c-.57.28-3.7-10.94-8.56-28.49a4795.1 4795.1 0 01-17.4-69.9c-1.14-4.32-1.99-8.93-3.13-12.96.57.58.86 1.16 1.43 1.44a2243.93 2243.93 0 01-57.4-25.4c-14.35-6.65-22.96-10.69-22.67-11.26.29-.58 9.19 2.9 24.11 8.67a2339.42 2339.42 0 0157.98 23.97l1.15.58.28 1.15c1.15 4.03 2 8.63 3.14 12.95 6.56 27.33 12.26 52.07 15.96 70.2 3.7 17.54 5.7 28.76 5.12 29.05z" fill="#E7EAF3"/><path d="M210 209.18c27.07-15.96 48.5-29.78 47.85-30.87-.65-1.1-23.1 10.95-50.17 26.9-27.07 15.96-48.49 29.78-47.85 30.87.65 1.1 23.11-10.95 50.18-26.9zM686.28 174.27c.02-.29 2.4-1.58 6.88-4.18a552.9 552.9 0 0120.25-10.83c17.57-9.27 42.85-22.38 73.8-38.6l.9-.51.83.34c23.17 11.53 49.97 24.74 78.99 39.24l.84.34.22 1.16c6.15 34.97 12.97 73.14 19.94 113.34l.18 1.74-1.48.77c-35.97 18.2-70.16 35.65-101.38 51.56l-.9.52-.83-.34A9636.1 9636.1 0 00705.57 289l-.85-.35-.23-.88c-5.87-34.94-10.71-63.2-13.79-82.98-1.68-9.9-2.65-17.45-3.47-22.69-.82-5.24-.95-7.84-.95-7.84.29.02.7 2.64 1.81 7.9 1.11 5.25 2.65 12.84 4.35 22.45 3.67 19.54 8.8 47.8 15.26 82.5-.27-.3-.52-.9-.79-1.2 23.17 11.54 49.97 24.74 79.27 39.26l-2-.13c31.23-16.2 65.7-33.62 101.39-51.85a10.2 10.2 0 01-1.31 2.52c-6.98-40.2-13.5-78.36-19.66-113.32.25.6.8.91 1.05 1.5-29-14.78-55.78-28.27-78.66-39.79.57.04 1.15.07 1.43.1-31.2 15.61-56.75 28.42-74.56 37.1-8.9 4.34-15.73 7.65-20.48 9.95-4.45 2.03-7.1 3.01-7.1 3.01z" fill="#E7EAF3"/><path d="M785.2 327.13c-.6.25-3.04-11.14-6.82-28.95a4789.27 4789.27 0 01-13.11-70.84c-.88-4.38-1.45-9.02-2.35-13.11.54.6.79 1.2 1.35 1.52a2244.7 2244.7 0 01-55.75-28.85c-13.92-7.5-22.27-12.05-21.95-12.61.32-.56 9 3.45 23.54 10.12 14.26 6.66 34.1 16.25 56.41 27.45l1.12.65.21 1.16c.9 4.1 1.47 8.74 2.34 13.12 4.89 27.68 9.07 52.72 11.67 71.03 2.63 17.74 3.93 29.06 3.34 29.31z" fill="#E7EAF3"/><path d="M817.22 189.89c27.99-14.28 50.21-26.78 49.64-27.9-.58-1.14-23.74 9.52-51.73 23.8-27.98 14.28-50.2 26.77-49.63 27.9.58 1.13 23.73-9.52 51.72-23.8z" fill="#E7EAF3"/><g opacity=".87"><path opacity=".87" d="M500.03 32.88l28.3 113.2-100.04 59.18L400 92.07l100.04-59.19z" fill="#E7EAF3"/><path opacity=".87" d="M428.3 205.27l-83.66-34.75-28.3-113.2 83.65 34.75 28.3 113.2z" fill="#D2D6E7"/><path opacity=".87" d="M400 92.07l-83.67-34.74 100.33-59.2 83.37 34.75L400 92.08z" fill="#F9FAFC"/><path opacity=".87" d="M879.84 477.84l28.3 113.2-100.32 59.18-28.3-113.19 100.32-59.19z" fill="#E7EAF3"/><path opacity=".87" d="M807.82 650.23l-83.37-34.75-28.3-113.2 83.36 34.75 28.3 113.2z" fill="#D2D6E7"/><path opacity=".87" d="M779.51 537.03l-83.36-34.74 100.04-59.2 83.65 34.75-100.33 59.19z" fill="#F9FAFC"/></g><g opacity=".87"><path opacity=".87" d="M335.15 493.4l28.3 113.2-100.33 59.2-28.02-113.2 100.05-59.2z" fill="#E7EAF3"/><path opacity=".87" d="M263.12 665.8l-83.37-34.75-28.3-113.2 83.65 34.75 28.02 113.2z" fill="#D2D6E7"/><path opacity=".87" d="M235.1 552.6l-83.65-34.75 100.33-59.18 83.36 34.74L235.1 552.6z" fill="#F9FAFC"/></g></g></svg>
