<svg width="0" height="0">
  <symbol viewBox="0 0 18 18" xmlns="http://www.w3.org/2000/svg" id="sonar">
    <path fill-rule="evenodd" clip-rule="evenodd" d="M9 2a7 7 0 1 0 6.965 6.297 1 1 0 1 1 1.99-.199A9 9 0 1 1 11.25.283a1 1 0 1 1-.498 1.937A7.015 7.015 0 0 0 9 2z" fill="var(--icon-secondary, #B9EDDF)"></path>
    <path d="M17 4a2 2 0 1 1-4 0 2 2 0 0 1 4 0z" fill="var(--icon-primary, #14C393)"></path>
    <path fill-rule="evenodd" clip-rule="evenodd" d="M9 11a2 2 0 1 0 0-4 2 2 0 0 0 0 4zm0 2a4 4 0 1 0 0-8 4 4 0 0 0 0 8z" fill="var(--icon-primary, #14C393)"></path>
  </symbol>
  <symbol viewBox="0 0 18 18" xmlns="http://www.w3.org/2000/svg" id="menu">
    <path d="M11.906 6h-6a1 1 0 0 0 0 2h6a1 1 0 1 0 0-2zm0 4h-6a1 1 0 1 0 0 2h6a1 1 0 1 0 0-2z" fill="var(--icon-primary, #181B2B)"></path>
    <path fill-rule="evenodd" clip-rule="evenodd" d="M2 9a7.003 7.003 0 0 0 4.375 6.492 1 1 0 0 1-.75 1.853 9.003 9.003 0 0 1 0-16.69 1 1 0 1 1 .75 1.853A7.003 7.003 0 0 0 2 9zm9.073 7.794a1 1 0 0 1 .552-1.303 7.003 7.003 0 0 0 0-12.983 1 1 0 1 1 .75-1.853 9.003 9.003 0 0 1 0 16.69 1 1 0 0 1-1.302-.551z"
      fill="var(--icon-secondary, #E7EAF3)"></path>
  </symbol>
  <symbol viewBox="0 0 18 18" xmlns="http://www.w3.org/2000/svg" id="assets">
    <path d="M13.993 6.339a8 8 0 0 1-7.654 7.654A6.002 6.002 0 0 0 17.999 12a6.002 6.002 0 0 0-4.006-5.661z" fill="var(--icon-secondary, #B9EDDF)"></path>
    <path fill-rule="evenodd" clip-rule="evenodd" d="M12 6A6 6 0 1 1 0 6a6 6 0 0 1 12 0zm-6 4a4 4 0 1 0 0-8 4 4 0 0 0 0 8z" fill="var(--icon-primary, #14C393)"></path>
  </symbol>
  <symbol viewBox="0 0 18 18" xmlns="http://www.w3.org/2000/svg" id="insights">
    <path fill-rule="evenodd" clip-rule="evenodd" d="M9 2a7 7 0 0 0-5.465 11.374 1 1 0 0 1-1.56 1.252 9 9 0 1 1 14.051 0 1 1 0 1 1-1.56-1.252A7 7 0 0 0 9 2z" fill="var(--icon-secondary, #E7EAF3)"></path>
    <path fill-rule="evenodd" clip-rule="evenodd" d="M6 15.326V16a2 2 0 0 0 2 2h2a2 2 0 0 0 2-2v-.674A6.972 6.972 0 0 1 9 16a6.972 6.972 0 0 1-3-.674z" fill="var(--icon-primary,#181B2B)"></path>
    <path fill-rule="evenodd" clip-rule="evenodd" d="M14 9A5 5 0 1 1 4 9a5 5 0 0 1 10 0zm-5 3a3 3 0 1 0 0-6 3 3 0 0 0 0 6z" fill="var(--icon-primary, #181B2B)"></path>
  </symbol>
  <symbol viewBox="0 0 23 18" width="23px" xmlns="http://www.w3.org/2000/svg" id="watchlists">
    <path fill-rule='evenodd' clip-rule='evenodd' d='M.46 9L1 8.13l.07-.12C1.65 6.97 5.57 0 11.5 0c5.94 0 9.85 6.97 10.43 8.01l.06.12.54.87-.54.87-.06.12c-.58 1.04-4.5 8.01-10.43 8.01-5.85 0-9.84-6.97-10.42-8.01A4.3 4.3 0 001 9.87L.46 9zm2.35 0l.02.02c.33.6 1.2 2.13 2.63 3.7C7.14 14.55 9.2 16 11.49 16c2.29 0 4.36-1.44 6.04-3.29 1.42-1.56 2.3-3.1 2.63-3.69l.01-.02-.01-.02c-.34-.6-1.2-2.13-2.63-3.7C15.85 3.45 13.78 2 11.49 2 9.21 2 7.14 3.44 5.46 5.29A20.5 20.5 0 002.8 9z' fill='var(--icon-secondary, #B9EDDF)' />
    <path d='M11 10.5a1.5 1.5 0 100-3 1.5 1.5 0 000 3z' fill='var(--icon-primary,#181B2B)' />
    <path fill-rule='evenodd' clip-rule='evenodd' d='M6 9a5 5 0 119.99-.01A5 5 0 016 9zm2 0a3 3 0 116 0 3 3 0 11-6 0z' fill='var(--icon-primary,#181B2B)' />
  </svg>
  </symbol>
</svg>
