<svg width="0" height="0">
  <symbol viewBox="0 0 18 18" xmlns="http://www.w3.org/2000/svg" id="menu">
    <path d="M11.906 6h-6a1 1 0 0 0 0 2h6a1 1 0 1 0 0-2zm0 4h-6a1 1 0 1 0 0 2h6a1 1 0 1 0 0-2z" fill="var(--icon-primary, #2F354D)"></path>
    <path fill-rule="evenodd" clip-rule="evenodd" d="M2 9a7.003 7.003 0 0 0 4.375 6.492 1 1 0 0 1-.75 1.853 9.003 9.003 0 0 1 0-16.69 1 1 0 1 1 .75 1.853A7.003 7.003 0 0 0 2 9zm9.073 7.794a1 1 0 0 1 .552-1.303 7.003 7.003 0 0 0 0-12.983 1 1 0 1 1 .75-1.853 9.003 9.003 0 0 1 0 16.69 1 1 0 0 1-1.302-.551z"
      fill="var(--icon-secondary, #E7EAF3)"></path>
  </symbol>
  <symbol viewBox="0 0 22 18" width="22" xmlns="http://www.w3.org/2000/svg" id="assets">
    <path d="M15.5 8.7a4.5 4.5 0 11-9 .6 4.5 4.5 0 019-.6zm-4.33 2.8a2.5 2.5 0 10-.34-5 2.5 2.5 0 00.34 5z" fill="var(--icon-primary, #2F354D)"/>
    <path d="M9.95 17.1a8.3 8.3 0 119.03-5.93 1 1 0 01-1.92-.55 6.3 6.3 0 10-6.85 4.5 1 1 0 11-.26 1.99z" fill="var(--icon-secondary, #E7EAF3)"/>
    <path d="M18.41 10.01a1 1 0 01.68 1.24 8.3 8.3 0 01-10.3 5.65 1 1 0 01.56-1.92 6.3 6.3 0 007.82-4.29 1 1 0 011.24-.68z" fill="var(--icon-primary, #2F354D)"/>
  </symbol>
  <symbol viewBox="0 0 18 18" xmlns="http://www.w3.org/2000/svg" id="insights">
    <path fill-rule="evenodd" clip-rule="evenodd" d="M9 2a7 7 0 0 0-5.465 11.374 1 1 0 0 1-1.56 1.252 9 9 0 1 1 14.051 0 1 1 0 1 1-1.56-1.252A7 7 0 0 0 9 2z" fill="var(--icon-secondary, #E7EAF3)"></path>
    <path fill-rule="evenodd" clip-rule="evenodd" d="M6 15.326V16a2 2 0 0 0 2 2h2a2 2 0 0 0 2-2v-.674A6.972 6.972 0 0 1 9 16a6.972 6.972 0 0 1-3-.674z" fill="var(--icon-primary,#2F354D)"></path>
    <path fill-rule="evenodd" clip-rule="evenodd" d="M14 9A5 5 0 1 1 4 9a5 5 0 0 1 10 0zm-5 3a3 3 0 1 0 0-6 3 3 0 0 0 0 6z" fill="var(--icon-primary, #2F354D)"></path>
  </symbol>
  <symbol viewBox="0 0 23 18" width="23" xmlns="http://www.w3.org/2000/svg" id="watchlists">
    <path fill-rule='evenodd' clip-rule='evenodd' d='M.46 9L1 8.13l.07-.12C1.65 6.97 5.57 0 11.5 0c5.94 0 9.85 6.97 10.43 8.01l.06.12.54.87-.54.87-.06.12c-.58 1.04-4.5 8.01-10.43 8.01-5.85 0-9.84-6.97-10.42-8.01A4.3 4.3 0 001 9.87L.46 9zm2.35 0l.02.02c.33.6 1.2 2.13 2.63 3.7C7.14 14.55 9.2 16 11.49 16c2.29 0 4.36-1.44 6.04-3.29 1.42-1.56 2.3-3.1 2.63-3.69l.01-.02-.01-.02c-.34-.6-1.2-2.13-2.63-3.7C15.85 3.45 13.78 2 11.49 2 9.21 2 7.14 3.44 5.46 5.29A20.5 20.5 0 002.8 9z' fill='var(--icon-secondary, #B9EDDF)' />
    <path d='M11 10.5a1.5 1.5 0 100-3 1.5 1.5 0 000 3z' fill='var(--icon-primary,#2F354D)' />
    <path fill-rule='evenodd' clip-rule='evenodd' d='M6 9a5 5 0 119.99-.01A5 5 0 016 9zm2 0a3 3 0 116 0 3 3 0 11-6 0z' fill='var(--icon-primary,#2F354D)' />
  </symbol>
  <symbol viewBox="0 0 18 18" xmlns="http://www.w3.org/2000/svg" id="feed">
  <path d="M7.59.6A1 1 0 006.24.16a9.39 9.39 0 004.25 17.76c1.95 0 3.69-.6 5.33-1.6a1 1 0 00.48-.89c.02-.86-1.01-1.92-1.44-2.62a1 1 0 00-1.7 1.04l.75 1.24a7.39 7.39 0 01-7.66-12.6l.98 1.63a1 1 0 101.71-1.04C8.44 2.26 8.01 1.43 7.6.6z" fill="var(--icon-secondary, #E7EAF3)"/>
  <path fill-rule="evenodd" clip-rule="evenodd" d="M16.9 8.33a6.07 6.07 0 11-12.14 0 6.07 6.07 0 0112.13 0zm-2 0a4.07 4.07 0 01-6.85 2.96l3.32-2.12a1 1 0 10-1.08-1.68L6.97 9.6a4.06 4.06 0 117.92-1.28z" fill="var(--icon-primary,#2F354D)"/>
</symbol>
</svg>
