<svg width="0" height="0">
  <symbol viewBox="0 0 18 18" xmlns="http://www.w3.org/2000/svg" id="sonar">
    <path fill-rule="evenodd" clip-rule="evenodd" d="M9 2a7 7 0 1 0 6.965 6.297 1 1 0 1 1 1.99-.199A9 9 0 1 1 11.25.283a1 1 0 1 1-.498 1.937A7.015 7.015 0 0 0 9 2z" fill="var(--icon-secondary, #B9EDDF)"></path>
    <path d="M17 4a2 2 0 1 1-4 0 2 2 0 0 1 4 0z" fill="var(--icon-primary, #14C393)"></path>
    <path fill-rule="evenodd" clip-rule="evenodd" d="M9 11a2 2 0 1 0 0-4 2 2 0 0 0 0 4zm0 2a4 4 0 1 0 0-8 4 4 0 0 0 0 8z" fill="var(--icon-primary, #14C393)"></path>
  </symbol>
  <symbol viewBox="0 0 18 18" xmlns="http://www.w3.org/2000/svg" id="menu">
    <path d="M11.906 6h-6a1 1 0 0 0 0 2h6a1 1 0 1 0 0-2zm0 4h-6a1 1 0 1 0 0 2h6a1 1 0 1 0 0-2z" fill="var(--icon-primary, #181B2B)"></path>
    <path fill-rule="evenodd" clip-rule="evenodd" d="M2 9a7.003 7.003 0 0 0 4.375 6.492 1 1 0 0 1-.75 1.853 9.003 9.003 0 0 1 0-16.69 1 1 0 1 1 .75 1.853A7.003 7.003 0 0 0 2 9zm9.073 7.794a1 1 0 0 1 .552-1.303 7.003 7.003 0 0 0 0-12.983 1 1 0 1 1 .75-1.853 9.003 9.003 0 0 1 0 16.69 1 1 0 0 1-1.302-.551z"
      fill="var(--icon-secondary, #E7EAF3)"></path>
  </symbol>
  <symbol viewBox="0 0 18 18" xmlns="http://www.w3.org/2000/svg" id="assets">
    <path d="M13.993 6.339a8 8 0 0 1-7.654 7.654A6.002 6.002 0 0 0 17.999 12a6.002 6.002 0 0 0-4.006-5.661z" fill="var(--icon-secondary, #B9EDDF)"></path>
    <path fill-rule="evenodd" clip-rule="evenodd" d="M12 6A6 6 0 1 1 0 6a6 6 0 0 1 12 0zm-6 4a4 4 0 1 0 0-8 4 4 0 0 0 0 8z" fill="var(--icon-primary, #14C393)"></path>
  </symbol>
  <symbol viewBox="0 0 18 18" xmlns="http://www.w3.org/2000/svg" id="insights">
    <path fill-rule="evenodd" clip-rule="evenodd" d="M9 2a7 7 0 0 0-5.465 11.374 1 1 0 0 1-1.56 1.252 9 9 0 1 1 14.051 0 1 1 0 1 1-1.56-1.252A7 7 0 0 0 9 2z" fill="var(--icon-secondary, #E7EAF3)"></path>
    <path fill-rule="evenodd" clip-rule="evenodd" d="M6 15.326V16a2 2 0 0 0 2 2h2a2 2 0 0 0 2-2v-.674A6.972 6.972 0 0 1 9 16a6.972 6.972 0 0 1-3-.674z" fill="var(--icon-primary,#181B2B)"></path>
    <path fill-rule="evenodd" clip-rule="evenodd" d="M14 9A5 5 0 1 1 4 9a5 5 0 0 1 10 0zm-5 3a3 3 0 1 0 0-6 3 3 0 0 0 0 6z" fill="var(--icon-primary, #181B2B)"></path>
  </symbol>
</svg>
