<svg width="116" height="72" fill="none" xmlns="http://www.w3.org/2000/svg"><path d="M104.4 17c-2.3-1.6-6.7.7-8.8 1.9-2.6 1.4-.3 5 2.2 3.9l.4-.2-1.5 1.4c-.6.6-.6.8-1.4.6-.5 0-1-.7-1.5-1L91 21.4c-.8-.7-2 .5-1.4 1.4 1.4 2 3.4 6 6.1 6 2.7 0 5.6-3.2 7.2-5 1.6-1.7 4.3-5 1.4-6.8z" fill="#E0DFE6"/><path fill-rule="evenodd" clip-rule="evenodd" d="M90.3 20.3a2 2 0 0 1-.2-2.7c.3-.5.7-.9 1.1-1.2 1.2-1.3 2.5-2.6 3.8-3.7a2 2 0 0 1 2.7 0l.9 1 1 .9 2.5 2.3a2 2 0 0 1 0 3l-4.3 4.4a2 2 0 0 1-2.8.2l-1.1-1-1.2-1-2.4-2.2zm1.9-2l-.5.5L94 21l1.1 1a515.2 515.2 0 0 1 1.2 1 76.8 76.8 0 0 1 4.4-4.5L99.3 17 98.2 16l-1-1-1-.8a47.5 47.5 0 0 0-4 4z" fill="#181B2B"/><path d="M25.5 49.7c-1.1-.2-2 .4-2.4 1.5-.4 1.1-.3 2.5-1.1 3.4-.8.8-2 .7-2-.6.2-.9-1.1-1.1-1.5-.5-1.3 2.3 1 4.5 3.3 4.5 3.2 0 5.2-3.5 5.5-6.4.1-1-.9-1.8-1.8-2z" fill="#E0DFE6"/><path fill-rule="evenodd" clip-rule="evenodd" d="M26 50l.2 1-.2 1.4-.7 1.2a4 4 0 0 1-3.3 2c-1.4 0-2.4-.8-3-1.7-.7-.8-1-1.8-1-2.7 0-.7.3-1.6 1-2.4.6-.8 1.5-1 2.4-1h.4c1.6.1 3.3.5 4.2 2.2zm-1.8 1c-.4-.8-1-1-2.6-1.2h-.2c-.9 0-1.3.5-1.3 1.4 0 1 .6 2.3 2 2.3s2.1-1.9 2.1-2.4v-.2z" fill="#181B2B"/><path d="M11.6 29.9c.6 0 .3 0 0-.6l-.6-1a2.2 2.2 0 0 0-2.6-.3c0-.5-.1-1 0-1.6l.2-.2c.1-.2.3-.5.1-.7-.2-.8-1.1-1.1-1.8-.4-.2.3-.9 4.3-1.7 4l-.5-.4c-1.3-1-2.6 1.2-1.5 2.2 1 .8 1.5 1.7 1.8 3 .2 1 2 1.4 2.5.3.3-.8.7-1.6 1.2-2.2l.5-.7a3 3 0 0 0 2.3 1.6c2 .3 2-2.7 0-3z" fill="#8AFFCE"/><path d="M14.7 28.1c-1.3 1-1.7 2-1.6 3.5 0 1.2.9 3.5-.7 3.9-1.6.4-3.3-.6-4.9 0-1 .4-2.1 1.2-2.4 2.3-.1.9 1 1.4 1.5.6.9-1.2 3.7 0 4.9 0 1.4.2 3 0 4-1.2 2-2 .2-4.8 1.3-7.1.4-1.2-.8-3-2.1-2z" fill="#E0DFE6"/><path fill-rule="evenodd" clip-rule="evenodd" d="M5.1 33V33l-.1-.6-.2-1.4-1.5-1a18.6 18.6 0 0 1-1-.8l-.3-.6c0-.2.2-.3.4-.4a10.5 10.5 0 0 1 1-.3H3.8a18.7 18.7 0 0 0 1.9-.5l.2-1.1a116.1 116.1 0 0 1 .4-1.4 45.2 45.2 0 0 0 .2-1.2c0-.2.2-.4.5-.5.2 0 .5 0 .7.3a53.7 53.7 0 0 0 3 3.3c.2 0 .4 0 .7.2h.6a11.6 11.6 0 0 0 1.1.2h.1c.2 0 .5.1.5.3.2.2.2.4 0 .6l-.2.4-.3.4v.2h-.2v.1l-1 1.4.3.5 1 1.8c.2.2.2.5 0 .7-.1.2-.4.2-.6.2a7.2 7.2 0 0 1-1.4-.3L8.6 32l-1.4 1.5a30.2 30.2 0 0 0-1.4 1.3h-.1a.7.7 0 0 1-.5-.6v-.9l-.1-.3zm-2 .6v-1-.1L3 32c-.8-.4-1.5-1-2-1.5H.8C.2 30-.2 29.1 0 28c.2-1 1-1.6 1.6-1.9l1.6-.4.4-.1H4L4 25l.5-1.9c.1-.9.8-1.8 2-2 1-.2 2 .1 2.6.9a30 30 0 0 0 2.7 2.8l1.2.2h.1c.5 0 .9.1 1.2.3.3.2.8.5 1 1 .5.7.6 1.8 0 2.7l-.3.4-.7 1.2.7 1.1c.4.9.5 2-.2 2.8-.7 1-1.8 1.2-2.6 1-1.2-.1-2.3-.6-3.2-1a48.3 48.3 0 0 0-1.9 2c-.4.2-.9.3-1.3.3h-.4l-.6-.3a2.7 2.7 0 0 1-1.5-2l-.2-1z" fill="#505573"/><path d="M74.7 33.4l-.9-1c-.7-.8-1.3-1.9-2.4-2.1-.4-.1-.8 0-.9.5-.3 1 .4 2 .8 3 0 .3.1.5.3.7-3.7 1.6-7.5 3.1-11.1 4.8-2.2 1-3.6 1.9-6 1.3-2-.5-3.6-1.2-5.5-1.4-.4 0-.6.5-.4.8 2.6 2.6 6.3 5.6 10.1 4.8 5.3-1.1 10.6-3.9 15.6-6 .5 0 1 0 1.5-.2.5-.3.8-.9 1-1.5.8-1.5.2-3.8-2.1-3.7z" fill="#E0DFE6"/><path d="M84.6 62c0-4.3-.2-8.5-.4-12.6-.1-1.4 0-4.6-.2-7.7.5-3.2.9-6.8-.2-9.3-.7-1.5-1.8-2.8-3-4.2 0-.3-.2-.5-.4-.8-1-1.5-2.5-2.6-3.8-4-1.2-1.2-2.4-2.7-3.7-3.8-.6-.5-1.6-.1-1.3.7l.8 1.8c-.4.3-.8.8-.4 1.4 2.4 3.1 6 6.3 7.4 10l.3 1.2-1 .1c-1.8.5-2.3 3-.6 4 .8.5.6 6.7.7 7.6l.4 8.4c-.4-.7-1.1-.9-2-.8a44.3 44.3 0 0 0-11.6-9.3.7.7 0 0 0-1 1c2.6 5 7.2 9.2 11 13.6 0 0 .1.2.3.2a2 2 0 0 0-2 .7c-.6.7-4.2.6-5 .6l-4.7.2-8.4.4c-5.7.3-11.2 1-16.9.6-1-.1-1.2 1.3-.4 1.8 2.6 1.8 5.8 1.7 8.9 1.7h24.4c2.3-.2 4.4 0 5.6-2.4.7-1.1.1-2.5-1-3.2 1 .3 2.1 0 2.8-.8v.7c0 .5.4 4 .1 4.4-1 1.4-6.3 1.1-8.4 1.4-12 1.2-23.9.3-35.9 1-1 0-1.3 1.5-.2 1.9 8 2.4 16.7 2.8 25 2.6 4.2 0 8.5-.4 12.7-.8 2.8-.3 7.5 0 10-1.7 2.4-1.5 2.2-4.3 2.1-6.6z" fill="#E0DFE6"/><path d="M54.3 14.5c.5-.4 1-1 1.3-1.5l.4-.4.9-1.2c.9-1 1.6-1.5 2.5-1.4 1 .2 2 .8 2.8 1.7l1.5 2 .5.6a1 1 0 1 0 1.6-1.1l-.4-.5-1.7-2.3c-1-1-2.3-2.1-4-2.3-2-.3-3.4 1-4.3 2a25.4 25.4 0 0 0-1.3 1.7L53 13a1 1 0 0 0 1.2 1.5z" fill="#181B2B"/><path fill-rule="evenodd" clip-rule="evenodd" d="M45.7 22a1 1 0 1 0-1.3-1.6 195.5 195.5 0 0 0-9.8 8.3c-.4.4-.7 1-.7 1.6v4.6c0 11.2.4 21.2 1.3 30.5.1 1.1 1 2 2.2 2h5c1.2 0 26.3 0 37.8-1 1.2-.1 2-1 2-2.1.3-9 .5-17 .5-24.6V35c0-.3 0-.6-.2-.8a157.7 157.7 0 0 1-9.3-11 1 1 0 1 0-1.6 1.2c3 3.9 5.6 6.8 8.5 9.9-6.8 3-14 6.8-20 10.6l-1-.2c-.4 0-.9 0-1.4.2l-4.2-2.8c-5.7-3.9-12.6-8.5-17-12.6 2.7-2.4 5.4-4.7 9.2-7.6zm-9.8 9.7V35c0 10.8.3 20.4 1.2 29.4 4.3-5.5 8.5-10.2 12.1-13.6a36.2 36.2 0 0 1 6.3-4.8l-3-2c-5.4-3.7-12.1-8.1-16.6-12.2zm2.8 33.7h3.8c1 0 24.1 0 36.1-1a78.2 78.2 0 0 1-6.3-6.2 68.7 68.7 0 0 0-11.8-10.8c-.6-.4-1-.6-1.4-.6-.8 0-2 .4-3.4 1.3-1.5 1-3.2 2.3-5.1 4a113 113 0 0 0-11.9 13.3zm41.6-2.1c.2-8.6.4-16.3.4-23.6v-3.4c-6.3 2.8-12.9 6.2-18.4 9.7l1.8 1.3c1.8 1.5 3.8 3.4 5.8 5.4l3.9 4.1a560.2 560.2 0 0 0 6.5 6.5z" fill="#181B2B"/><path d="M75.5 9.5L75 9c0-.7-.7-1.5-1.5-1.5h-.2l-.3-.3c-.6-.6-1.7-.7-2.4-.1s-.8 1.6-.4 2.4l.5.5c0 .5 0 1 .3 1.4.4.7 1.3.8 2.1.8 1.4-.2 2.7-1.3 2.3-2.7z" fill="#8AFFCE"/><path d="M46.1 15.3l.2-.1a739.5 739.5 0 0 1 25 .6 165.7 165.7 0 0 0 .5 22.2 1 1 0 0 0 2 0l-.2-5.3c-.3-5.6-.6-11.3-.3-16.8 0-1-.6-2.3-2-2.3-8.4-.3-16.7-.4-25-.4-1.2 0-2.2 1-2.2 2.1 0 6.6 0 15 .7 21.6a1 1 0 1 0 2-.2c-.7-6.4-.7-14.8-.7-21.4z" fill="#181B2B"/><path d="M53.7 23.7a1 1 0 1 0-.2 2h.7c3.6.4 7 .8 10.6.8a1 1 0 0 0 0-2c-3.5 0-6.8-.4-10.4-.7l-.7-.1zM51 29.3c.1-.6.6-1 1.2-.9 3.8.4 9 .8 12.6.8a1 1 0 1 1 0 2c-3.8 0-9-.4-12.8-.8a1 1 0 0 1-1-1.1zM52.2 33a1 1 0 1 0-.2 2c3.8.5 9 .9 12.8.9a1 1 0 1 0 0-2c-3.7 0-8.8-.4-12.6-.8z" fill="#181B2B"/><path fill-rule="evenodd" clip-rule="evenodd" d="M70.6 4.6c-1.2.4-2 1.2-2.3 2a4.6 4.6 0 0 0 .2 4.3c.2.4.4.7.7.9l-1 1.7-.8 1.6c-.8 1.5-1.6 3.1-2.1 4.8a1 1 0 1 0 1.9.6 27 27 0 0 1 2.8-6l.9-1.7c.6.2 1.1.2 1.3.2 1.2 0 2.4-.6 3.2-1.3C76 11 77 9.9 77 8.4a3.9 3.9 0 0 0-2.4-3.6c-1-.5-2-.5-2.3-.5-.6 0-1.2 0-1.8.3zm.6 6.2l1 .2c1.2 0 2.9-1.3 2.9-2.6 0-2-2.3-2.1-2.7-2.1-.4 0-.8 0-1.1.2-1.3.4-1.5 1.6-1.5 2 0 1 .4 1.6.8 2a1 1 0 0 1 .6.3z" fill="#505573"/><path d="M31.4.9a1 1 0 0 0-2 .2l.3 4.1a17 17 0 0 0-4.4.5 1 1 0 0 0 .5 1.9c1.3-.3 2.7-.4 4-.4v.4l.4 3.4a1 1 0 1 0 2-.3L32 7.5v-.3c1.3 0 2.8-.1 4.1-.6a1 1 0 0 0-.7-2 11 11 0 0 1-3.6.6L31.4 1zM112.2 35.2a1 1 0 0 0-1.9-.7l-1.5 3.9a17 17 0 0 0-4.1-1.6 1 1 0 1 0-.4 2c1.3.3 2.5.8 3.8 1.5l-.2.3-1.2 3.2a1 1 0 1 0 2 .6 49 49 0 0 1 1.2-3.3c1.2.6 2.5 1.1 4 1.3a1 1 0 1 0 .2-2 11 11 0 0 1-3.5-1.1l1.6-4z" fill="#181B2B"/><path d="M101.8 58a1.8 1.8 0 0 0-2.2-1.6h-.1v-.1h-.2c-.4-.5-1-.7-1.6-.6-.6.3-1.3.9-1.3 1.7l.2.8c-.3 1 .7 2 1.7 1.8.6.2 1.1.3 1.6.2 1.1-.2 2-1 1.9-2.2z" fill="#8AFFCE"/><path fill-rule="evenodd" clip-rule="evenodd" d="M94.9 56.1a3.3 3.3 0 0 1 2.3-2c1-.3 2 0 2.5.2a9.4 9.4 0 0 1 3.6 2.4l.7 1c.2.5.3 1.2 0 2-.6 1.4-2 3-4.2 3-1.5 0-2.8-.5-3.7-1.3a4.3 4.3 0 0 1-1.4-3.4v-.7c0-.3 0-.7.2-1.2zm1.8 1.8c0-1 0-1.5 1-2 1.3-.3 4.8 2 4.4 3-.3 1-1.2 1.8-2.3 1.8-2.1 0-3.1-1.3-3.1-2.5v-.3z" fill="#505573"/></svg>
