<svg width="618" height="210" fill="none" xmlns="http://www.w3.org/2000/svg"><mask id="a" fill="#fff"><path d="M622.5 68.5c21.16 0 17.87 10.34 17.87 31.5s-8.21 45.5-29.37 45.5-34.37-13.84-34.37-35 24.71-42 45.87-42zm0-1.63c-22.1 0-47.5 21.54-47.5 43.63 0 22.1 13.9 36.63 36 36.63s31-25.04 31-47.13c0-22.1 2.6-33.13-19.5-33.13z"/><path d="M643.93 4.48c15.34 0 29.8 7.45 41.82 21.55 20.08 23.55 30 61.6 24.67 94.67-5.94 36.9-32.71 40.73-63.71 45.17-16.32 2.33-33.19 4.75-48.56 12.17a71.26 71.26 0 01-31.17 7.3c-17.75 0-35.4-6.83-49.72-19.23-13.07-11.32-21.48-25.93-22.5-39.08-2.74-35.7 30.78-56.14 66.26-77.78 14.18-8.65 28.84-17.6 41.36-27.7 14.02-11.33 28-17.07 41.55-17.07zm0-1.64c-13.1 0-27.48 5.22-42.59 17.43-43.51 35.15-112.17 55.5-108.21 106.9 2.11 27.4 34.74 59.8 73.85 59.8 10.32 0 21.1-2.25 31.88-7.45 44.44-21.45 103.88-.78 113.18-58.56 8.55-53.1-21.9-118.12-68.11-118.12z"/><path d="M676.3-57.57c23.52 0 45.88 12.05 64.66 34.85 33.67 40.87 49.63 108.04 38.8 163.34-10.76 54.97-50.22 56-95.91 57.17-30.69.8-62.42 1.61-89.42 18.6-18.65 11.74-38.59 17.69-59.25 17.69-26.33 0-52.95-9.8-74.95-27.6-9.67-7.8-17.97-16.9-24-26.27-5.96-9.27-9.58-18.63-10.47-27.06-2.43-23.05 5.37-42.82 24.53-62.23 17.28-17.5 41.69-32.6 67.52-48.57 29.3-18.12 59.6-36.86 83.63-61.4 25.02-25.56 50.2-38.52 74.86-38.52zm0-1.64c-23.3 0-49.1 11.5-76.03 39.01-66.6 68.02-184.63 93.04-176.14 173.53 3.71 35.31 52.77 82.4 111.05 82.4 19.46 0 39.96-5.26 60.13-17.95 66.98-42.14 167.78 16.54 186.07-76.84C798.32 54.4 749.57-59.22 676.3-59.22z"/><path d="M731.1-130.21c32.19 0 61.22 18.33 83.95 53.01 23.56 35.93 40.04 89.41 45.21 146.73 5.06 55.95-1 108.57-16.6 144.35-26.15 59.96-72.65 89.1-142.16 89.1-48.31 0-100.11-13.7-145.8-25.8l-8.83-2.34c-13.24-3.49-26.47-6.72-39.25-9.85-89.81-21.97-167.37-40.94-178.11-129.3-5.91-48.71 5.16-82.87 34.85-107.5 27.36-22.69 67.97-35.94 115-51.3 55.27-18.03 117.9-38.48 177.95-80 26-17.98 50.83-27.1 73.79-27.1zm0-.82c-22.06 0-46.83 8.28-74.25 27.24C494.03 8.8 308.26-32.55 328.7 135.78c12.34 101.6 111.86 111.9 217.96 139.85 47.62 12.55 103.26 28.17 154.84 28.17 59.06 0 112.78-20.5 142.91-89.6 45.75-104.89 5.53-345.24-113.3-345.23z"/><path d="M731.1-130.21c32.19 0 61.22 18.33 83.95 53.01 23.56 35.93 40.04 89.41 45.21 146.73 5.06 55.95-1 108.57-16.6 144.35-26.15 59.96-72.65 89.1-142.16 89.1-48.31 0-100.11-13.7-145.8-25.8l-8.83-2.34c-13.24-3.49-26.47-6.72-39.25-9.85-89.81-21.97-167.37-40.94-178.11-129.3-5.91-48.71 5.16-82.87 34.85-107.5 27.36-22.69 67.97-35.94 115-51.3 55.27-18.03 117.9-38.48 177.95-80 26-17.98 50.83-27.1 73.79-27.1zm0-.82c-22.06 0-46.83 8.28-74.25 27.24C494.03 8.8 308.26-32.55 328.7 135.78c12.34 101.6 111.86 111.9 217.96 139.85 47.62 12.55 103.26 28.17 154.84 28.17 59.06 0 112.78-20.5 142.91-89.6 45.75-104.89 5.53-345.24-113.3-345.23z"/><path d="M790.93-209.57c21.47 0 41.43 6.58 59.31 19.56 16.62 12.07 31.56 29.72 44.42 52.47C925-83.91 943.12-2.57 944.38 85.63c1.2 84.05-13.12 159.2-38.33 201-48.18 79.93-118.1 122.18-202.17 122.18-66.44 0-139.2-27.21-204.87-76.64-48.57-36.54-93.8-54.17-133.7-69.73-68.48-26.7-117.96-45.99-130.4-144.4C214.78-41.1 303.96-60.74 438.96-90.47c78.82-17.37 176.91-38.97 275.28-95.49 27.28-15.68 53.08-23.62 76.68-23.63zm-.01-1.65c-23.03 0-48.83 7.38-77.5 23.85-263.1 151.16-512.54 49.43-480.16 305.61C253 274.34 364.81 233.26 498.01 333.5c63.9 48.09 136.56 76.97 205.86 76.97 77.81 0 151.4-36.43 203.58-122.98 72.16-119.69 48.66-498.71-116.53-498.7z"/><path d="M880.97-250.22c111.58 0 158.35 73.96 177.93 136 12.77 40.47 18.17 87.81 16.06 140.73-1.97 49.28-10.69 102.07-25.21 152.67-30 104.54-81.62 190.55-138.1 230.07-62.85 44-126.94 65.38-195.92 65.38-95.46 0-185.22-40.91-272.02-80.48-21.71-9.9-44.16-20.13-65.92-29.31-57.01-24.06-108.78-57.36-149.73-96.3-41.72-39.68-69.94-83.19-81.6-125.83-6.42-23.5-7.77-46.57-4.01-68.58 3.97-23.23 13.67-45.38 28.83-65.82 66.76-90.01 152.45-150.73 269.65-191.09 104.34-35.91 235.57-56.59 425.5-67.03 4.9-.27 9.79-.4 14.53-.4h.01zm0-1.64c-4.78 0-9.66.13-14.63.4-344.54 18.95-559.17 73.8-696.38 258.8-92.02 124.06 31.94 285.04 207.19 359 106.6 45 218.22 109.93 338.58 109.93 63.04 0 128.5-17.83 196.87-65.68 177.06-123.91 270.12-662.46-31.64-662.45z"/><path d="M786.92-347v1.64c73.46 0 149.33 10.28 231.94 31.42 69.34 17.74 123.32 52 160.43 101.82 33.56 45.05 52.78 101.77 57.13 168.59 6.91 106.02-25.03 231.63-87.64 344.6-62.64 113.06-147.07 197.3-231.64 231.11-59.18 23.67-115.84 35.18-173.2 35.18-52.9 0-106.5-10.07-163.89-30.78-50.75-18.32-98.1-42.44-143.88-65.77-61.67-31.43-119.91-61.11-179.56-73.21-62.3-12.64-122.9-53.48-170.63-114.98C41.32 225.06 12.13 154.53 5.9 89.1 1.82 46.21 7.87 6.71 23.4-25.12c17.2-35.25 45.42-61.14 83.87-76.94 69.62-28.6 133.77-61.66 195.8-93.64 149.3-76.95 290.31-149.64 483.8-149.66l.05-1.64zm-.06 0c-274.85.02-444.13 146.44-680.21 243.43-210.88 86.62-69.07 458.42 149.63 502.78C404.34 429.24 545.67 569 743.93 569c53.39 0 110.93-10.14 173.82-35.3 279.88-111.92 506.03-745.72 101.52-849.23-86.17-22.05-162.66-31.48-232.4-31.47z"/></mask><path d="M622.5 68.5c21.16 0 17.87 10.34 17.87 31.5s-8.21 45.5-29.37 45.5-34.37-13.84-34.37-35 24.71-42 45.87-42zm0-1.63c-22.1 0-47.5 21.54-47.5 43.63 0 22.1 13.9 36.63 36 36.63s31-25.04 31-47.13c0-22.1 2.6-33.13-19.5-33.13z" fill="url(#paint0_linear)"/><path d="M643.93 4.48c15.34 0 29.8 7.45 41.82 21.55 20.08 23.55 30 61.6 24.67 94.67-5.94 36.9-32.71 40.73-63.71 45.17-16.32 2.33-33.19 4.75-48.56 12.17a71.26 71.26 0 01-31.17 7.3c-17.75 0-35.4-6.83-49.72-19.23-13.07-11.32-21.48-25.93-22.5-39.08-2.74-35.7 30.78-56.14 66.26-77.78 14.18-8.65 28.84-17.6 41.36-27.7 14.02-11.33 28-17.07 41.55-17.07zm0-1.64c-13.1 0-27.48 5.22-42.59 17.43-43.51 35.15-112.17 55.5-108.21 106.9 2.11 27.4 34.74 59.8 73.85 59.8 10.32 0 21.1-2.25 31.88-7.45 44.44-21.45 103.88-.78 113.18-58.56 8.55-53.1-21.9-118.12-68.11-118.12z" fill="url(#paint1_linear)"/><path d="M676.3-57.57c23.52 0 45.88 12.05 64.66 34.85 33.67 40.87 49.63 108.04 38.8 163.34-10.76 54.97-50.22 56-95.91 57.17-30.69.8-62.42 1.61-89.42 18.6-18.65 11.74-38.59 17.69-59.25 17.69-26.33 0-52.95-9.8-74.95-27.6-9.67-7.8-17.97-16.9-24-26.27-5.96-9.27-9.58-18.63-10.47-27.06-2.43-23.05 5.37-42.82 24.53-62.23 17.28-17.5 41.69-32.6 67.52-48.57 29.3-18.12 59.6-36.86 83.63-61.4 25.02-25.56 50.2-38.52 74.86-38.52zm0-1.64c-23.3 0-49.1 11.5-76.03 39.01-66.6 68.02-184.63 93.04-176.14 173.53 3.71 35.31 52.77 82.4 111.05 82.4 19.46 0 39.96-5.26 60.13-17.95 66.98-42.14 167.78 16.54 186.07-76.84C798.32 54.4 749.57-59.22 676.3-59.22z" fill="url(#paint2_linear)"/><path d="M731.1-130.21c32.19 0 61.22 18.33 83.95 53.01 23.56 35.93 40.04 89.41 45.21 146.73 5.06 55.95-1 108.57-16.6 144.35-26.15 59.96-72.65 89.1-142.16 89.1-48.31 0-100.11-13.7-145.8-25.8l-8.83-2.34c-13.24-3.49-26.47-6.72-39.25-9.85-89.81-21.97-167.37-40.94-178.11-129.3-5.91-48.71 5.16-82.87 34.85-107.5 27.36-22.69 67.97-35.94 115-51.3 55.27-18.03 117.9-38.48 177.95-80 26-17.98 50.83-27.1 73.79-27.1zm0-.82c-22.06 0-46.83 8.28-74.25 27.24C494.03 8.8 308.26-32.55 328.7 135.78c12.34 101.6 111.86 111.9 217.96 139.85 47.62 12.55 103.26 28.17 154.84 28.17 59.06 0 112.78-20.5 142.91-89.6 45.75-104.89 5.53-345.24-113.3-345.23z" fill="url(#paint3_linear)"/><path d="M731.1-130.21c32.19 0 61.22 18.33 83.95 53.01 23.56 35.93 40.04 89.41 45.21 146.73 5.06 55.95-1 108.57-16.6 144.35-26.15 59.96-72.65 89.1-142.16 89.1-48.31 0-100.11-13.7-145.8-25.8l-8.83-2.34c-13.24-3.49-26.47-6.72-39.25-9.85-89.81-21.97-167.37-40.94-178.11-129.3-5.91-48.71 5.16-82.87 34.85-107.5 27.36-22.69 67.97-35.94 115-51.3 55.27-18.03 117.9-38.48 177.95-80 26-17.98 50.83-27.1 73.79-27.1zm0-.82c-22.06 0-46.83 8.28-74.25 27.24C494.03 8.8 308.26-32.55 328.7 135.78c12.34 101.6 111.86 111.9 217.96 139.85 47.62 12.55 103.26 28.17 154.84 28.17 59.06 0 112.78-20.5 142.91-89.6 45.75-104.89 5.53-345.24-113.3-345.23z" fill="url(#paint4_linear)"/><path d="M790.93-209.57c21.47 0 41.43 6.58 59.31 19.56 16.62 12.07 31.56 29.72 44.42 52.47C925-83.91 943.12-2.57 944.38 85.63c1.2 84.05-13.12 159.2-38.33 201-48.18 79.93-118.1 122.18-202.17 122.18-66.44 0-139.2-27.21-204.87-76.64-48.57-36.54-93.8-54.17-133.7-69.73-68.48-26.7-117.96-45.99-130.4-144.4C214.78-41.1 303.96-60.74 438.96-90.47c78.82-17.37 176.91-38.97 275.28-95.49 27.28-15.68 53.08-23.62 76.68-23.63zm-.01-1.65c-23.03 0-48.83 7.38-77.5 23.85-263.1 151.16-512.54 49.43-480.16 305.61C253 274.34 364.81 233.26 498.01 333.5c63.9 48.09 136.56 76.97 205.86 76.97 77.81 0 151.4-36.43 203.58-122.98 72.16-119.69 48.66-498.71-116.53-498.7z" fill="url(#paint5_linear)"/><path d="M880.97-250.22c111.58 0 158.35 73.96 177.93 136 12.77 40.47 18.17 87.81 16.06 140.73-1.97 49.28-10.69 102.07-25.21 152.67-30 104.54-81.62 190.55-138.1 230.07-62.85 44-126.94 65.38-195.92 65.38-95.46 0-185.22-40.91-272.02-80.48-21.71-9.9-44.16-20.13-65.92-29.31-57.01-24.06-108.78-57.36-149.73-96.3-41.72-39.68-69.94-83.19-81.6-125.83-6.42-23.5-7.77-46.57-4.01-68.58 3.97-23.23 13.67-45.38 28.83-65.82 66.76-90.01 152.45-150.73 269.65-191.09 104.34-35.91 235.57-56.59 425.5-67.03 4.9-.27 9.79-.4 14.53-.4h.01zm0-1.64c-4.78 0-9.66.13-14.63.4-344.54 18.95-559.17 73.8-696.38 258.8-92.02 124.06 31.94 285.04 207.19 359 106.6 45 218.22 109.93 338.58 109.93 63.04 0 128.5-17.83 196.87-65.68 177.06-123.91 270.12-662.46-31.64-662.45z" fill="url(#paint6_linear)"/><path d="M786.92-347v1.64c73.46 0 149.33 10.28 231.94 31.42 69.34 17.74 123.32 52 160.43 101.82 33.56 45.05 52.78 101.77 57.13 168.59 6.91 106.02-25.03 231.63-87.64 344.6-62.64 113.06-147.07 197.3-231.64 231.11-59.18 23.67-115.84 35.18-173.2 35.18-52.9 0-106.5-10.07-163.89-30.78-50.75-18.32-98.1-42.44-143.88-65.77-61.67-31.43-119.91-61.11-179.56-73.21-62.3-12.64-122.9-53.48-170.63-114.98C41.32 225.06 12.13 154.53 5.9 89.1 1.82 46.21 7.87 6.71 23.4-25.12c17.2-35.25 45.42-61.14 83.87-76.94 69.62-28.6 133.77-61.66 195.8-93.64 149.3-76.95 290.31-149.64 483.8-149.66l.05-1.64zm-.06 0c-274.85.02-444.13 146.44-680.21 243.43-210.88 86.62-69.07 458.42 149.63 502.78C404.34 429.24 545.67 569 743.93 569c53.39 0 110.93-10.14 173.82-35.3 279.88-111.92 506.03-745.72 101.52-849.23-86.17-22.05-162.66-31.48-232.4-31.47z" fill="url(#paint7_linear)"/><path d="M815.05-77.2l-.41.28.41-.28zm45.21 146.73l.5-.05-.5.05zm-16.6 144.35l.46.2-.46-.2zm-287.97 63.3l.13-.49-.13.48zm-8.82-2.34l.12-.48-.12.48zM507.62 265l.11-.49-.11.49zM329.5 135.69l-.5.06.5-.06zm34.85-107.5l.32.4-.32-.4zm115-51.3l.16.48-.16-.47zm177.95-80l-.28-.41.28.41zm73.79-27.1v-.5.5zm0-.82v-.5.5zm-74.25 27.24l-.29-.4.29.4zM328.7 135.78l-.5.06.5-.06zm217.96 139.85l-.13.49.13-.49zm297.75-61.42l-.45-.2.45.2zM643.43 2.84v1.64h1V2.84h-1zm87.67-132.55c31.97 0 60.86 18.2 83.53 52.79l.84-.55c-22.8-34.78-51.97-53.24-84.37-53.24v1zm83.53 52.79c23.5 35.84 39.96 89.23 45.13 146.5l1-.1c-5.18-57.37-21.67-110.93-45.29-146.95l-.84.55zm45.13 146.5c5.05 55.9-1 108.42-16.56 144.1l.92.4c15.65-35.88 21.7-88.6 16.64-144.6l-1 .1zm-16.56 144.1c-13.04 29.9-31.14 52.1-54.62 66.81-23.49 14.72-52.4 22-87.08 22v1c34.82 0 63.93-7.31 87.6-22.15 23.69-14.85 41.91-37.2 55.02-67.26l-.92-.4zm-141.7 88.8c-48.24 0-99.97-13.69-145.68-25.79l-.26.97c45.69 12.1 97.55 25.82 145.94 25.82v-1zM555.82 276.7l-8.83-2.33-.25.96 8.82 2.34.26-.97zm-8.83-2.33a2276.81 2276.81 0 00-39.26-9.86l-.23.98c12.79 3.12 26 6.36 39.24 9.84l.25-.96zm-39.26-9.86c-44.92-10.99-86.68-21.2-118.57-39.7-31.84-18.46-53.8-45.17-59.15-89.17l-1 .12c5.4 44.35 27.58 71.32 59.65 89.92 32.03 18.58 73.95 28.83 118.84 39.8l.23-.97zM330.01 135.63c-5.9-48.6 5.15-82.56 34.67-107.05l-.63-.77C334.19 52.58 323.09 86.92 329 135.75l1-.12zm34.67-107.05c27.27-22.62 67.78-35.85 114.84-51.2l-.31-.96c-47 15.34-87.72 28.63-115.16 51.4l.63.76zm114.84-51.2c55.26-18.05 117.96-38.51 178.07-80.08l-.56-.82c-59.98 41.47-122.55 61.9-177.82 79.94l.3.95zm178.07-80.08c25.96-17.94 50.69-27.01 73.5-27.01v-1c-23.08 0-48 9.17-74.06 27.19l.56.82zm73.5-27.01h.01v-1 1zm.01-1.82c-22.19 0-47.05 8.33-74.54 27.33l.57.82c27.37-18.92 52.04-27.15 73.97-27.15v-1zm-74.54 27.33c-81.34 56.25-168.35 74-232.69 98.82-32.14 12.4-58.64 26.57-75.8 48.24-17.2 21.68-24.99 50.8-19.87 92.98l1-.12c-5.1-41.99 2.66-70.82 19.65-92.24 17-21.45 43.28-35.54 75.38-47.92 64.14-24.74 151.43-42.6 232.9-98.94l-.57-.82zM328.2 135.85c3.1 25.48 11.67 45.26 24.45 61.03 12.79 15.77 29.77 27.5 49.66 36.9 39.74 18.8 91.23 28.38 144.22 42.34l.25-.97c-53.1-14-104.42-23.53-144.05-42.28-19.8-9.36-36.64-21-49.3-36.62-12.66-15.6-21.16-35.21-24.24-60.53l-.99.13zm218.33 140.27c47.6 12.54 103.32 28.18 154.97 28.18v-1c-51.5 0-107.07-15.6-154.72-28.15l-.25.97zM701.5 304.3c29.58 0 57.87-5.13 82.55-18.95 24.69-13.82 45.72-36.3 60.82-70.94l-.91-.4c-15.03 34.45-35.92 56.76-60.4 70.47-24.48 13.7-52.59 18.82-82.06 18.82v1zm143.37-89.9c22.93-52.58 24.3-139.01 5.09-212.28-9.6-36.64-24.37-70.03-44.2-94.28-19.83-24.25-44.76-39.38-74.66-39.37v1c29.52 0 54.19 14.91 73.89 39 19.7 24.1 34.42 57.35 44 93.9 19.18 73.14 17.78 159.32-5.03 211.64l.91.4zM685.75 26.04l.76-.65-.76.65zm24.67 94.67l-.99-.16.99.16zm-63.71 45.17l.14.99-.14-1zm-48.56 12.17l-.43-.9.43.9zm-80.89-11.93l.65-.76-.65.76zm-22.5-39.08l-.99.08 1-.08zm66.26-77.78l-.52-.86.52.86zm41.36-27.7l.63.77-.63-.77zm-1.04-1.28l-.62-.78.62.78zm-108.21 106.9l-1 .07 1-.08zm105.74 52.35l.43.9-.43-.9zm113.17-58.56l.99.16-.99-.16zM676.3-57.56h-1v1h1v-1zm64.66 34.85l.77-.64-.77.64zm38.8 163.34l-.98-.2.98.2zm-95.91 57.17l.02 1-.02-1zm-89.42 18.6l.53.85-.53-.85zm-134.2-9.9l.63-.78-.63.78zm-24-26.28l.85-.54-.84.54zm-10.47-27.06l-1 .1 1-.1zm24.53-62.23l-.71-.7.7.7zm67.52-48.57l-.52-.85.52.85zm83.63-61.4l.72.7-.72-.7zm74.86-38.52v-1 1zm0 0h1v-1h-1v1zm0-1.64v-1 1zM600.27-20.2l-.72-.7.72.7zM424.13 153.33l.99-.1-1 .1zm171.18 64.45l.53.85-.53-.85zm186.07-76.84l-.99-.2.99.2zm9.55-350.51h-1v1h1v-1zm59.31 19.56l.59-.8-.59.8zm44.42 52.47l.88-.5-.88.5zm49.71 223.17l-1 .02 1-.02zm-38.33 201l.86.52-.86-.52zM499 332.17l.6-.8-.6.8zm-133.7-69.73l-.36.93.36-.93zm-130.4-144.4l.99-.13-1 .13zm204.06-208.5l.21.97-.21-.98zm275.28-95.49l-.5-.87.5.87zm76.68-23.63v-1 1zm0 0h1v-1h-1v1zm0-1.64v1-1zm-77.5 23.85l-.5-.87.5.87zM233.26 118.24l-.99.13 1-.13zM498.01 333.5l-.6.8.6-.8zm409.44-46l.86.5-.86-.5zm-26.48-537.7v-1h-1v1h1zm177.93 136l-.95.3.95-.3zm16.06 140.72l-1-.04 1 .04zm-25.21 152.67l-.96-.28.96.28zm-138.1 230.07l.58.82-.57-.82zm-467.94-15.1l-.42.91.42-.9zm-65.92-29.31l.38-.92-.38.92zm-149.73-96.3l.7-.72-.7.72zm-81.6-125.83l-.96.27.97-.27zm-4.01-68.58l-.99-.16.99.16zm28.83-65.82l.8.6-.8-.6zm269.65-191.09l-.32-.94.32.94zm425.5-67.03l.06 1-.06-1zm14.54-.4v1h1v-1h-1zm0-1.65v1-1zm-14.63.4l-.05-1 .05 1zM169.96 7.35l-.8-.6.8.6zm207.19 359l.39-.91-.4.92zM912.6 410.6l-.57-.82.57.82zM786.92-347h1l-2-.03 1 .03zm0 1.64h-1v1h1v-1zm231.94 31.42l-.25.97.25-.97zm160.43 101.82l-.8.6.8-.6zm57.13 168.59l-.99.06.99-.06zm-87.64 344.6l-.87-.48.87.49zM917.14 532.19l-.37-.92.37.92zm-337.09 4.4l-.34.94.34-.94zm-143.88-65.77l-.46.89.46-.9zM256.6 397.6l.2-.98-.2.98zM85.98 282.62l.79-.62-.79.62zM5.9 89.1l-1 .1 1-.1zM23.4-25.12l.9.44-.9-.44zm83.87-76.94l.38.93-.38-.93zm195.8-93.64l-.45-.89.45.9zm483.8-149.66v1h.97l.02-.97-1-.03zm0-1.64v1-1zM106.64-103.57l-.38-.93.38.92zM256.28 399.2l-.2.98.2-.98zm661.47 134.5l-.37-.93.37.93zm101.52-849.24l.25-.97-.25.97zM622.5 69.5c5.23 0 8.81.64 11.28 1.85a8.7 8.7 0 014.64 5.3c.86 2.44 1.1 5.58 1.13 9.5.01 1.96-.03 4.09-.08 6.4-.05 2.3-.1 4.8-.1 7.45h2c0-2.63.05-5.1.1-7.4.05-2.31.1-4.46.08-6.45-.02-3.96-.27-7.38-1.24-10.16a10.7 10.7 0 00-5.65-6.44c-2.87-1.4-6.81-2.05-12.16-2.05v2zm16.87 30.5c0 10.47-2.04 21.67-6.63 30.21-4.58 8.5-11.63 14.29-21.74 14.29v2c11.05 0 18.68-6.39 23.5-15.34 4.8-8.92 6.87-20.48 6.87-31.16h-2zM611 144.5c-10.35 0-18.67-3.38-24.4-9.26-5.73-5.89-8.97-14.37-8.97-24.74h-2c0 10.79 3.37 19.8 9.54 26.13 6.16 6.33 15.03 9.87 25.83 9.87v-2zm-33.37-34c0-10.2 5.98-20.45 14.67-28.19 8.69-7.73 19.93-12.81 30.2-12.81v-2c-10.88 0-22.58 5.35-31.53 13.32-8.95 7.97-15.34 18.72-15.34 29.68h2zm44.87-44.63c-11.35 0-23.45 5.52-32.7 13.78-9.25 8.27-15.8 19.43-15.8 30.85h2c0-10.67 6.15-21.33 15.13-29.36 8.98-8.02 20.63-13.27 31.37-13.27v-2zM574 110.5c0 11.26 3.55 20.68 10 27.3 6.46 6.62 15.73 10.33 27 10.33v-2c-10.82 0-19.55-3.55-25.57-9.73-6.02-6.18-9.43-15.07-9.43-25.9h-2zm37 37.63c11.5 0 19.55-6.55 24.66-15.8 5.1-9.2 7.34-21.17 7.34-32.33h-2c0 10.94-2.2 22.54-7.1 31.37-4.86 8.8-12.31 14.76-22.9 14.76v2zM643 100c0-5.47.16-10.37.06-14.52-.1-4.16-.47-7.76-1.6-10.69a11.82 11.82 0 00-6.16-6.75c-3.06-1.48-7.21-2.17-12.8-2.17v2c5.46 0 9.27.68 11.93 1.97a9.83 9.83 0 015.17 5.67c1 2.59 1.36 5.9 1.46 10.02.1 4.13-.06 8.9-.06 14.47h2zm.93-94.52c14.99 0 29.19 7.27 41.06 21.2l1.52-1.3c-12.17-14.27-26.89-21.9-42.58-21.9v2zm41.06 21.2c19.87 23.3 29.73 61.05 24.44 93.86l1.98.32c5.36-33.34-4.61-71.69-24.9-95.48l-1.52 1.3zm24.44 93.86c-2.92 18.17-10.93 28.07-21.95 34.04-11.12 6.02-25.36 8.07-40.91 10.3l.28 1.98c15.45-2.21 30.09-4.3 41.59-10.52 11.6-6.29 19.95-16.75 22.96-35.48l-1.97-.32zm-62.86 44.34c-16.3 2.33-33.32 4.76-48.86 12.25l.87 1.8c15.21-7.33 31.93-9.74 48.27-12.07l-.28-1.98zm-48.86 12.25a70.26 70.26 0 01-30.73 7.2v2c10.8 0 21.44-2.49 31.6-7.4l-.87-1.8zm-30.73 7.2c-17.49 0-34.92-6.73-49.07-18.98l-1.3 1.51c14.48 12.55 32.37 19.47 50.37 19.47v-2zm-49.07-18.98c-12.93-11.2-21.16-25.58-22.14-38.4l-2 .16c1.04 13.49 9.63 28.32 22.84 39.75l1.3-1.5zm-22.14-38.4c-1.35-17.45 6.15-31.22 18.49-43.37 12.37-12.18 29.51-22.64 47.28-33.48l-1.04-1.7c-17.71 10.8-35.08 21.38-47.64 33.76-12.6 12.4-20.5 26.71-19.09 44.95l2-.15zm65.77-76.85c14.17-8.64 28.89-17.62 41.47-27.78l-1.26-1.55c-12.46 10.06-27.06 18.97-41.25 27.62l1.04 1.71zm41.47-27.78c13.9-11.22 27.66-16.84 40.92-16.84v-2c-13.85 0-28.04 5.87-42.18 17.29l1.26 1.55zm40.92-20.48c-13.38 0-27.97 5.34-43.21 17.65l1.25 1.56c14.98-12.1 29.14-17.21 41.96-17.21v-2zm-43.21 17.65c-10.83 8.74-23.23 16.58-35.72 24.23-12.48 7.64-25.06 15.11-36.15 23.1-22.17 15.94-38.74 34.17-36.72 60.42l2-.16c-1.94-25.13 13.83-42.78 35.89-58.64 11.01-7.93 23.5-15.35 36.02-23.01 12.5-7.66 25-15.55 35.93-24.38l-1.25-1.56zM492.13 127.24c1.08 14.04 9.95 29.22 23.4 40.87 13.46 11.65 31.62 19.87 51.45 19.87v-2c-19.27 0-36.98-7.99-50.14-19.39-13.18-11.4-21.68-26.13-22.71-39.5l-2 .15zm74.85 60.74c10.48 0 21.4-2.3 32.32-7.56l-.87-1.8a71.86 71.86 0 01-31.45 7.36v2zm32.32-7.56c10.98-5.3 22.92-8.01 34.85-9.99 11.88-1.96 23.88-3.21 34.7-5.59 10.85-2.38 20.73-5.93 28.49-12.6 7.78-6.71 13.33-16.48 15.69-31.12l-1.98-.31c-2.29 14.25-7.65 23.56-15.02 29.9-7.39 6.37-16.9 9.83-27.62 12.18-10.76 2.36-22.53 3.57-34.58 5.57-12 1.98-24.16 4.73-35.4 10.16l.87 1.8zm113.73-59.3c4.31-26.78-1.2-56.53-13.63-79.6C687 18.44 667.56 1.83 643.93 1.83v2c22.6 0 41.48 15.9 53.71 38.62 12.22 22.7 17.65 52.02 13.41 78.35l1.98.31zM676.3-56.57c23.15 0 45.24 11.85 63.89 34.49l1.54-1.28c-18.92-22.96-41.54-35.2-65.43-35.2v2zm63.89 34.49c33.47 40.62 49.37 107.48 38.6 162.5l1.95.39c10.88-55.57-5.13-123.05-39-164.17l-1.55 1.28zm38.6 162.5c-2.68 13.64-7.11 23.86-12.93 31.56-5.8 7.69-13.03 12.9-21.35 16.48-16.71 7.18-37.78 7.74-60.69 8.33l.05 2c22.79-.59 44.3-1.13 61.43-8.5 8.6-3.69 16.11-9.1 22.16-17.1 6.04-8 10.57-18.52 13.28-32.38l-1.96-.38zm-94.97 56.37c-30.63.8-62.65 1.6-89.92 18.75l1.06 1.7c26.74-16.82 58.18-17.66 88.91-18.45l-.05-2zm-89.92 18.75c-18.5 11.65-38.26 17.54-58.72 17.54v2c20.86 0 40.98-6.01 59.78-17.84l-1.06-1.7zm-58.72 17.54c-26.08 0-52.48-9.7-74.32-27.37l-1.26 1.56c22.16 17.92 49 27.81 75.58 27.81v-2zm-74.32-27.37c-9.6-7.76-17.82-16.77-23.78-26.04l-1.69 1.08c6.1 9.47 14.47 18.64 24.2 26.52l1.27-1.56zm-23.78-26.04c-5.9-9.18-9.46-18.39-10.32-26.62l-2 .2c.92 8.63 4.61 18.13 10.63 27.5l1.69-1.08zm-10.32-26.62c-2.4-22.7 5.25-42.2 24.24-61.43l-1.42-1.4c-19.33 19.58-27.28 39.63-24.81 63.04l1.99-.21zM451 91.62c17.19-17.4 41.48-32.43 67.34-48.42l-1.05-1.7c-25.8 15.95-50.32 31.1-67.71 48.72l1.42 1.4zm67.34-48.42c29.28-18.1 59.69-36.9 83.82-61.55l-1.43-1.4C576.8 4.69 546.61 23.36 517.29 41.5l1.05 1.7zm83.82-61.55c24.92-25.45 49.86-38.22 74.14-38.22v-2c-25.02 0-50.45 13.16-75.57 38.82l1.43 1.4zm74.14-38.22v-2 2zm-1-1h2-2zm1-2.64c-23.66 0-49.69 11.67-76.75 39.31l1.43 1.4c26.82-27.4 52.37-38.7 75.32-38.71v-2zM599.54-20.9c-16.57 16.93-36.36 31.2-56.63 44.35-20.22 13.11-41.07 25.21-59.43 37.6-36.78 24.83-64.67 51.51-60.36 92.38l1.99-.2c-4.18-39.63 22.72-65.7 59.48-90.51C503 50.3 523.62 38.35 544 25.12c20.32-13.17 40.26-27.54 56.98-44.62l-1.43-1.4zM423.13 153.43c1.9 18.02 15.3 38.84 35.44 55.12 20.16 16.3 47.2 28.17 76.61 28.17v-2c-28.87 0-55.49-11.66-75.36-27.73-19.9-16.09-32.88-36.47-34.7-53.77l-1.99.22zm112.05 83.3c19.65 0 40.33-5.31 60.66-18.1l-1.07-1.7c-20 12.6-40.31 17.8-59.59 17.8v2zm60.66-18.1c16.56-10.42 35.25-14.63 54.33-16.5 9.54-.94 19.16-1.3 28.65-1.56 9.49-.26 18.86-.43 27.85-1 17.96-1.14 34.58-3.88 47.87-12.31 13.35-8.47 23.2-22.58 27.82-46.13l-1.97-.39c-4.53 23.14-14.13 36.72-26.92 44.83-12.84 8.15-29.03 10.87-46.93 12-8.94.57-18.26.74-27.77 1-9.5.26-19.18.62-28.8 1.56-19.23 1.9-38.26 6.15-55.2 16.8l1.07 1.7zm186.52-77.5c8.51-43.5.52-93.76-18.8-133.16-19.3-39.36-50.06-68.19-87.26-68.18v2c36.07 0 66.3 27.98 85.47 67.06 19.14 39.05 27.05 88.87 18.62 131.9l1.97.38zm8.57-349.7c21.26 0 41 6.5 58.72 19.37l1.18-1.62c-18.05-13.1-38.2-19.75-59.9-19.75v2zm58.72 19.37c16.48 11.97 31.34 29.5 44.14 52.15l1.75-.98c-12.92-22.84-27.95-40.62-44.71-52.78l-1.18 1.61zm44.14 52.15c30.22 53.43 48.32 134.6 49.58 222.7l2-.03c-1.26-88.3-19.4-169.83-49.83-223.66l-1.75.99zm49.58 222.7c1.2 83.98-13.12 158.9-38.18 200.47l1.71 1.03c25.35-42.05 39.68-117.41 38.47-201.53l-2 .03zM905.2 286.12c-48.04 79.67-117.64 121.7-201.32 121.7v2c84.47 0 154.68-42.48 203.03-122.67l-1.71-1.03zm-201.32 121.7c-66.17 0-138.73-27.12-204.27-76.45l-1.2 1.6c65.8 49.52 138.77 76.84 205.47 76.84v-2zM499.6 331.36c-48.69-36.63-94.03-54.3-133.94-69.86l-.72 1.86c39.9 15.56 85 33.15 133.45 69.6l1.2-1.6zm-133.94-69.86c-34.28-13.37-63.58-24.8-85.9-45.12-22.27-20.26-37.67-49.44-43.87-98.48l-1.98.25c6.24 49.38 21.8 79.05 44.5 99.71 22.65 20.61 52.33 32.17 86.53 45.5l.72-1.86zM235.9 117.9c-5.02-39.7-3.2-70.6 4.38-95.1 7.57-24.49 20.93-42.62 39.1-56.76 18.2-14.15 41.25-24.33 68.22-32.82 26.98-8.5 57.82-15.29 91.58-22.72l-.43-1.95C405.01-84.01 374.07-77.2 347-68.68c-27.08 8.53-50.38 18.79-68.84 33.15-18.48 14.38-32.09 32.85-39.8 57.74-7.7 24.86-9.48 56.08-4.44 95.95l1.98-.25zM439.17-89.5c78.82-17.36 177.05-39 275.57-95.6l-1-1.73c-98.22 56.43-196.17 78.01-275 95.38l.43 1.95zm275.57-95.6c27.18-15.6 52.8-23.48 76.18-23.49v-2c-23.82 0-49.8 8.03-77.18 23.76l1 1.74zm76.18-23.49v-2 2zm-1-1h2-2zm1-2.64c-23.25 0-49.22 7.45-78 23.98l1 1.74c28.56-16.41 54.18-23.72 77-23.72v-2zm-78 23.98c-131.4 75.5-259.25 87.79-350.65 113.33C316.63-62.15 280-46.06 256.85-16.95c-23.18 29.15-32.7 71.14-24.58 135.32l1.99-.25C226.18 54.2 235.7 12.85 258.4-15.71c22.73-28.58 58.83-44.54 104.4-57.27 91-25.43 219.41-37.86 351.1-113.52l-1-1.74zm-480.65 306.6c4.95 39.15 15.69 66.04 31.17 85.89 15.47 19.84 35.62 32.56 59.23 43.47 47.27 21.87 108.25 36.53 174.73 86.57l1.2-1.6c-66.7-50.2-128.22-65.1-175.1-86.78-23.46-10.86-43.29-23.4-58.49-42.9-15.2-19.48-25.84-46-30.75-84.9l-1.99.26zM497.4 334.3c64.03 48.18 136.9 77.17 206.47 77.17v-2c-69.03 0-141.48-28.78-205.26-76.77l-1.2 1.6zm206.47 77.17c78.18 0 152.08-36.62 204.44-123.46l-1.71-1.04c-52.01 86.27-125.28 122.5-202.73 122.5v2zM908.3 288c18.15-30.1 30.23-76.4 35.6-128.83 5.37-52.45 4.04-111.14-4.73-166.08-8.76-54.94-24.96-106.2-49.38-143.77-24.41-37.57-57.13-61.54-98.88-61.54v2c40.85 0 73.02 23.4 97.2 60.63 24.2 37.24 40.35 88.2 49.09 143 8.73 54.76 10.06 113.27 4.71 165.55-5.36 52.3-17.4 98.27-35.32 128l1.7 1.04zm-27.34-537.22c55.55 0 94.89 18.4 122.78 44.47 27.92 26.09 44.44 59.91 54.2 90.84l1.9-.6c-9.82-31.12-26.48-65.3-54.73-91.7-28.28-26.43-68.11-45-124.15-45v2zm176.98 135.3c12.72 40.33 18.12 87.56 16.01 140.4l2 .07c2.12-53-3.29-100.47-16.11-141.06l-1.9.6zm16.01 140.4c-1.97 49.18-10.67 101.9-25.17 152.42l1.92.55c14.54-50.67 23.27-103.54 25.25-152.9l-2-.08zm-25.17 152.42c-29.97 104.44-81.5 190.2-137.7 229.53l1.14 1.64c56.74-39.71 108.46-125.98 138.48-230.62l-1.92-.55zm-137.7 229.53c-62.72 43.89-126.61 65.2-195.37 65.2v2c69.22 0 133.5-21.46 196.51-65.56l-1.15-1.64zm-195.37 65.2c-95.2 0-184.75-40.8-271.6-80.39l-.83 1.82c86.77 39.55 176.72 80.57 272.44 80.57v-2zm-271.6-80.39c-21.7-9.9-44.17-20.13-65.95-29.32l-.77 1.84c21.74 9.18 44.18 19.4 65.9 29.3l.82-1.82zm-65.95-29.32c-56.9-24.02-108.57-57.26-149.42-96.1l-1.38 1.45c41.04 39.03 92.92 72.39 150.03 96.49l.77-1.84zm-149.42-96.1c-41.63-39.6-69.72-82.95-81.32-125.37l-1.93.53c11.72 42.86 40.06 86.52 81.88 126.29l1.37-1.45zm-81.32-125.37c-6.39-23.37-7.73-46.3-4-68.15l-1.97-.33c-3.78 22.16-2.42 45.38 4.04 69l1.93-.52zm-4-68.15c3.94-23.06 13.57-45.07 28.65-65.39l-1.6-1.2c-15.25 20.56-25.02 42.85-29.02 66.26l1.97.33zm28.65-65.39c66.63-89.84 152.14-150.45 269.18-190.74l-.65-1.9C323.23-143.3 237.37-82.47 170.47 7.73l1.6 1.19zm269.18-190.74c104.2-35.87 235.33-56.54 425.23-66.98l-.11-2c-189.97 10.45-321.3 31.13-425.77 67.09l.65 1.9zm425.23-66.98c4.87-.27 9.74-.4 14.47-.4v-2c-4.76 0-9.67.13-14.58.4l.1 2zm14.47-.4h.01v-2 2zm1.01-1h-2 2zm-1-2.65c-4.8 0-9.7.14-14.68.4l.1 2c4.96-.27 9.82-.4 14.57-.4v-2zm-14.68.4c-344.56 18.95-559.63 73.8-697.14 259.2l1.61 1.19c136.92-184.6 351.12-239.44 695.64-258.38l-.11-2zM169.15 6.75c-46.32 62.46-38.21 134.2 3.33 199.43 41.53 65.2 116.51 124.06 204.28 161.1l.78-1.84c-87.49-36.93-162.11-95.55-203.37-160.34-41.24-64.76-49.1-135.55-3.41-197.16l-1.6-1.2zm207.6 360.53c53.2 22.45 107.9 50 164.17 71.84 56.33 21.88 114.45 38.16 174.8 38.16v-2c-60 0-117.86-16.18-174.08-38.02-56.28-21.86-110.69-49.28-164.1-71.82l-.78 1.84zm338.98 110c63.25 0 128.92-17.9 197.45-65.86l-1.15-1.64c-68.2 47.74-133.47 65.5-196.3 65.5v2zm197.45-65.86c44.48-31.13 83.59-88.22 112.53-156.21 28.95-68.02 47.78-147.07 51.63-222.26 3.84-75.16-7.29-146.57-38.37-199.23-31.12-52.72-82.2-86.57-158-86.57v2c75.07 0 125.51 33.46 156.28 85.59 30.8 52.19 41.92 123.15 38.09 198.11-3.83 74.94-22.61 153.76-51.47 221.57-28.88 67.84-67.8 124.54-111.84 155.36l1.15 1.64zM785.92-347v1.64h2V-347h-2zm1 2.64c73.37 0 149.15 10.26 231.69 31.39l.5-1.94c-82.68-21.16-158.63-31.45-232.2-31.45v2zm231.69 31.39c69.16 17.7 122.93 51.84 159.88 101.45l1.6-1.2c-37.26-50.03-91.45-84.4-160.98-102.19l-.5 1.94zm159.88 101.45c33.42 44.86 52.59 101.39 56.94 168.05l1.99-.13c-4.36-66.97-23.63-123.89-57.33-169.12l-1.6 1.2zm56.94 168.05c6.89 105.8-24.99 231.22-87.52 344.06l1.75.97c62.67-113.1 94.68-238.9 87.76-345.16l-1.99.13zm-87.52 344.06c-62.58 112.94-146.86 196.96-231.14 230.67l.74 1.85c84.86-33.93 169.44-118.38 232.15-231.55l-1.75-.97zM916.77 531.26c-59.08 23.62-115.61 35.1-172.84 35.1v2c57.5 0 114.3-11.54 173.58-35.25l-.74-1.86zm-172.84 35.1c-52.76 0-106.25-10.04-163.54-30.72l-.68 1.88c57.47 20.74 111.2 30.84 164.22 30.84v-2zM580.4 535.64c-50.68-18.3-97.97-42.39-143.77-65.72l-.9 1.78c45.77 23.32 93.17 47.48 144 65.82l.67-1.88zm-143.77-65.72c-61.63-31.41-120-61.17-179.81-73.3l-.4 1.96c59.49 12.07 117.6 41.68 179.3 73.12l.91-1.78zm-179.81-73.3C194.79 384.04 134.38 343.37 86.77 282l-1.58 1.23c47.84 61.65 108.63 102.65 171.22 115.35l.4-1.96zM86.77 282C42.21 224.58 13.11 154.23 6.9 89.02l-2 .18c6.26 65.64 35.53 136.34 80.29 194.03l1.58-1.23zM6.9 89.02C2.83 46.26 8.86 6.96 24.3-24.68l-1.8-.88C6.87 6.48.8 46.17 4.9 89.2l2-.18zm17.4-113.7c17.09-35.02 45.11-60.74 83.35-76.45l-.76-1.85C68.23-87.1 39.82-61.05 22.5-25.56l1.8.88zm83.35-76.45c69.67-28.62 133.85-61.7 195.88-93.68l-.91-1.78c-62.04 31.98-126.15 65.03-195.73 93.61l.76 1.85zm195.88-93.68c149.31-76.96 290.13-149.53 483.34-149.55v-2c-193.76.02-334.97 72.82-484.25 149.77l.91 1.78zm484.34-150.52l.05-1.64-2-.06-.05 1.64 2 .06zm-1-2.67c-137.63 0-248.81 36.68-355.07 85.44-53.12 24.38-105.03 51.8-158.38 79.15-53.36 27.36-108.17 54.68-167.15 78.91l.76 1.85c59.06-24.26 113.93-51.61 167.3-78.98 53.38-27.37 105.23-54.75 158.3-79.1 106.11-48.7 217-85.26 354.23-85.27v-2zm-680.6 243.5C53.24-82.72 22.37-42.98 9.34 5.03-3.66 53 1.17 109.2 19.43 163.98c36.5 109.54 126.84 213.93 236.66 236.21l.4-1.96c-108.9-22.09-198.8-125.77-235.17-234.88C3.15 108.82-1.6 53.05 11.27 5.55c12.87-47.45 43.35-86.67 95.76-108.2l-.76-1.85zm149.82 504.69c73.86 14.98 146.02 57.33 224.75 96.07C559.49 534.98 644.56 570 743.93 570v-2c-98.9 0-183.62-34.85-262.2-73.53-78.52-38.64-151.05-81.19-225.25-96.24l-.4 1.96zM743.93 570c53.52 0 111.2-10.17 174.2-35.36l-.75-1.86C854.61 557.88 797.18 568 743.93 568v2zm174.2-35.36c70.2-28.08 136.96-88.84 191.26-165.71 54.31-76.88 96.24-169.96 116.74-262.78 20.51-92.81 19.63-185.47-11.79-261.44-31.43-76.02-93.4-135.26-194.82-161.21l-.5 1.94c100.83 25.8 162.29 84.6 193.47 160.03 31.21 75.48 32.14 167.68 11.69 260.25-20.45 92.55-62.26 185.39-116.42 262.06-54.18 76.68-120.65 137.12-190.38 165l.74 1.86zm101.39-851.14C933.28-338.57 856.7-348 786.86-348v2c69.66 0 146.07 9.4 232.16 31.44l.5-1.94z" fill="#D2D6E7" mask="url(#a)"/><circle cx="7" cy="23" r="5" fill="#9FAAC4" stroke="#F9FAFC" stroke-width="4"/><circle cx="151" cy="42" r="5" fill="#9FAAC4" stroke="#F9FAFC" stroke-width="4"/><circle cx="235" cy="124" r="5" fill="#9FAAC4" stroke="#F9FAFC" stroke-width="4"/><circle cx="350" cy="42" r="5" fill="#9FAAC4" stroke="#F9FAFC" stroke-width="4"/><circle cx="445" cy="96" r="5" fill="#9FAAC4" stroke="#F9FAFC" stroke-width="4"/><circle cx="549" cy="56" r="5" fill="#9FAAC4" stroke="#F9FAFC" stroke-width="4"/><defs><linearGradient id="paint0_linear" x1="515.5" y1="-54.5" x2="523" y2="203.5" gradientUnits="userSpaceOnUse"><stop stop-color="#fff" stop-opacity="0"/><stop offset=".52" stop-color="#fff"/><stop offset="1" stop-color="#fff" stop-opacity="0"/></linearGradient><linearGradient id="paint1_linear" x1="515.5" y1="-54.5" x2="523" y2="203.5" gradientUnits="userSpaceOnUse"><stop stop-color="#fff" stop-opacity="0"/><stop offset=".52" stop-color="#fff"/><stop offset="1" stop-color="#fff" stop-opacity="0"/></linearGradient><linearGradient id="paint2_linear" x1="515.5" y1="-54.5" x2="523" y2="203.5" gradientUnits="userSpaceOnUse"><stop stop-color="#fff" stop-opacity="0"/><stop offset=".52" stop-color="#fff"/><stop offset="1" stop-color="#fff" stop-opacity="0"/></linearGradient><linearGradient id="paint3_linear" x1="515.5" y1="-54.5" x2="523" y2="203.5" gradientUnits="userSpaceOnUse"><stop stop-color="#fff" stop-opacity="0"/><stop offset=".52" stop-color="#fff"/><stop offset="1" stop-color="#fff" stop-opacity="0"/></linearGradient><linearGradient id="paint4_linear" x1="515.5" y1="-54.5" x2="523" y2="203.5" gradientUnits="userSpaceOnUse"><stop stop-color="#fff" stop-opacity="0"/><stop offset=".52" stop-color="#fff"/><stop offset="1" stop-color="#fff" stop-opacity="0"/></linearGradient><linearGradient id="paint5_linear" x1="515.5" y1="-54.5" x2="523" y2="203.5" gradientUnits="userSpaceOnUse"><stop stop-color="#fff" stop-opacity="0"/><stop offset=".52" stop-color="#fff"/><stop offset="1" stop-color="#fff" stop-opacity="0"/></linearGradient><linearGradient id="paint6_linear" x1="515.5" y1="-54.5" x2="523" y2="203.5" gradientUnits="userSpaceOnUse"><stop stop-color="#fff" stop-opacity="0"/><stop offset=".52" stop-color="#fff"/><stop offset="1" stop-color="#fff" stop-opacity="0"/></linearGradient><linearGradient id="paint7_linear" x1="515.5" y1="-54.5" x2="523" y2="203.5" gradientUnits="userSpaceOnUse"><stop stop-color="#fff" stop-opacity="0"/><stop offset=".52" stop-color="#fff"/><stop offset="1" stop-color="#fff" stop-opacity="0"/></linearGradient></defs></svg>
