<svg width="618" height="182" fill="none" xmlns="http://www.w3.org/2000/svg"><path d="M622.5 68.5c21.2 0 17.9 10.3 17.9 31.5s-8.2 45.5-29.4 45.5-34.4-13.8-34.4-35 24.7-42 45.9-42zm0-1.6c-22 0-47.5 21.5-47.5 43.6 0 22 14 36.6 36 36.6s31-25 31-47.1c0-22 2.6-33.1-19.5-33.1z" fill="url(#paint0_linear)"/><path d="M644 4.5A55 55 0 0 1 685.6 26c20.1 23.6 30 61.6 24.7 94.7-6 36.9-32.7 40.7-63.7 45.2a162.9 162.9 0 0 0-48.6 12.1 71.3 71.3 0 0 1-31.1 7.3 76.4 76.4 0 0 1-49.7-19.2 61.5 61.5 0 0 1-22.5-39C492 91.2 525.5 70.8 561 49.1a386.6 386.6 0 0 0 41.4-27.7c14-11.3 28-17 41.5-17zm0-1.7c-13.2 0-27.5 5.3-42.7 17.5-43.5 35.1-112.1 55.5-108.2 106.9C495.2 154.6 528 187 567 187c10.3 0 21-2.3 31.9-7.5 44.4-21.4 103.8-.8 113.1-58.5 8.6-53.1-21.9-118.2-68-118.2z" fill="url(#paint1_linear)"/><path d="M676.3-57.6c23.5 0 45.9 12 64.7 34.9 33.6 40.8 49.6 108 38.8 163.3-10.8 55-50.3 56-96 57.2-30.6.8-62.4 1.6-89.4 18.6a110 110 0 0 1-59.2 17.7c-26.4 0-53-9.8-75-27.6-9.6-7.8-18-17-24-26.3a64 64 0 0 1-10.4-27c-2.5-23.1 5.3-42.9 24.5-62.3 17.3-17.5 41.7-32.6 67.5-48.6 29.3-18 59.6-36.8 83.6-61.4 25-25.5 50.2-38.5 74.9-38.5zm0-1.6c-23.3 0-49 11.5-76 39-66.6 68-184.7 93-176.2 173.5 3.7 35.3 52.8 82.4 111 82.4 19.5 0 40-5.2 60.2-18 67-42 167.8 16.6 186-76.8 17-86.5-31.7-200.1-105-200.1z" fill="url(#paint2_linear)"/><path d="M731.1-130.2c32.2 0 61.2 18.3 84 53 23.5 36 40 89.4 45.2 146.7 5 56-1 108.6-16.6 144.4-26.2 60-72.7 89-142.2 89-48.3 0-100.1-13.6-145.8-25.7l-8.8-2.4-39.3-9.8c-89.8-22-167.4-41-178-129.3-6-48.7 5-82.9 34.8-107.5 27.3-22.7 68-36 115-51.3 55.2-18 117.9-38.5 178-80 26-18 50.7-27.1 73.7-27.1zm0-.8c-22 0-46.8 8.2-74.3 27.2C494 8.8 308.3-32.6 328.7 135.8c12.3 101.6 111.9 111.9 218 139.8 47.6 12.6 103.2 28.2 154.8 28.2 59 0 112.8-20.5 143-89.6C890.1 109.3 849.8-131 731-131z" fill="url(#paint3_linear)"/><path d="M731.1-130.2c32.2 0 61.2 18.3 84 53 23.5 36 40 89.4 45.2 146.7 5 56-1 108.6-16.6 144.4-26.2 60-72.7 89-142.2 89-48.3 0-100.1-13.6-145.8-25.7l-8.8-2.4-39.3-9.8c-89.8-22-167.4-41-178-129.3-6-48.7 5-82.9 34.8-107.5 27.3-22.7 68-36 115-51.3 55.2-18 117.9-38.5 178-80 26-18 50.7-27.1 73.7-27.1zm0-.8c-22 0-46.8 8.2-74.3 27.2C494 8.8 308.3-32.6 328.7 135.8c12.3 101.6 111.9 111.9 218 139.8 47.6 12.6 103.2 28.2 154.8 28.2 59 0 112.8-20.5 143-89.6C890.1 109.3 849.8-131 731-131z" fill="url(#paint4_linear)"/><path d="M791-209.6c21.4 0 41.4 6.6 59.2 19.6 16.7 12 31.6 29.7 44.5 52.5C925-84 943-2.5 944.4 85.6c1.2 84-13.2 159.2-38.4 201-48.1 80-118 122.2-202.1 122.2-66.5 0-139.2-27.2-204.9-76.6-48.6-36.6-93.8-54.2-133.7-69.8-68.5-26.7-118-46-130.4-144.4-20.1-159 69-178.7 204-208.5 78.9-17.3 177-39 275.3-95.4 27.3-15.7 53.1-23.7 76.7-23.7zm0-1.6c-23.1 0-49 7.4-77.6 23.8-263 151.2-512.5 49.5-480.1 305.6C253 274.3 364.8 233.2 498 333.5c64 48 136.6 77 205.9 77 77.8 0 151.4-36.5 203.6-123 72.1-119.7 48.6-498.7-116.6-498.7z" fill="url(#paint5_linear)"/><path d="M881-250.2c111.6 0 158.3 74 177.9 136 12.8 40.4 18.2 87.8 16 140.7a658 658 0 0 1-25.2 152.7c-30 104.5-81.6 190.5-138 230-62.9 44-127 65.4-196 65.4-95.4 0-185.2-40.9-272-80.4-21.7-10-44.2-20.2-66-29.4-57-24-108.7-57.3-149.6-96.3-41.8-39.6-70-83.1-81.6-125.8a158 158 0 0 1-4-68.6c4-23.2 13.6-45.3 28.8-65.8 66.7-90 152.4-150.7 269.6-191 104.4-36 235.6-56.7 425.5-67.1 5-.3 9.8-.4 14.6-.4zm0-1.7c-4.8 0-9.7.2-14.7.4-344.5 19-559.1 73.8-696.3 258.8-92 124.1 31.9 285 207.1 359 106.7 45 218.3 110 338.6 110 63 0 128.5-17.9 196.9-65.7 177-124 270.1-662.5-31.6-662.5z" fill="url(#paint6_linear)"/><path d="M787-347v1.6c73.4 0 149.3 10.3 231.9 31.5 69.3 17.7 123.3 52 160.4 101.8 33.5 45 52.8 101.7 57.1 168.6 7 106-25 231.6-87.6 344.6-62.7 113-147 197.3-231.7 231A460 460 0 0 1 744 567.5c-52.9 0-106.5-10.1-163.8-30.8-50.8-18.3-98.1-42.5-144-65.8-61.6-31.4-119.8-61.1-179.5-73.2-62.3-12.6-122.9-53.5-170.6-115C41.3 225.1 12 154.6 5.9 89.1 1.9 46.2 7.9 6.7 23.4-25a155.8 155.8 0 0 1 83.9-77c69.6-28.6 133.7-61.6 195.8-93.6 149.3-77 290.3-149.6 483.8-149.7v-1.6zm-.1 0C512-347 342.7-200.6 106.6-103.6c-210.8 86.7-69 458.4 149.7 502.8 148 30 289.4 169.8 487.6 169.8 53.4 0 111-10.1 173.9-35.3 279.8-112 506-745.7 101.5-849.2A933.2 933.2 0 0 0 786.9-347z" fill="url(#paint7_linear)"/><circle cx="7" cy="23" r="5" fill="#14C393" stroke="#fff" stroke-width="4"/><circle cx="151" cy="42" r="5" fill="#14C393" stroke="#fff" stroke-width="4"/><circle cx="235" cy="124" r="5" fill="#14C393" stroke="#fff" stroke-width="4"/><circle cx="350" cy="42" r="5" fill="#14C393" stroke="#fff" stroke-width="4"/><circle cx="445" cy="96" r="5" fill="#14C393" stroke="#fff" stroke-width="4"/><circle cx="549" cy="56" r="5" fill="#14C393" stroke="#fff" stroke-width="4"/><defs><linearGradient id="paint0_linear" x1="515.5" y1="-54.5" x2="523" y2="203.5" gradientUnits="userSpaceOnUse"><stop stop-color="#fff" stop-opacity="0"/><stop offset=".5" stop-color="#fff"/><stop offset="1" stop-color="#fff" stop-opacity="0"/></linearGradient><linearGradient id="paint1_linear" x1="515.5" y1="-54.5" x2="523" y2="203.5" gradientUnits="userSpaceOnUse"><stop stop-color="#fff" stop-opacity="0"/><stop offset=".5" stop-color="#fff"/><stop offset="1" stop-color="#fff" stop-opacity="0"/></linearGradient><linearGradient id="paint2_linear" x1="515.5" y1="-54.5" x2="523" y2="203.5" gradientUnits="userSpaceOnUse"><stop stop-color="#fff" stop-opacity="0"/><stop offset=".5" stop-color="#fff"/><stop offset="1" stop-color="#fff" stop-opacity="0"/></linearGradient><linearGradient id="paint3_linear" x1="515.5" y1="-54.5" x2="523" y2="203.5" gradientUnits="userSpaceOnUse"><stop stop-color="#fff" stop-opacity="0"/><stop offset=".5" stop-color="#fff"/><stop offset="1" stop-color="#fff" stop-opacity="0"/></linearGradient><linearGradient id="paint4_linear" x1="515.5" y1="-54.5" x2="523" y2="203.5" gradientUnits="userSpaceOnUse"><stop stop-color="#fff" stop-opacity="0"/><stop offset=".5" stop-color="#fff"/><stop offset="1" stop-color="#fff" stop-opacity="0"/></linearGradient><linearGradient id="paint5_linear" x1="515.5" y1="-54.5" x2="523" y2="203.5" gradientUnits="userSpaceOnUse"><stop stop-color="#fff" stop-opacity="0"/><stop offset=".5" stop-color="#fff"/><stop offset="1" stop-color="#fff" stop-opacity="0"/></linearGradient><linearGradient id="paint6_linear" x1="515.5" y1="-54.5" x2="523" y2="203.5" gradientUnits="userSpaceOnUse"><stop stop-color="#fff" stop-opacity="0"/><stop offset=".5" stop-color="#fff"/><stop offset="1" stop-color="#fff" stop-opacity="0"/></linearGradient><linearGradient id="paint7_linear" x1="515.5" y1="-54.5" x2="523" y2="203.5" gradientUnits="userSpaceOnUse"><stop stop-color="#fff" stop-opacity="0"/><stop offset=".5" stop-color="#fff"/><stop offset="1" stop-color="#fff" stop-opacity="0"/></linearGradient></defs></svg>
