<svg width="618" height="210" fill="none" xmlns="http://www.w3.org/2000/svg"><mask id="i" fill="#fff"><path d="M623 69c21 0 17 10 17 31s-8 46-29 46-34-14-34-35 24-42 45-42zm0-2c-23 0-48 21-48 44 0 22 14 36 36 36s31-25 31-47 3-33-19-33z"/><path d="M644 4c15 0 30 8 42 22 20 24 30 62 24 95-6 37-32 40-63 45-17 2-33 5-49 12a71 71 0 0 1-31 7c-18 0-35-6-50-19a62 62 0 0 1-22-39c-3-36 31-56 66-78 14-8 29-17 41-27 14-12 28-18 42-18zm0-1c-13 0-28 5-43 17-43 35-112 56-108 107 2 28 35 60 74 60 10 0 21-2 32-7 44-22 104-1 113-59 9-53-22-118-68-118z"/><path d="M676-58c24 0 46 12 65 35 34 41 50 108 39 164-11 55-50 56-96 57-31 1-63 1-90 18-18 12-38 18-59 18a120 120 0 0 1-99-54c-6-9-9-18-10-27-3-23 5-43 24-62 18-18 42-33 68-49 29-18 59-37 83-61 25-26 51-39 75-39zm0-1c-23 0-49 11-76 39-66 68-184 93-176 173 4 36 53 83 111 83 20 0 40-6 60-18 67-42 168 16 186-77 17-87-31-200-105-200z"/><path d="M731-130c32 0 61 18 84 53 24 36 40 89 45 147 5 55-1 108-16 144-26 60-73 89-142 89-49 0-101-14-146-26l-9-2-39-10c-90-22-168-41-178-129-6-49 5-83 34-108 28-23 68-36 115-51 56-18 118-39 178-80 26-18 51-27 74-27zm0-1c-22 0-47 8-74 27C494 9 308-33 329 136c12 101 112 112 218 140 47 12 103 28 154 28 60 0 113-21 143-90 46-105 6-345-113-345z"/><path d="M731-130c32 0 61 18 84 53 24 36 40 89 45 147 5 55-1 108-16 144-26 60-73 89-142 89-49 0-101-14-146-26l-9-2-39-10c-90-22-168-41-178-129-6-49 5-83 34-108 28-23 68-36 115-51 56-18 118-39 178-80 26-18 51-27 74-27zm0-1c-22 0-47 8-74 27C494 9 308-33 329 136c12 101 112 112 218 140 47 12 103 28 154 28 60 0 113-21 143-90 46-105 6-345-113-345z"/><path d="M791-210c21 0 41 7 59 20 17 12 32 30 45 52 30 54 48 135 49 224 2 84-13 159-38 201a230 230 0 0 1-202 122c-67 0-139-27-205-77-49-36-94-54-134-70-68-26-118-46-130-144C215-41 304-61 439-90c79-18 177-39 275-96 28-16 53-24 77-24zm0-1c-23 0-49 7-78 24-263 151-512 49-480 305 20 156 132 115 265 216 64 48 137 76 206 76 78 0 151-36 203-123 73-119 49-498-116-498z"/><path d="M881-250c112 0 158 74 178 136 13 40 18 88 16 141-2 49-11 102-25 152a432 432 0 0 1-138 230c-63 44-127 66-196 66-96 0-185-41-272-81l-66-29c-57-24-109-58-150-96-42-40-70-84-82-126-6-24-7-47-4-69 4-23 14-45 29-66 67-90 153-150 270-191a1583 1583 0 0 1 440-67zm0-2-15 1C522-233 307-178 170 7c-92 124 32 285 207 359 107 45 218 110 339 110 63 0 128-18 197-65 177-124 270-663-32-663z"/><path d="M787-347v2c73 0 149 10 232 31 69 18 123 52 160 102 34 45 53 102 57 168 7 106-25 232-87 345a508 508 0 0 1-232 231 460 460 0 0 1-337 5c-51-19-98-43-144-66-61-32-120-61-179-73-63-13-123-54-171-115C41 225 12 155 6 89 2 46 8 7 23-25c18-35 46-61 84-77 70-29 134-62 196-94 149-77 290-149 484-149v-2zm0 0c-275 0-444 146-680 243-211 87-69 459 149 503 148 30 290 170 488 170 53 0 111-10 174-35 280-112 506-746 101-850-86-22-162-31-232-31z"/></mask><path d="M623 69c21 0 17 10 17 31s-8 46-29 46-34-14-34-35 24-42 45-42zm0-2c-23 0-48 21-48 44 0 22 14 36 36 36s31-25 31-47 3-33-19-33z" fill="url(#a)"/><path d="M644 4c15 0 30 8 42 22 20 24 30 62 24 95-6 37-32 40-63 45-17 2-33 5-49 12a71 71 0 0 1-31 7c-18 0-35-6-50-19a62 62 0 0 1-22-39c-3-36 31-56 66-78 14-8 29-17 41-27 14-12 28-18 42-18zm0-1c-13 0-28 5-43 17-43 35-112 56-108 107 2 28 35 60 74 60 10 0 21-2 32-7 44-22 104-1 113-59 9-53-22-118-68-118z" fill="url(#b)"/><path d="M676-58c24 0 46 12 65 35 34 41 50 108 39 164-11 55-50 56-96 57-31 1-63 1-90 18-18 12-38 18-59 18a120 120 0 0 1-99-54c-6-9-9-18-10-27-3-23 5-43 24-62 18-18 42-33 68-49 29-18 59-37 83-61 25-26 51-39 75-39zm0-1c-23 0-49 11-76 39-66 68-184 93-176 173 4 36 53 83 111 83 20 0 40-6 60-18 67-42 168 16 186-77 17-87-31-200-105-200z" fill="url(#c)"/><path d="M731-130c32 0 61 18 84 53 24 36 40 89 45 147 5 55-1 108-16 144-26 60-73 89-142 89-49 0-101-14-146-26l-9-2-39-10c-90-22-168-41-178-129-6-49 5-83 34-108 28-23 68-36 115-51 56-18 118-39 178-80 26-18 51-27 74-27zm0-1c-22 0-47 8-74 27C494 9 308-33 329 136c12 101 112 112 218 140 47 12 103 28 154 28 60 0 113-21 143-90 46-105 6-345-113-345z" fill="url(#d)"/><path d="M731-130c32 0 61 18 84 53 24 36 40 89 45 147 5 55-1 108-16 144-26 60-73 89-142 89-49 0-101-14-146-26l-9-2-39-10c-90-22-168-41-178-129-6-49 5-83 34-108 28-23 68-36 115-51 56-18 118-39 178-80 26-18 51-27 74-27zm0-1c-22 0-47 8-74 27C494 9 308-33 329 136c12 101 112 112 218 140 47 12 103 28 154 28 60 0 113-21 143-90 46-105 6-345-113-345z" fill="url(#e)"/><path d="M791-210c21 0 41 7 59 20 17 12 32 30 45 52 30 54 48 135 49 224 2 84-13 159-38 201a230 230 0 0 1-202 122c-67 0-139-27-205-77-49-36-94-54-134-70-68-26-118-46-130-144C215-41 304-61 439-90c79-18 177-39 275-96 28-16 53-24 77-24zm0-1c-23 0-49 7-78 24-263 151-512 49-480 305 20 156 132 115 265 216 64 48 137 76 206 76 78 0 151-36 203-123 73-119 49-498-116-498z" fill="url(#f)"/><path d="M881-250c112 0 158 74 178 136 13 40 18 88 16 141-2 49-11 102-25 152a432 432 0 0 1-138 230c-63 44-127 66-196 66-96 0-185-41-272-81l-66-29c-57-24-109-58-150-96-42-40-70-84-82-126-6-24-7-47-4-69 4-23 14-45 29-66 67-90 153-150 270-191a1583 1583 0 0 1 440-67zm0-2-15 1C522-233 307-178 170 7c-92 124 32 285 207 359 107 45 218 110 339 110 63 0 128-18 197-65 177-124 270-663-32-663z" fill="url(#g)"/><path d="M787-347v2c73 0 149 10 232 31 69 18 123 52 160 102 34 45 53 102 57 168 7 106-25 232-87 345a508 508 0 0 1-232 231 460 460 0 0 1-337 5c-51-19-98-43-144-66-61-32-120-61-179-73-63-13-123-54-171-115C41 225 12 155 6 89 2 46 8 7 23-25c18-35 46-61 84-77 70-29 134-62 196-94 149-77 290-149 484-149v-2zm0 0c-275 0-444 146-680 243-211 87-69 459 149 503 148 30 290 170 488 170 53 0 111-10 174-35 280-112 506-746 101-850-86-22-162-31-232-31z" fill="url(#h)"/><path d="M815-77zm45 147 1-1-1 1zm-16 144zm-288 63zm-9-2v-1 1zm-39-10zM330 136h-1 1zm34-108 1 1-1-1zm115-51h1-1zm178-80v-1 1zm74-27v-1 1zm0-1v-1 1zm-74 27zM329 136h-1 1zm218 140zm297-62zM643 3v1h1V3h-1zm88-133c32 0 61 18 84 53-22-35-52-54-84-54v1zm84 53c23 36 40 89 45 147l1-1c-5-57-22-110-46-146zm45 147c5 55-1 108-17 144h1c16-36 22-89 17-145l-1 1zm-17 144c-13 30-31 52-54 66-24 15-53 22-88 22v1c35 0 64-7 88-22s42-37 55-67h-1zm-142 88c-48 0-99-13-145-25v1c45 12 97 25 145 25v-1zm-145-25-9-3v1l9 3v-1zm-9-3a2277 2277 0 0 0-39-9l39 10v-1zm-39-9c-45-11-87-22-119-40-32-19-54-45-59-89h-1c5 44 28 71 60 90 32 18 74 29 119 39zM330 136c-6-49 5-83 35-107l-1-1c-30 25-41 59-35 108h1zm35-107c27-23 67-36 115-52l-1-1C432-8 391 5 364 28l1 1zm115-52c55-18 117-38 178-80l-1-1c-60 42-123 62-178 80l1 1zm178-80c26-18 50-27 73-27v-1c-23 0-48 9-74 27l1 1zm73-27v-1 1zm0-2c-22 0-47 9-74 28v1c27-19 52-28 74-28v-1zm-74 28C575-48 488-30 424-5c-32 12-59 26-76 48s-25 51-20 93h1c-5-42 3-71 20-93 17-21 43-35 75-47 64-25 152-43 233-99v-1zM328 136a116 116 0 0 0 74 98c40 19 92 28 145 42v-1c-53-14-105-23-144-42a115 115 0 0 1-74-97h-1zm219 140c47 13 103 28 154 28v-1c-51 0-107-15-154-28v1zm155 28c29 0 57-5 82-19 25-13 46-36 61-71h-1c-15 34-36 57-60 70-25 14-53 19-82 19v1zm143-90a359 359 0 0 0-39-306 96 96 0 0 0-75-40v1c30 0 54 15 74 39a358 358 0 0 1 39 306h1zM686 26l1-1-1 1zm24 95h-1 1zm-63 45v1-1zm-49 12v-1 1zm-81-12 1-1-1 1zm-22-39h-1 1zm66-78-1-1 1 1zm41-27h1-1zm-1-2v-1 1zM493 127h-1 1zm106 53zm113-59h1-1zM676-58h-1v1h1v-1zm65 35h1-1zm39 164-1-1 1 1zm-96 57v1-1zm-90 18 1 1-1-1zm-134-9 1-1h-1zm-24-27h1-1zm-10-27h-1 1zm24-62v-1 1zm68-49h-1 1zm83-61 1 1-1-1zm75-39v-1 1zm0 0h1v-1h-1v1zm0-1v-1 1zm-76 39v-1 1zM424 153h1-1zm171 65 1 1-1-1zm186-77h-1 1zm10-351h-1v1h1v-1zm59 20 1-1-1 1zm45 52h1-1zm49 224h-1 1zm-38 201h1-1zm-407 45 1-1-1 1zm-134-70v1-1zM235 118h1-1zM439-90v1-1zm275-96v-1 1zm77-24v-1 1zm0 0h1v-1h-1v1zm0-1v1-1zm-78 24v-1 1zM233 118h-1 1zm265 216h-1 1zm409-46h1-1zm-26-538v-1h-1v1h1zm178 136h-1 1zm16 141-1-1 1 1zm-25 152h-1 1zM912 409v1-1zm-468-15-1 1 1-1zm-66-29v-1 1zm-150-96 1-1-1 1zm-82-126h-1 1zm-4-69h-1 1zm29-66 1 1-1-1zm270-191v-1 1zm425-67v1-1zm15 0v1h1v-1h-1zm0-2v1-1zm-15 1v-1 1zM170 7h-1 1zm207 359 1-1-1 1zm536 45-1-1 1 1zM787-347h1-2 1zm0 2h-1v1h1v-1zm232 31v1-1zm160 102h-1 1zm57 168-1 1 1-1zm-87 345h-1 1zM917 532v-1 1zm-337 5v1-1zm-144-66v1-1zm-179-73v-1 1zM86 283l1-1-1 1zM6 89H5h1zM23-25h1-1zm84-77 1 1-1-1zm196-94v-1 1zm484-149v1h1v-1h-1zm0-2v1-1zM107-104h-1 1zm149 503v1-1zm662 135-1-1 1 1zm101-850 1-1-1 1zM623 70l11 1a9 9 0 0 1 4 6l2 9a245 245 0 0 1-1 14h2v-7l1-7-2-10a11 11 0 0 0-5-6c-3-2-7-3-13-3v3zm16 30c0 10-2 22-6 30-5 9-12 15-22 15v2c11 0 19-7 24-16 4-9 6-20 6-31h-2zm-28 45c-10 0-19-4-24-10-6-6-9-14-9-24h-2c0 10 3 19 9 26 6 6 15 10 26 10v-2zm-33-34c0-11 6-21 14-29 9-7 20-12 30-12v-2c-10 0-22 5-31 13s-15 19-15 29h2zm44-45c-11 0-23 5-32 14-9 8-16 19-16 31h2c0-11 6-22 15-30s21-13 31-13v-2zm-48 45c0 11 4 20 10 27 6 6 16 10 27 10v-2c-11 0-20-3-26-10-6-6-9-15-9-25h-2zm37 37c12 0 20-6 25-16 5-9 7-21 7-32h-2c0 11-2 23-7 31-5 9-12 15-23 15v2zm32-48V85c0-4 0-7-2-10a12 12 0 0 0-6-7l-13-2v2l12 2a10 10 0 0 1 6 6l1 10v14h2zm1-95c15 0 29 8 41 22l2-2a56 56 0 0 0-43-22v2zm41 22c20 23 30 61 24 94h2c6-33-4-72-24-96l-2 2zm24 94c-2 18-10 28-22 34-11 6-25 8-40 10v2c15-2 30-4 41-11 12-6 20-16 23-35h-2zm-62 44c-17 2-34 5-49 12l1 2c15-7 32-10 48-12v-2zm-49 12a70 70 0 0 1-31 7v2c11 0 21-2 32-7l-1-2zm-31 7c-18 0-35-6-49-19l-1 2c14 12 32 19 50 19v-2zm-49-19a60 60 0 0 1-22-38h-2c1 14 9 28 23 40l1-2zm-22-38c-2-18 6-31 18-43 13-13 30-23 48-34l-2-2c-17 11-35 22-47 34-13 13-21 27-19 45h2zm66-77 41-28-1-1c-13 10-27 19-41 27l1 2zm41-28c14-11 28-17 41-17V3c-14 0-28 6-42 18l1 1zm41-20c-13 0-28 5-43 17l1 2c15-12 29-17 42-17V2zm-43 17c-11 9-24 17-36 25l-36 23c-22 16-39 34-37 60h2c-2-25 14-43 36-59l36-23c13-7 25-15 36-24l-1-2zM492 127c1 14 10 29 24 41 13 12 31 20 51 20v-2c-19 0-37-8-50-19a62 62 0 0 1-23-40h-2zm75 61c10 0 21-2 32-8l-1-1a72 72 0 0 1-31 7v2zm32-8c11-5 23-8 35-10l35-5c11-3 21-6 28-13 8-6 14-16 16-31h-2c-2 14-8 23-15 30-7 6-17 10-28 12l-34 5c-12 2-24 5-36 11l1 1zm114-59c4-27-1-56-14-79-12-24-31-40-55-40v2c23 0 41 16 54 38 12 23 17 52 13 79h2zM676-57c23 0 46 12 64 35l2-1c-19-23-42-36-66-36v2zm64 35c34 41 50 107 39 162l2 1c11-56-5-123-39-164l-2 1zm39 162c-3 14-7 24-13 32s-13 13-21 16c-17 8-38 8-61 9v2c23-1 44-1 61-9 9-3 16-9 22-17s11-18 14-32l-2-1zm-95 57c-31 1-63 1-90 19l1 1c27-17 58-17 89-18v-2zm-90 19c-19 11-38 17-59 17v2c21 0 41-6 60-18l-1-1zm-59 17c-26 0-52-10-74-27l-1 1c22 18 49 28 75 28v-2zm-74-27c-10-8-18-17-24-26l-2 1c6 9 15 18 25 26l1-1zm-24-26c-6-10-9-19-10-27h-2c1 9 4 18 10 28l2-1zm-10-27c-3-23 5-42 24-61l-1-2c-20 20-28 40-25 63h2zm24-61c17-18 41-33 67-49l-1-1c-26 15-50 31-67 48l1 2zm67-49c30-18 60-37 84-61l-1-2c-24 25-54 43-84 62l1 1zm84-61c25-26 50-39 74-39v-2c-25 0-50 14-75 39l1 2zm74-39v-2 2zm-1-1h2-2zm1-2c-23 0-49 11-76 39l1 2c27-28 52-39 75-39v-2zm-76 39c-17 17-37 31-57 44-20 14-41 26-60 38-36 25-64 52-60 92h2c-4-39 23-65 60-90 18-13 39-25 59-38s40-27 57-44l-1-2zM423 153c2 18 15 39 36 56 20 16 47 28 76 28v-2c-29 0-55-12-75-28s-33-36-35-54h-2zm112 84c20 0 41-6 61-18l-1-2c-20 13-41 18-60 18v2zm61-18c16-11 35-15 54-17l29-1 28-1c18-2 34-4 48-13 13-8 23-22 27-46h-2c-4 23-14 36-27 45-12 8-29 10-46 12l-28 1-29 1c-19 2-38 6-55 17l1 2zm186-78c9-43 1-94-18-133-20-39-51-68-88-68v2c36 0 67 28 86 67s27 89 18 132h2zm9-350c21 0 41 7 59 20l1-2c-18-13-38-20-60-20v2zm59 20c16 12 31 29 44 52l2-1c-13-23-28-41-45-53l-1 2zm44 52c30 53 48 135 49 223h2c-1-89-19-170-49-224l-2 1zm49 223c2 84-13 159-38 200l2 1c25-42 40-117 38-201h-2zm-38 200a229 229 0 0 1-201 122v2c84 0 155-43 203-123l-2-1zM704 408c-66 0-139-27-204-77l-2 2c66 49 139 77 206 77v-2zm-204-77c-49-36-94-54-134-69l-1 1c40 16 85 34 133 70l2-2zm-134-69c-35-14-64-25-86-46-23-20-38-49-44-98h-2c6 50 22 79 44 100 23 20 53 32 87 45l1-1zM236 118c-5-40-3-71 4-95 8-25 21-43 39-57 19-14 42-24 69-33 27-8 57-15 91-22v-2c-34 7-65 14-92 22-27 9-50 19-69 33-18 15-32 33-40 58-7 25-9 56-4 96h2zM439-89c79-18 177-39 276-96l-1-2c-98 57-196 78-275 96v2zm276-96c27-16 53-24 76-24v-2c-24 0-50 8-77 24l1 2zm76-24v-2 2zm-1-1h2-2zm1-2c-23 0-49 7-78 24l1 1c28-16 54-23 77-23v-2zm-78 24c-131 75-259 88-351 113-45 13-82 29-105 58s-33 71-25 135h2c-8-64 2-105 24-134 23-28 59-44 105-57 91-25 219-38 351-113l-1-2zM232 118c5 40 16 66 31 86 16 20 36 33 60 44 47 22 108 36 174 86l2-1c-67-51-129-65-175-87-24-11-44-24-59-43s-26-46-31-85h-2zm265 216c64 48 137 77 207 77v-2c-69 0-142-28-205-76l-2 1zm207 77c78 0 152-36 204-123l-1-1a230 230 0 0 1-203 122v2zm204-123c18-30 31-76 36-129 5-52 4-111-5-166s-25-106-49-144c-25-37-57-61-99-61v2c41 0 73 23 97 60 24 38 40 89 49 143 9 55 10 114 5 166s-17 98-35 128l1 1zm-27-537c56 0 95 18 123 44s44 60 54 91l2-1c-10-31-27-65-55-91-28-27-68-45-124-45v2zm177 135c13 40 18 88 16 140l2 1c2-53-3-101-16-142l-2 1zm16 140c-2 50-11 102-25 153h2c14-50 23-103 25-152l-2-1zm-25 153a431 431 0 0 1-138 229l1 2c57-40 109-126 139-231h-2zM911 408c-63 44-127 66-195 66v2c69 0 133-22 196-66l-1-2zm-195 66c-95 0-185-41-272-81l-1 2c87 40 177 81 273 81v-2zm-272-81-66-29-1 2 66 29 1-2zm-66-29c-57-24-108-57-149-96l-2 1c41 39 93 73 150 97l1-2zm-149-96c-42-40-70-83-82-126l-2 1c12 43 41 86 82 126l2-1zm-82-126c-6-23-7-46-4-68h-2c-3 22-2 45 4 69l2-1zm-4-68c4-23 14-45 29-65l-2-1c-15 20-25 43-29 66h2zm29-65c67-90 152-151 269-191v-2A536 536 0 0 0 170 8l2 1zm269-191c104-36 236-56 425-67v-2c-190 11-321 31-425 67v2zm425-67h15v-2h-15v2zm15 0v-2 2zm1-1h-2 2zm-1-3-15 1v2l15-1v-2zm-15 1C522-234 307-179 169 7l2 1c137-185 351-240 695-258v-2zM169 7c-46 62-38 134 3 199 42 65 117 124 205 161l1-2c-88-36-163-95-204-160S125 70 171 8l-2-1zm208 360c53 23 108 50 164 72s114 38 175 38v-2c-60 0-118-16-174-38-57-22-111-49-164-72l-1 2zm339 110c63 0 129-18 197-66l-1-1c-68 48-133 65-196 65v2zm197-66c45-31 84-88 113-156s47-147 51-222-7-147-38-199c-31-53-82-87-158-87v2c75 0 125 34 156 86s42 123 38 198c-3 75-22 154-51 221-29 68-68 125-112 156l1 1zM786-347v2h2v-2h-2zm1 3c73 0 149 10 232 31v-2c-83-21-159-31-232-31v2zm232 31c69 18 123 52 159 101l2-1c-37-50-91-84-161-102v2zm159 101c34 45 53 102 57 169l2-1c-4-67-23-123-57-169l-2 1zm57 169c7 105-25 231-87 344l2 1c62-114 94-239 87-346l-2 1zm-87 344a507 507 0 0 1-231 230l1 2c84-34 169-118 232-231l-2-1zM917 531c-59 24-116 35-173 35v2c57 0 114-11 174-35l-1-2zm-173 35c-53 0-106-10-164-30v2c57 20 111 30 164 30v-2zm-164-30c-50-19-98-43-143-66l-1 2c46 23 93 47 144 66v-2zm-143-66c-62-31-120-61-180-73l-1 2c60 12 118 41 180 73l1-2zm-180-73c-62-13-123-54-170-115l-2 1c48 62 109 103 171 116l1-2zM87 282C42 225 13 154 7 89H5c6 66 35 137 80 194l2-1zM7 89C3 46 9 7 24-25l-1-1C7 6 1 46 5 89h2zM24-25c17-35 45-60 84-76l-1-2C68-87 40-61 23-26l1 1zm84-76c69-29 134-62 196-94l-1-2c-62 32-127 65-196 94l1 2zm196-94c149-77 290-149 483-149v-2c-194 0-335 72-484 149l1 2zm484-150v-2h-2v2h2zm-1-3c-138 0-249 37-355 85-53 25-105 52-159 80-53 27-108 54-167 78l1 2c59-24 114-51 167-79 54-27 106-54 159-79 106-48 217-85 354-85v-2zM106-105C53-83 22-43 9 5S1 109 19 164c37 110 127 214 237 236v-2C148 376 58 272 21 163 3 109-2 53 11 6c13-48 44-87 96-109l-1-1zm150 505c74 15 146 58 225 96 78 39 164 74 263 74v-2c-99 0-184-35-262-74-79-38-151-81-226-96v2zm488 170c53 0 111-10 174-35l-1-2c-62 25-120 35-173 35v2zm174-35c70-28 137-89 191-166 55-77 97-170 117-263 21-93 20-185-12-261-31-76-93-136-194-162l-1 2c101 26 162 85 193 160 32 76 33 168 12 261-20 92-62 185-116 262a457 457 0 0 1-191 165l1 2zm102-851c-87-23-163-32-233-32v2c70 0 146 9 232 31l1-2z" fill="#D2D6E7" mask="url(#i)"/><circle cx="7" cy="23" r="5" fill="#9FAAC4" stroke="#F9FAFC" stroke-width="4"/><circle cx="151" cy="42" r="5" fill="#9FAAC4" stroke="#F9FAFC" stroke-width="4"/><circle cx="235" cy="124" r="5" fill="#9FAAC4" stroke="#F9FAFC" stroke-width="4"/><circle cx="350" cy="42" r="5" fill="#9FAAC4" stroke="#F9FAFC" stroke-width="4"/><circle cx="445" cy="96" r="5" fill="#9FAAC4" stroke="#F9FAFC" stroke-width="4"/><circle cx="549" cy="56" r="5" fill="#9FAAC4" stroke="#F9FAFC" stroke-width="4"/><defs><linearGradient id="a" x1="515.5" y1="-54.5" x2="523" y2="203.5" gradientUnits="userSpaceOnUse"><stop stop-color="#fff" stop-opacity="0"/><stop offset=".5" stop-color="#fff"/><stop offset="1" stop-color="#fff" stop-opacity="0"/></linearGradient><linearGradient id="b" x1="515.5" y1="-54.5" x2="523" y2="203.5" gradientUnits="userSpaceOnUse"><stop stop-color="#fff" stop-opacity="0"/><stop offset=".5" stop-color="#fff"/><stop offset="1" stop-color="#fff" stop-opacity="0"/></linearGradient><linearGradient id="c" x1="515.5" y1="-54.5" x2="523" y2="203.5" gradientUnits="userSpaceOnUse"><stop stop-color="#fff" stop-opacity="0"/><stop offset=".5" stop-color="#fff"/><stop offset="1" stop-color="#fff" stop-opacity="0"/></linearGradient><linearGradient id="d" x1="515.5" y1="-54.5" x2="523" y2="203.5" gradientUnits="userSpaceOnUse"><stop stop-color="#fff" stop-opacity="0"/><stop offset=".5" stop-color="#fff"/><stop offset="1" stop-color="#fff" stop-opacity="0"/></linearGradient><linearGradient id="e" x1="515.5" y1="-54.5" x2="523" y2="203.5" gradientUnits="userSpaceOnUse"><stop stop-color="#fff" stop-opacity="0"/><stop offset=".5" stop-color="#fff"/><stop offset="1" stop-color="#fff" stop-opacity="0"/></linearGradient><linearGradient id="f" x1="515.5" y1="-54.5" x2="523" y2="203.5" gradientUnits="userSpaceOnUse"><stop stop-color="#fff" stop-opacity="0"/><stop offset=".5" stop-color="#fff"/><stop offset="1" stop-color="#fff" stop-opacity="0"/></linearGradient><linearGradient id="g" x1="515.5" y1="-54.5" x2="523" y2="203.5" gradientUnits="userSpaceOnUse"><stop stop-color="#fff" stop-opacity="0"/><stop offset=".5" stop-color="#fff"/><stop offset="1" stop-color="#fff" stop-opacity="0"/></linearGradient><linearGradient id="h" x1="515.5" y1="-54.5" x2="523" y2="203.5" gradientUnits="userSpaceOnUse"><stop stop-color="#fff" stop-opacity="0"/><stop offset=".5" stop-color="#fff"/><stop offset="1" stop-color="#fff" stop-opacity="0"/></linearGradient></defs></svg>