<svg width="90" height="74" fill="none" xmlns="http://www.w3.org/2000/svg"><path d="M82.38 12.02c-.65-.22-1.13.13-1.66.57.23-.2-.33.23-.3.23-.07.08-.15.16-.19.25l-.58-.23c-.1-.04-.4-.21-.65-.34-.54-.27-1.4.24-1.52.9a2.92 2.92 0 002.35 3.47c1.56.25 3.4-.89 3.6-2.77.05-.82-.25-1.77-1.05-2.08z" fill="#E7EAF3"/><path d="M79.14 13.86c-.36-.08-.62-.5-1.06-1.2-.12-.18-.25-.41-.42-.65a.5.5 0 01-.07-.4c-.02-.05-.04-.05-.06-.09a.54.54 0 01.17-.65c.81-.58 1.15-1.1 1.39-1.43.19-.26.36-.52.63-.55.36-.02.54.25 1.16 1.12.17.23.37.54.62.86.13.16.12.45-.03.62l-.36.51c-.94 1.27-1.33 1.8-1.82 1.83-.04.05-.1.04-.15.03z" stroke="#2F354D" stroke-width="1.5" stroke-linecap="round" stroke-linejoin="round"/><path d="M73.15 29c-.55 0-1.15-.47-1.15-1.27v-.14c0-.47.3-.7.45-.8.15-.14.4-.23.65-.18.25-.15.5-.15.75 0 .4.23.65.65.65 1.12 0 .7-.6 1.27-1.35 1.27zM85.15 53c-.55 0-1.15-.47-1.15-1.27v-.14c0-.47.3-.7.45-.8.15-.14.4-.23.65-.18.25-.15.5-.15.75 0 .4.23.65.65.65 1.12 0 .7-.6 1.27-1.35 1.27z" fill="#2F354D"/><path d="M77.6 42.77c1.59-.6 4.67-2.71 4.32-6.27" stroke="#000" stroke-width="1.5" stroke-linecap="round" stroke-linejoin="round"/><path d="M8.1 51.02c.65-.22 1.14.13 1.66.57-.22-.2.34.23.3.23.08.08.15.16.2.25l.57-.23c.11-.04.4-.21.65-.34.54-.27 1.4.24 1.53.9a2.92 2.92 0 01-2.35 3.47 3.19 3.19 0 01-3.6-2.77c-.06-.82.25-1.77 1.04-2.08z" fill="#E7EAF3"/><path d="M11.34 52.86c.36-.08.62-.5 1.06-1.2l.42-.65a.5.5 0 00.07-.4c.02-.05.05-.05.07-.09a.54.54 0 00-.18-.65c-.8-.58-1.14-1.1-1.38-1.43-.2-.26-.36-.52-.64-.55-.36-.02-.54.25-1.16 1.12-.16.23-.36.54-.62.86-.12.16-.11.45.03.62l.36.51c.94 1.27 1.34 1.8 1.83 1.83.04.05.09.04.14.03z" stroke="#2F354D" stroke-width="1.5" stroke-linecap="round" stroke-linejoin="round"/><path d="M5.15 38C4.6 38 4 37.53 4 36.73v-.14c0-.47.3-.7.45-.8.15-.14.4-.23.65-.18.25-.15.5-.15.75 0 .4.23.65.65.65 1.12 0 .7-.6 1.27-1.35 1.27zM20.92 58.5c-.44 0-.92-.38-.92-1.01v-.12c0-.37.24-.56.36-.64a.62.62 0 01.52-.15c.2-.1.4-.1.6 0 .32.2.52.53.52.9 0 .57-.48 1.02-1.08 1.02z" fill="#2F354D"/><path d="M10 19c-.33 1.67-.2 5.4 3 7" stroke="#000" stroke-width="1.5" stroke-linecap="round" stroke-linejoin="round"/><path d="M72.5 61.5c-.8 8.4-14.33 3.5-21 0-11-6 18-32 0-26s6.5-15-9-20.5S39.3 4 56 4c5 0 14.5 5.5 10 13.5s7.5 33.5 6.5 44z" fill="#E7EAF3"/><path d="M23.2 13.58s4.02 37.31 4.02 40.48c0 3.18-.67 3.83 0 4.38 11.2-.18 34.1-.44 36.12 0 2 .44 2.17-1.64 2-2.73-1.84-13.5-5.32-41.25-4.51-44.32.8-3.06-1.67-3.1-3.01-2.73-10.2 1.1-31.1 3.17-33.11 2.73-2-.44-1.84 1.28-1.5 2.2z" stroke="#2F354D" stroke-width="1.5"/><path d="M41 21.09c4.63-.53 9.3.5 11.5-1.59M35.5 37c1.5.5 4.5 0 7.5-1M35.5 29c1.5 0 7-1.5 10.5-1M47 44.6c1.5 0 7-1.5 10.5-1" stroke="#8AFFCE" stroke-width="1.5" stroke-linecap="round" stroke-linejoin="round"/><path d="M38.28 20.46l13.04-1.1M29.52 21.2l4.47-.4M33.87 36.37l8.74-.7M48.05 34.68l8.74-.7M45 43.8l11.96-.88M33.87 28.06l16.37-1.59M36 44.07l3.77-.23" stroke="#2F354D" stroke-width="1.5" stroke-linecap="round" stroke-linejoin="round"/><path d="M24 39.5c-3.6-1.2-.5 5 1 8 4.51 3 8.03 2.5 12 11 3.97 8.5 14 3.84 11.49 1.5S28.5 41 24 39.5z" fill="#8AFFCE"/><path d="M50.16 62.98L22.92 38.79m27.24 24.19C52 67.5 46.5 68 45 66.1m5.16-3.13C48.89 61.86 44 63 45 66.1M22.92 38.8l-5.68-2.39a.5.5 0 00-.64.68l2.7 5.41m3.62-3.7l-3.63 3.7m0 0L45 66.11" stroke="#2F354D" stroke-width="1.5" stroke-linecap="round" stroke-linejoin="round"/></svg>
