<svg width="198" height="104" fill="none" xmlns="http://www.w3.org/2000/svg"><path d="M27.21 35.74c-.32-2.33-.7-4.65-1.39-6.86-.21-.7-.75-1.03-1.28-1.03-.49-1.3-2.57-1.67-2.95.06-.32 1.35-.37 2.7-.27 4.05-1.39-.49-2.89-.81-3.96-.44-.8.27-1.28.92-1.66 1.57a4.07 4.07 0 00-1.02-1.13c-.26-.22-.7-.06-.58.32.1.27.16.54.26.81-.05-.05-.05-.1-.1-.16a23.19 23.19 0 00-1.98-2.7c-.22-.22-.49 0-.43.27.21 1.13.59 2.21.96 3.3.32 1.02.64 2.1 1.18 3.07.59.97 2.25.49 2.14-.54.38-.16.64-.32.96-.6.33-.32.49-1.02.86-1.29.91-.65 4.07 1.03 5.03 1.4.54.22 1.02.06 1.4-.27.05.27.1.54.1.76-1.92 0-3.8-1.46-5.73-.65-1.33.54-2.03 2.16-3.16 3.08-.48.38.06 1.03.54.97 1.77-.27 2.46-2.27 4.5-1.62 1.6.49 3.8 1.68 5.51.92 1.23-.7 1.23-2.1 1.07-3.3z" fill="#E7EAF3"/><path d="M18.36 29.43c-.16 1.04-2.44.9-3.56.7 1.05.63 2.9 2.3 1.88 3.98-1.03 1.67.43 1.82 1.28 1.69.4-.7 1.52-2.01 2.86-1.7 1.68.4 2.08 1.7 3.86 1.7 1.77 0-1.1-3.38-1.78-3.78-.7-.4.69-2.59 1.78-3.58 1.08-1-.4-.8-1.78-.7-1.38.1-2.37-2.18-2.77-3.28-.4-1.1-1.18-.3-1.77 0-.6.3.2 3.68 0 4.97z" fill="#6EDEAF"/><path d="M16.15 35.78h0l-.11-.97h0c-.09-.73-.17-1.46-.21-2.18a.75.75 0 00-.47-.66l-.44-.17h0a14.57 14.57 0 01-.44-.16h0c-1.08-.4-2.17-.8-3.26-1.16h0a50.43 50.43 0 00-.35-.12s-.02-.02-.02-.07v-.01l.06-.01c1.98-.45 3.89-1.11 5.77-1.81.27-.1.46-.35.49-.63l.16-1.62h0l.04-.41s0 0 0 0c.14-1.56.3-3.16.54-4.68 0 0 0 0 0 0a.07.07 0 01.03-.03s0 0 0 0h.08c.02.01.04.02.05.05.3.4.58.8.87 1.21h0l.89 1.25.37.52h0c.49.66.98 1.33 1.44 2 .12.19.32.3.54.33 1.05.1 2.1.26 3.12.42h0l2.08.33h.03a.75.75 0 00.03.1l-.03.03a.7.7 0 00-.04.04l-.7.64c-.68.64-1.4 1.27-2.18 1.84a.75.75 0 00-.27.84 88.56 88.56 0 001.35 3.71v.01h0l.43 1.11h0v.01l.48 1.24h0v.03a.2.2 0 01-.02.06s0 0 0 0h-.01s0 0 0 0a41.92 41.92 0 01-5.42-2.22.75.75 0 00-.89.18 57.8 57.8 0 00-3.38 4.25.8.8 0 01-.18.08l-.03-.01a.12.12 0 01-.05-.04 37.7 37.7 0 00-.23-2.27v-.01l-.12-1.04zm.7 3.54s0 0 0 0h0zM3.92 56.22c.12 1.91.53 5.98 1.15 6.9M1 59.94c1.92.04 4.83 0 6.37-.27M190.14 58.52c-.88 1.7-2.63 5.4-2.58 6.5M185.72 60.2a41.08 41.08 0 005.6 3.06" stroke="#2F354D" stroke-width="1.5" stroke-linecap="round" stroke-linejoin="round"/><path fill-rule="evenodd" clip-rule="evenodd" d="M86.48 32.14c-1.8-3.64-4.61-6.29-7.38-8.9-3.62-3.41-7.19-6.78-8.43-12.25-.63-2.85-3.86-3-5.6-1.5-2.75-.95-6.76-.24-8.33 2.7-1.57 2.92.72 5.73 2.57 8 .2.24.4.47.57.7 4.25 5.31 10.31 9.59 16.37 13.07-1.19.1-2.4.32-3.6.54-.84.16-1.67.31-2.46.41-2.6.32-4.48.8-6.6 2.38-.4.32-.32 1.03.3 1.03 1.5.05 3.22.4 5 .78 3.9.8 8.13 1.68 10.98-.39a2.62 2.62 0 001.18-2.13c.12.04.22.1.32.15.1.06.2.12.31.16 3.23 1.59 6.3-1.58 4.8-4.75zM63.6 14.25c.23-.15.5-.34.77-.4.13.56.3 1.08.49 1.63a96.54 96.54 0 01.14.42l-.42-.4c-.4-.4-.78-.77-1.08-1.18l.04-.03.06-.04z" fill="#E7EAF3"/><path d="M138.18 63.8v.02c.15 4.73.3 9.46.56 14.18.06 1.26.2 2.66.34 4.13.73 7.42 1.64 16.77-5.38 20.34-3.15 1.5-6.92-.31-7-4.04-.16-6.41-.4-12.83-.71-19.24-.1-2.18-.16-4.37-.22-6.56-.08-2.92-.15-5.84-.33-8.73l-4.17.05c-4.85.07-8.16.12-14.09-.13-.14 1.71-.35 3.36-.56 5.05l-.07.57a159.3 159.3 0 00-1.18 16.16c-.02 1.37.01 2.78.05 4.22.09 3.54.18 7.19-.6 10.51-.24 1.03-1.57.87-1.89 0-1.49-3.8-1.75-8.43-2-12.68l-.12-2.05c-.32-5.15-.4-10.22-.24-15.36l.12-3.73.12-3.72a3.28 3.28 0 010-4.83c-.04-.51-.06-1.03-.08-1.54-.02-.52-.04-1.03-.08-1.55-.07-.89-.18-1.81-.3-2.74-.45-3.55-.92-7.27 1.32-10.09.63-.8 2.28-1.03 3.07-.4 3.46 2.67 3.27 7.42 3.1 11.59 0 .29-.02.57-.03.85-.04.44-.06.9-.08 1.35-.02.45-.04.9-.08 1.34 6.22-.35 10.16-.4 15.12-.46 1.83-.02 3.79-.05 6.05-.1h.24c-.24-4.59-.4-9.1-.47-13.7-.06-3.87 3.8-5 6.37-3.54 1.41-1.05 4.56-1.72 7.37-2.31 1.75-.38 3.37-.72 4.35-1.11a90.06 90.06 0 017.2-2.48l1.7-.53c.86-.24 1.18.95.55 1.34a57.95 57.95 0 01-7.95 5.31c-2.22 1.23-7.9 2.65-11.04 3.13l.02.2c.57 7.07.8 14.18 1.02 21.28zM82.95 56.35c1.03.25 1.97.63 2.75 1.21 2.28 1.67 1.96 4.84-.8 5.87-2.35.87-5.3.31-7.99-.2-.72-.13-1.41-.26-2.07-.36l-.16-.02-.18-.03-.37-.05c-2.57-.36-5.4-.75-7.56-2.28a.72.72 0 01-.25-.25 6.8 6.8 0 01-.7-.22c-1.33-.48-2.04-2.22-.86-3.33 3.4-3.18 9.74-3.17 14.28-3.17h.6c1.93 0 3.02 1.33 3.31 2.83zM133.16 21.61c1.25.56 2.48 1.29 3.84 2.14 3.23 2.05 6.38-2.46 3.94-5.07-6.14-6.81-16.6-4.44-24.24-2.06-5.82 1.82-17.39 5.46-18.65 12.59-.08.32.24.71.63.63 1.26-.4 2.44-1.05 3.6-1.75-1.85 1.66-3.29 3.6-3.68 5.8-.08.63.24 1.26.95 1.26 2.93 0 6.05-1.53 9.06-3A43.58 43.58 0 01130 27.4c3.34.1 4.39-3.48 3.15-5.79z" fill="#E7EAF3"/><path d="M139.84 26.91c-.79-.7-2.05-1.26-3.07-.79-2.1.83-4.66 1.46-7.34 2.11-6.56 1.61-13.85 3.4-16.98 8.74-.31.56.08 1.5.79 1.43 2.3-.23 4.6-.85 6.88-1.47 1.69-.46 3.38-.92 5.08-1.23 4.49-.79 8.9-1.74 13.22-3.4 1.34-.48 2.36-1.58 2.36-3.09-.08-1.03-.23-1.58-.94-2.3z" fill="#E7EAF3"/><path d="M97.87 40.75c-.16-1.77-5.78-.74-8.57 0 .73 6.68 1.75 20.73 0 23.46-2.2 3.4 1.8 10.63 2.2 15.24.39 4.61-.4 15.84-2.2 20.45-1.8 4.62 8.57 1.6 9.76 0 1.2-1.6-1-56.95-1.2-59.15zM150.12 18.5l-4.42 2.05c-1.7 2.11-6.28 5.87-7.5 7.92-1.53 2.57-8.3 4.74-10.84 4.74-2.55 0-17.32 2.05-19.7 4.1-2.38 2.05 4.93 1.02 6.63 1.02 1.7 0 15.96-.34 21.22 0 5.27.35 3.91-1.7 11.21-3.07 7.3-1.37 5.27-2.05 6.29-4.28 1.02-2.22-7.3-1.2-7.3-1.54 0-.27 2.94-7.4 4.41-10.94z" fill="#6EDEAF"/><path d="M58.55 57.24h30.01M100.19 56.83h27.5M58.64 102.66c-.52-14.46-.67-44.38-.5-58.84M58.64 102.71h68.22c.29-14.88 0-30 0-45.04 0-1.83 1.84-.74 1.84-2.64-.08-.87-.79-11.05-.79-15.4M139.78 39.2c-.83 18.89-.22 38.8.85 59.52M127.28 56.83c3.25-.41 7.57.27 10.84.42M88.25 39.9c.58 19.94.92 42.72 1.52 62.67M100.19 102.57c-.52-21.14-.96-42.64-1.25-63.79" stroke="#2F354D" stroke-width="1.5" stroke-linecap="round" stroke-linejoin="round"/><path d="M48.92 50.53C55.7 42.3 68.7 38.78 84.35 38.78h55.1" stroke="#2F354D" stroke-width="1.5" stroke-linecap="round" stroke-linejoin="round"/><path d="M49.06 50.53v-7.62c-1.8 0-8.47.48-8.81-2.06-1-5.5 18.93-12.02 23.26-13.4" stroke="#2F354D" stroke-width="1.5" stroke-linecap="round" stroke-linejoin="round"/><path d="M83.25 38.6c-.24-1.75-3.58-3.37-7.75-5.11-8.89-3.8-21.09-8.95-21.09-21.55 0-5.54 5.04-11.27 12.9-10.93a32.28 32.28 0 0121.73 9.59c6.6 6.8 11.35 18.29 9.97 28" stroke="#2F354D" stroke-width="1.5" stroke-linecap="round" stroke-linejoin="round"/><path d="M55.28 9.5a19.77 19.77 0 019.36-2.54c9.84 0 24.87 13.46 24.87 25.1 0 1.98-.4 4.12-1.26 6.5M88.52 30.8C81.9 30.18 68.92 22.43 69.76 9M96.02 19.07c8.26-8.87 18.83-12.28 32.05-12.28 16.13 0 17.4 9.43 17.4 12.28 0 8-12.52 11.09-24.56 14.02-7 1.74-13.8 3.17-16.4 5.63" stroke="#2F354D" stroke-width="1.5" stroke-linecap="round" stroke-linejoin="round"/><path d="M98.94 30.8c2.28-3.64 15.83-13.63 28.66-13.63 4.33 0 10.21 2.35 10.21 9.9M151.46 17.38c-2.58 3.43-2.97 9.17-6 12.23 2.13-.16 5.82-.4 10.7 1.03.8.16 1.14 1.47.48 1.98-.4.31-1.8 2.03-21.32 6.15M145.62 19.9a46.36 46.36 0 005.9-2.4M140.64 98.53c-.33 5.32-9.75 4.19-14.9 4.19" stroke="#2F354D" stroke-width="1.5" stroke-linecap="round" stroke-linejoin="round"/><path d="M197.04 30.36a3.9 3.9 0 00-5.1-1.31c-1.72.9-3.22 2.33-4.72 3.59-1.5 1.26-2.64 2.28-3.41 4.08-.58 1.32.67 2.82 1.92 2.9 2 .11 3.54-.56 5.34-1.29 1.88-.81 3.67-1.46 5.33-2.63 1.65-1.16 1.72-3.85.64-5.34z" fill="#E7EAF3"/><path d="M186.39 36.76a.73.73 0 00-.09.2s0 0 0 0 0 .02-.03.03a.29.29 0 01-.16.03h-.17c-.13-.06-.28-.2-.3-.47-.18-2.86-.87-4.56-1.9-5.58-1-.98-2.2-1.22-3.07-1.39l-.1-.02c-.49-.11-1.1-.33-1.59-.66-.5-.33-.73-.68-.76-1.02-.02-.28.22-.54.46-.55 4.87-.27 8.09-3.78 9.51-5.96.07-.1.12-.23.13-.37.03-.62.16-1.38.4-1.93.26-.58.52-.7.75-.7.35.03.44.14.48.2.06.09.11.29.09.64-.06.7-.41 1.56-.67 2.05a.74.74 0 00-.09.35c0 3.13 1.92 6.14 4.86 7.18.24.1.37.36.37.48-.02.29-.18.46-.4.51h-.02c-3.64.9-5.96 4.16-7.7 6.98z" stroke="#2F354D" stroke-width="1.5" stroke-linecap="round" stroke-linejoin="round"/><path d="M174.54 48.5c-3.17-2.96-7.52-.03-9.76 2.61a20.5 20.5 0 00-2.18 3.07c-.75 1.3-.74 2.65-.75 4.16.03.93.81 1.9 1.91 1.63 1.2-.35 2.28-.46 3.4-.98 1.12-.6 2.24-1.21 3.44-1.65 1.36-.5 2.74-1.26 3.8-2.3a4.58 4.58 0 00.14-6.54z" fill="#E7EAF3"/><path d="M164.18 56.3a.7.7 0 00-.02-.07v-.36l.06-.7v-.08c.03-.21.05-.43.06-.65.04-.48.05-1-.05-1.51a2.98 2.98 0 00-.74-1.49 4.2 4.2 0 00-1.7-1.05.61.61 0 01-.36-.56c.02-.3.17-.47.4-.52h.03c2.18-.57 3.59-2.52 4.6-4.13l.01-.02c.1-.18.35-.28.56-.24.15.04.32.19.35.47.08 1.58.43 2.6 1.05 3.23.56.59 1.27.74 1.72.84a24.79 24.79 0 01.24.04c.7.04 1.34.56 1.44 1.13 0 .28-.23.52-.46.54-2.25.1-3.62 1.85-4.57 3.21l-.4.58c-.33.49-.62.9-.91 1.24-.41.48-.65.56-.8.55a.6.6 0 01-.5-.44z" stroke="#2F354D" stroke-width="1.5" stroke-linecap="round" stroke-linejoin="round"/><path d="M23.6 87.1c3.17-2.96 7.51-.02 9.76 2.62.8.96 1.53 1.93 2.18 3.07.74 1.3.74 2.64.74 4.16-.03.92-.8 1.9-1.9 1.62-1.2-.35-2.29-.45-3.4-.97-1.12-.6-2.25-1.22-3.44-1.65a11.03 11.03 0 01-3.8-2.3 4.58 4.58 0 01-.14-6.55z" fill="#E7EAF3"/><path d="M33.88 87.72a.75.75 0 01.12 1.17 10.41 10.41 0 00-2.66 3.86.75.75 0 01-1.2.3 17.72 17.72 0 00-4.18-2.88.75.75 0 01-.09-1.3 7.63 7.63 0 003.08-3.97.75.75 0 011.25-.27 20.8 20.8 0 003.68 3.09zM46.23 73.65c-1.8-.4-3.54-1.07-5.3-1.65a.84.84 0 01-.55-.97c.3-1.42.53-2.86.46-4.34h0l-3.76-1.72a.85.85 0 01-.45-1c.31-1.09.51-2.19.67-3.28h0l.23-1.33c-1.69-.63-3.37-1.3-5.05-1.94a.84.84 0 01-.55-.8c.04-1.87.18-3.58.51-5.27M176.05 89.26c-1.79.45-3.64.65-5.46.94a.84.84 0 01-.95-.62c-.37-1.4-.82-2.78-1.56-4.07h0l-4.13.18a.85.85 0 01-.86-.69 24.42 24.42 0 00-.9-3.23h0c-.14-.43-.25-.86-.4-1.28-1.79.2-3.58.37-5.38.57a.84.84 0 01-.84-.47 29.42 29.42 0 01-1.95-4.92" stroke="#2F354D" stroke-width="1.5" stroke-linecap="round" stroke-linejoin="round"/></svg>
