<svg width="24" height="24" fill="none" xmlns="http://www.w3.org/2000/svg"><rect width="24" height="24" rx="12" fill="#DCF6EF"/><path d="M8.25 9.51c0-.3.25-.56.56-.56h6.47a.56.56 0 110 1.12H8.8a.56.56 0 01-.56-.56zM8.81 12a.56.56 0 100 1.13h3.2a.56.56 0 000-1.13h-3.2z" fill="#14C393"/><path fill-rule="evenodd" clip-rule="evenodd" d="M6 7.71C6 6.71 6.9 6 7.87 6h8.23c.96 0 1.87.7 1.87 1.71v8.56c0 1.01-.9 1.71-1.87 1.71H7.87c-.96 0-1.87-.7-1.87-1.71V7.7zm1.13 8.56v-.48h9.72v.48c0 .26-.27.59-.75.59H7.87c-.48 0-.75-.33-.75-.6zm0-1.6h9.72V7.7c0-.26-.27-.58-.75-.58H7.87c-.48 0-.75.32-.75.58v6.95z" fill="#14C393"/></svg>

