<svg width="132" height="24" fill="none" xmlns="http://www.w3.org/2000/svg"><path d="M10.2 20.88a7.21 7.21 0 0 0 3.45.96c.73 0 1.34-.18 1.85-.55.51-.36.77-.96.77-1.78 0-.7-.16-1.26-.47-1.7-.3-.45-.7-.85-1.18-1.2a12.4 12.4 0 0 0-1.54-.99 8.23 8.23 0 0 1-1.54-1.07 4.56 4.56 0 0 1-1.64-3.67c0-1.41.38-2.48 1.14-3.2a4.55 4.55 0 0 1 3.24-1.07c.9 0 1.69.09 2.35.25.67.17 1.24.4 1.73.68l-.63 2a6.88 6.88 0 0 0-3.16-.77c-.8 0-1.37.17-1.74.5-.36.33-.54.85-.54 1.56 0 .55.15 1.02.46 1.4.3.4.7.75 1.18 1.07.47.32.99.65 1.54.98a8.8 8.8 0 0 1 1.54 1.18c.48.45.87 1 1.18 1.62.31.63.47 1.42.47 2.37 0 .62-.1 1.21-.3 1.76-.2.56-.5 1.04-.92 1.45-.4.4-.91.73-1.52.98-.61.24-1.32.36-2.14.36-.98 0-1.82-.1-2.52-.28-.71-.19-1.3-.44-1.8-.75l.73-2.09zM21.5 8c.65-.4 1.42-.7 2.34-.92.92-.22 1.89-.34 2.9-.34.94 0 1.68.14 2.25.42.56.28 1 .65 1.32 1.13.32.47.53 1.01.63 1.62.1.61.15 1.25.15 1.91 0 1.33-.03 2.62-.08 3.88a79.22 79.22 0 0 0-.09 3.59c0 .84.03 1.62.09 2.34.05.71.16 1.4.32 2.04h-1.88l-.58-1.96h-.13a4.45 4.45 0 0 1-1.45 1.5c-.63.41-1.49.62-2.57.62a3.77 3.77 0 0 1-2.91-1.24 4.9 4.9 0 0 1-1.14-3.44c0-.95.16-1.74.48-2.39.32-.64.77-1.16 1.35-1.56.58-.4 1.27-.68 2.07-.84.8-.17 1.7-.25 2.69-.25h.65l.7.03c.06-.68.1-1.3.1-1.82 0-1.26-.2-2.15-.57-2.66-.37-.5-1.05-.76-2.03-.76-.62 0-1.29.1-2 .28-.73.19-1.34.43-1.82.72L21.5 8zm7.14 8.03a13.56 13.56 0 0 0-1.31-.06c-.53 0-1.04.04-1.54.13s-.96.24-1.35.47c-.4.22-.7.52-.93.9a2.7 2.7 0 0 0-.35 1.42c0 .88.22 1.57.64 2.06.43.48.98.73 1.66.73.91 0 1.63-.23 2.13-.67.5-.44.85-.93 1.05-1.46v-3.52zM43.45 23.6V13.48c0-1.66-.2-2.86-.58-3.6-.39-.74-1.08-1.11-2.08-1.11a3.1 3.1 0 0 0-2.19.8c-.57.52-1 1.18-1.26 1.95V23.6h-2.38V7h1.72l.43 1.77h.1A5.01 5.01 0 0 1 41.5 6.6c.7 0 1.33.1 1.88.3.54.2 1 .54 1.36 1.01a5 5 0 0 1 .83 1.9c.18.8.28 1.81.28 3.03V23.6h-2.4zM47.86 7h2.02V3.73l2.39-.76v4.05h3.58v2.16h-3.58v9.88c0 .98.12 1.68.35 2.11.23.43.61.65 1.14.65.45 0 .83-.05 1.15-.15.32-.1.67-.23 1.04-.38l.47 1.89a7.72 7.72 0 0 1-3.45.8c-1.1 0-1.9-.37-2.38-1.08-.47-.72-.7-1.89-.7-3.5V9.17h-2.03V7zM58.44 1.97c0-.58.17-1.06.5-1.42.32-.37.76-.55 1.3-.55.53 0 .97.18 1.32.53.36.35.53.83.53 1.44 0 .58-.17 1.04-.53 1.37-.35.33-.8.5-1.33.5s-.97-.18-1.3-.52c-.32-.34-.49-.79-.49-1.35zm.6 5.04h2.39V23.6h-2.39V7zM73.6 23.6v-9.86c0-.88-.03-1.64-.09-2.27a4.93 4.93 0 0 0-.35-1.54c-.17-.4-.42-.7-.73-.88a2.35 2.35 0 0 0-1.22-.28c-.76 0-1.4.3-1.91.88a4.86 4.86 0 0 0-1.08 2V23.6h-2.39V7h1.7l.42 1.77h.1a5.84 5.84 0 0 1 1.66-1.56c.64-.4 1.46-.6 2.46-.6.84 0 1.53.18 2.07.55.54.36.97 1.01 1.28 1.94.4-.77.97-1.38 1.7-1.83a4.67 4.67 0 0 1 2.45-.66c.73 0 1.35.1 1.87.28.52.2.94.52 1.26 1 .32.47.56 1.1.71 1.89.16.78.24 1.77.24 2.97V23.6h-2.4V13.05a9.4 9.4 0 0 0-.4-3.22c-.28-.7-.92-1.06-1.92-1.06-.84 0-1.5.26-2 .78s-.85 1.22-1.05 2.1V23.6H73.6zM97.36 22.47c-.53.49-1.2.86-2.02 1.13-.82.26-1.69.4-2.6.4a5.14 5.14 0 0 1-4.6-2.37 8.15 8.15 0 0 1-1.08-2.74 16.82 16.82 0 0 1-.35-3.59c0-2.83.52-4.98 1.56-6.47a5.08 5.08 0 0 1 4.41-2.22c.62 0 1.23.08 1.84.23.61.16 1.16.47 1.64.93.5.47.88 1.12 1.18 1.96.3.84.45 1.94.45 3.29 0 .37-.02.78-.05 1.2l-.11 1.35H89.2c0 .95.07 1.81.23 2.59.15.77.4 1.43.73 1.97.33.55.76.96 1.28 1.26.52.3 1.16.45 1.94.45a4.98 4.98 0 0 0 3.12-1.13l.86 1.76zm-1.86-8.9c.05-1.65-.19-2.87-.7-3.64a2.38 2.38 0 0 0-2.09-1.16 2.9 2.9 0 0 0-2.42 1.16c-.6.77-.95 1.99-1.06 3.65h6.27zM109.63 23.6V13.48c0-1.66-.2-2.86-.58-3.6-.39-.74-1.08-1.11-2.07-1.11a3.1 3.1 0 0 0-2.2.8c-.57.52-.99 1.18-1.25 1.95V23.6h-2.4V7h1.73l.43 1.77h.1a5.01 5.01 0 0 1 4.28-2.16c.71 0 1.34.1 1.88.3.54.2 1 .54 1.36 1.01a5 5 0 0 1 .83 1.9c.19.8.28 1.81.28 3.03V23.6h-2.39zM114.05 7h2.02V3.73l2.4-.76v4.05h3.58v2.16h-3.59v9.88c0 .98.12 1.68.35 2.11.23.43.61.65 1.14.65.45 0 .83-.05 1.15-.15.32-.1.67-.23 1.05-.38l.46 1.89a7.73 7.73 0 0 1-3.45.8c-1.1 0-1.9-.37-2.37-1.08-.48-.72-.72-1.89-.72-3.5V9.17h-2.02V7zM0 14.73c0-.59.16-1.06.5-1.43.32-.36.75-.54 1.29-.54.53 0 .98.17 1.33.53.35.35.53.83.53 1.44 0 .58-.18 1.04-.53 1.37-.35.32-.8.49-1.33.49-.54 0-.97-.17-1.3-.51-.33-.34-.49-.8-.49-1.35zM127.42 14.73c0-.59.16-1.06.5-1.43.32-.36.75-.54 1.29-.54.53 0 .98.17 1.33.53.35.35.53.83.53 1.44 0 .58-.18 1.04-.53 1.37-.35.32-.8.49-1.33.49-.54 0-.97-.17-1.3-.51-.33-.34-.5-.8-.5-1.35z" fill="#181B2B"/></svg>
