<svg width="17" height="19" fill="none" xmlns="http://www.w3.org/2000/svg"><path d="M6.74 10c.03.03.05.03.08.04-.03 0-.04-.01-.08-.03z" fill="#181B2B"/><path d="M13.8 6.19A4.79 4.79 0 007.35 9.3l-.28.76-.15-.02-.1.01.13.07-.13-.06c-.23-.08-.67-.28-.71-.3l-.84-.34c-1.99-.8-3.92 1.2-3.98 3.05-.12 3.6 3.5 6.03 6.73 6.21 3.8.21 6.6-2.34 8.08-5.66 1.15-2.63.55-5.63-2.3-6.83z" fill="#14C393"/><path d="M7.5 15.36c-.31 0-.61-.12-.84-.34-1.12-1.04-2.22-2.1-3.32-3.17-.97-.94-1.96-1.9-2.94-2.81a1.26 1.26 0 01-.06-1.79l.56-.6c1.65-1.76 3.35-3.6 5.12-5.32C6.48.88 7.2.85 7.7 1.28c1.2 1.04 2.36 2.15 3.48 3.21.86.82 1.75 1.67 2.64 2.48.52.46.56 1.24.11 1.76-.85.98-1.7 1.93-2.55 2.88-.98 1.1-1.97 2.2-2.93 3.31-.23.26-.54.41-.88.43l-.06.01zm-4.48-7.3l2.05 1.98 2.34 2.25 2.11-2.37L11.24 8 9.46 6.3c-.83-.79-1.67-1.6-2.53-2.36a200 200 0 00-3.91 4.11z" fill="#2F354D"/></svg>
