<svg width="16" height="14" viewBox="0 0 16 14" fill="none" xmlns="http://www.w3.org/2000/svg">
<path d="M0.727273 0C0.325611 0 0 0.324908 0 0.725703C0 1.1265 0.325611 1.45141 0.727273 1.45141H15.2727C15.6744 1.45141 16 1.1265 16 0.725703C16 0.324908 15.6744 0 15.2727 0H0.727273Z" fill="#181B2B"/>
<path d="M0.727273 4.06265C0.325611 4.06265 0 4.38756 0 4.78835C0 5.18915 0.325611 5.51405 0.727273 5.51405H15.2727C15.6744 5.51405 16 5.18915 16 4.78835C16 4.38756 15.6744 4.06265 15.2727 4.06265H0.727273Z" fill="#181B2B"/>
<path d="M0.727273 12.5486C0.325611 12.5486 0 12.8735 0 13.2743C0 13.6751 0.325611 14 0.727273 14H6.54545C6.94712 14 7.27273 13.6751 7.27273 13.2743C7.27273 12.8735 6.94712 12.5486 6.54545 12.5486H0.727273Z" fill="#181B2B"/>
<path d="M12.3636 6.74297C12.7653 6.74297 13.0909 7.06787 13.0909 7.46867V9.64578H15.2727C15.6744 9.64578 16 9.97069 16 10.3715C16 10.7723 15.6744 11.0972 15.2727 11.0972H13.0909V13.2743C13.0909 13.6751 12.7653 14 12.3636 14C11.962 14 11.6364 13.6751 11.6364 13.2743V11.0972H9.45455C9.05289 11.0972 8.72727 10.7723 8.72727 10.3715C8.72727 9.97069 9.05289 9.64578 9.45455 9.64578H11.6364V7.46867C11.6364 7.06787 11.962 6.74297 12.3636 6.74297Z" fill="#181B2B"/>
<path d="M0.727273 8.2743C0.325611 8.2743 0 8.59921 0 9C0 9.40079 0.325611 9.7257 0.727273 9.7257H6.54545C6.94712 9.7257 7.27273 9.40079 7.27273 9C7.27273 8.59921 6.94712 8.2743 6.54545 8.2743H0.727273Z" fill="#181B2B"/>
</svg>
