<svg width="7" height="7" viewBox="0 0 7 7" fill="none" xmlns="http://www.w3.org/2000/svg">
<path fill-rule="evenodd" clip-rule="evenodd" d="M0.146447 5.14669C-0.0488155 5.34195 -0.0488155 5.65853 0.146447 5.85379C0.341709 6.04905 0.658291 6.04905 0.853553 5.85379L3.00009 3.70725L5.14805 5.85521C5.34332 6.05048 5.6599 6.05048 5.85516 5.85521C6.05042 5.65995 6.05042 5.34337 5.85516 5.14811L3.7072 3.00015L5.85379 0.853553C6.04905 0.658291 6.04905 0.341709 5.85379 0.146447C5.65853 -0.0488156 5.34195 -0.0488156 5.14668 0.146447L3.00009 2.29304L0.854922 0.147869C0.65966 -0.047393 0.343077 -0.047393 0.147815 0.147869C-0.0474468 0.343131 -0.0474468 0.659714 0.147815 0.854976L2.29299 3.00015L0.146447 5.14669Z" fill="#7A859E"/>
</svg>

