<svg width="16" height="16" viewBox="0 0 16 16" fill="none" xmlns="http://www.w3.org/2000/svg">
<path fill-rule="evenodd" clip-rule="evenodd" d="M0 2.22131C0 1.27094 0.760035 0.5 1.69697 0.5H14.303C15.24 0.5 16 1.27094 16 2.22131V10.0902C16 11.0405 15.24 11.8115 14.303 11.8115H9.38762L5.0616 15.3374C4.84345 15.5152 4.54407 15.5502 4.29172 15.4275C4.03936 15.3048 3.87879 15.0461 3.87879 14.7623V11.8115H1.69697C0.760035 11.8115 0 11.0405 0 10.0902V2.22131ZM1.69697 1.97541C1.56336 1.97541 1.45455 2.08578 1.45455 2.22131V10.0902C1.45455 10.2257 1.56336 10.3361 1.69697 10.3361H4.60606C5.00772 10.3361 5.33333 10.6663 5.33333 11.0738V13.2232L8.6761 10.4987C8.80525 10.3934 8.96596 10.3361 9.13164 10.3361H14.303C14.4366 10.3361 14.5455 10.2257 14.5455 10.0902V2.22131C14.5455 2.08578 14.4366 1.97541 14.303 1.97541H1.69697Z" fill="#9FAAC4"/>
</svg>
