<svg width="17" height="16" viewBox="0 0 17 16" fill="none" xmlns="http://www.w3.org/2000/svg">
<path fill-rule="evenodd" clip-rule="evenodd" d="M6.4321 0.90935C7.52754 -0.303115 9.47252 -0.303118 10.568 0.909348L15.5134 6.38312C16.4412 7.40996 16.4201 8.9507 15.4647 9.95335L10.5192 15.1432C9.43058 16.2856 7.56948 16.2856 6.48083 15.1432L1.53536 9.95335C0.579924 8.9507 0.558897 7.40996 1.48663 6.38312L6.4321 0.90935ZM9.44 1.86872C8.94207 1.3176 8.05799 1.3176 7.56006 1.86873L2.6146 7.34249C2.1929 7.80924 2.20246 8.50958 2.63675 8.96532L7.58221 14.1551C8.07705 14.6744 8.92301 14.6744 9.41785 14.1551L14.3633 8.96533C14.7976 8.50958 14.8072 7.80924 14.3855 7.34249L9.44 1.86872Z" fill="#FF5B5B"/>
<path d="M8.49994 4.5C8.91416 4.5 9.24994 4.83579 9.24994 5.25V8.5C9.24994 8.91422 8.91416 9.25 8.49994 9.25C8.08573 9.25 7.74994 8.91422 7.74994 8.5V5.25C7.74994 4.83579 8.08573 4.5 8.49994 4.5Z" fill="#FF5B5B"/>
<path d="M8.49994 12C9.05223 12 9.49994 11.5523 9.49994 11C9.49994 10.4477 9.05223 10 8.49994 10C7.94766 10 7.49994 10.4477 7.49994 11C7.49994 11.5523 7.94766 12 8.49994 12Z" fill="#FF5B5B"/>
</svg>
