<svg width="16" height="12" viewBox="0 0 16 12" fill="none" xmlns="http://www.w3.org/2000/svg">
<path fill-rule="evenodd" clip-rule="evenodd" d="M8 3.75C6.75736 3.75 5.75 4.75736 5.75 6C5.75 7.24264 6.75736 8.25 8 8.25C9.24264 8.25 10.25 7.24264 10.25 6C10.25 4.75736 9.24264 3.75 8 3.75ZM7.25 6C7.25 5.58579 7.58579 5.25 8 5.25C8.41421 5.25 8.75 5.58579 8.75 6C8.75 6.41421 8.41421 6.75 8 6.75C7.58579 6.75 7.25 6.41421 7.25 6Z" fill="#181B2B"/>
<path fill-rule="evenodd" clip-rule="evenodd" d="M15.0461 5.425C15.3244 5.76272 15.324 6.23695 15.0452 6.57427C13.9191 7.93648 10.8837 11.25 8.00002 11.25C5.11632 11.25 2.08091 7.93648 0.954886 6.57427C0.676046 6.23695 0.675622 5.76272 0.95398 5.425C2.07711 4.06234 5.10494 0.75 8.00002 0.75C10.8951 0.75 13.9229 4.06234 15.0461 5.425ZM11.2556 3.75188C12.1947 4.49647 13.0115 5.35839 13.5667 5.99857C13.0099 6.63908 12.1906 7.50194 11.25 8.24739C10.0581 9.19203 8.91738 9.75 8.00002 9.75C7.08266 9.75 5.94192 9.19203 4.75001 8.2474C3.80943 7.50194 2.99016 6.63908 2.43329 5.99857C2.98849 5.35839 3.80534 4.49647 4.74445 3.75188C5.93399 2.80872 7.07608 2.25 8.00002 2.25C8.92396 2.25 10.066 2.80872 11.2556 3.75188Z" fill="#181B2B"/>
</svg>
