<svg width="19" height="18" fill="none" xmlns="http://www.w3.org/2000/svg"><path fill-rule="evenodd" clip-rule="evenodd" d="M1.92 10.3l2.26-.98a4.73 4.73 0 01-.93-2.82v-1a4.75 4.75 0 019.5 0v1c0 1.06-.35 2.04-.93 2.82l2.26.97.1.05a5 5 0 00-1.55.96l-2-.85a4.73 4.73 0 01-5.28 0l-2.84 1.22c-.46.2-.76.65-.76 1.15v.93h9.4a5 5 0 00-.14 1.5H1a.75.75 0 01-.75-.75v-1.68c0-1.1.66-2.1 1.67-2.53zm4-1.3l.03.02a3.25 3.25 0 005.3-2.52v-1a3.25 3.25 0 00-6.5 0v1c0 1 .46 1.9 1.17 2.5zM15 16.4a.6.6 0 101.2 0v-1.2h1.2a.6.6 0 100-1.2h-1.2v-1.4a.6.6 0 00-1.2 0V14h-1.4a.6.6 0 000 1.2H15v1.2z" fill="#fff"/></svg>
