<svg width="18" height="16" viewBox="0 0 18 16" fill="none" xmlns="http://www.w3.org/2000/svg">
<path d="M9 15.249C8.811 15.249 8.622 15.178 8.477 15.036L2.148 8.86399C1.244 7.95999 0.75 6.76699 0.75 5.49799C0.75 4.22899 1.244 3.03599 2.141 2.13899C3.993 0.285987 7.007 0.285987 8.859 2.13899C8.907 2.18799 8.955 2.23699 9 2.28799C9.046 2.23699 9.092 2.18799 9.14 2.14099C10.993 0.288987 14.007 0.288987 15.858 2.14099C16.756 3.03699 17.25 4.22999 17.25 5.49899C17.25 6.76799 16.756 7.95999 15.858 8.85699L9.523 15.036C9.378 15.177 9.189 15.249 9 15.249ZM5.5 2.24999C4.667 2.24999 3.835 2.56599 3.202 3.19999C1.935 4.46799 1.935 6.52899 3.202 7.79699L9.001 13.451L14.806 7.78999C15.413 7.18299 15.75 6.36599 15.75 5.49899C15.75 4.63199 15.412 3.81499 14.798 3.20099C13.531 1.93499 11.47 1.93399 10.201 3.20099C10.006 3.39699 9.834 3.63699 9.659 3.95799C9.396 4.43999 8.604 4.43999 8.342 3.95799C8.166 3.63599 7.994 3.39499 7.799 3.19999C7.165 2.56699 6.332 2.24999 5.5 2.24999Z" fill="#181B2B"/>
</svg>
