<svg width="18" height="16" viewBox="0 0 18 16" fill="none" xmlns="http://www.w3.org/2000/svg">
<path d="M8.477 15.036C8.622 15.178 8.811 15.249 9 15.249C9.189 15.249 9.378 15.177 9.523 15.036L15.858 8.85699C16.756 7.95999 17.25 6.76799 17.25 5.49899C17.25 4.22999 16.756 3.03699 15.858 2.14099C14.007 0.288987 10.993 0.288987 9.14 2.14099C9.092 2.18799 9.046 2.23699 9 2.28799C8.955 2.23699 8.907 2.18799 8.859 2.13899C7.007 0.285987 3.993 0.285987 2.141 2.13899C1.244 3.03599 0.75 4.22899 0.75 5.49799C0.75 6.76699 1.244 7.95999 2.148 8.86399L8.477 15.036Z" fill="#181B2B"/>
</svg>
