<svg width="16" height="16" viewBox="0 0 16 16" fill="none" xmlns="http://www.w3.org/2000/svg">
<path d="M7.99526 16C11.096 16 13.7867 14.2248 15.1108 11.6367C15.1549 11.5585 15.1827 11.4721 15.1926 11.3828C15.2025 11.2936 15.1943 11.2032 15.1684 11.1172C15.1425 11.0312 15.0995 10.9513 15.042 10.8823C14.9845 10.8133 14.9137 10.7567 14.8338 10.7158C14.7539 10.6749 14.6665 10.6506 14.577 10.6443C14.4874 10.638 14.3975 10.6499 14.3127 10.6792C14.2278 10.7086 14.1498 10.7547 14.0832 10.815C14.0167 10.8753 13.963 10.9484 13.9253 11.0299C12.8216 13.1872 10.5885 14.6667 7.99526 14.6667C4.30775 14.6667 1.33254 11.6897 1.33254 8C1.33254 4.31031 4.30775 1.33333 7.99525 1.33333C10.5885 1.33333 12.8216 2.81276 13.9253 4.97005C13.963 5.05161 14.0167 5.12471 14.0832 5.18498C14.1498 5.24525 14.2278 5.29144 14.3127 5.32079C14.3975 5.35013 14.4874 5.36201 14.577 5.35573C14.6665 5.34944 14.7539 5.32511 14.8338 5.28421C14.9137 5.2433 14.9845 5.18666 15.042 5.11768C15.0995 5.04871 15.1425 4.96881 15.1684 4.8828C15.1943 4.79679 15.2025 4.70644 15.1926 4.61716C15.1827 4.52789 15.1549 4.44153 15.1108 4.36328C13.7867 1.77524 11.096 4.28723e-07 7.99525 6.99797e-07C3.58756 1.08513e-06 -1.08494e-06 3.58969 -6.99382e-07 8C-3.13821e-07 12.4103 3.58756 16 7.99526 16ZM8.66803 11.3398C8.80058 11.3398 8.9301 11.3002 9.04004 11.2261C9.14998 11.1521 9.23535 11.0469 9.28522 10.924C9.3351 10.8011 9.34721 10.6662 9.32003 10.5364C9.29284 10.4066 9.22758 10.2878 9.1326 10.1953L7.60486 8.66667L15.3242 8.66667C15.4125 8.66792 15.5002 8.6516 15.5821 8.61865C15.664 8.58571 15.7386 8.5368 15.8015 8.47477C15.8644 8.41274 15.9143 8.33883 15.9484 8.25732C15.9825 8.17582 16 8.08835 16 8C16 7.91165 15.9825 7.82418 15.9484 7.74268C15.9143 7.66117 15.8644 7.58726 15.8015 7.52523C15.7386 7.4632 15.664 7.41429 15.5821 7.38135C15.5002 7.3484 15.4125 7.33208 15.3242 7.33333L7.60486 7.33333L9.1326 5.80469C9.19655 5.74326 9.2476 5.66968 9.28277 5.58826C9.31794 5.50684 9.33652 5.41922 9.33742 5.33052C9.33832 5.24183 9.32153 5.15385 9.28802 5.07173C9.25452 4.98961 9.20497 4.91501 9.14229 4.85229C9.07961 4.78957 9.00505 4.73999 8.92298 4.70647C8.84091 4.67294 8.75298 4.65614 8.66433 4.65704C8.57569 4.65794 8.48812 4.67653 8.40675 4.71172C8.32538 4.74691 8.25184 4.798 8.19045 4.86198L5.58393 7.47005C5.5023 7.53236 5.43616 7.61269 5.39068 7.70479C5.3452 7.79688 5.3216 7.89825 5.32173 8.00097C5.32185 8.1037 5.3457 8.20501 5.39141 8.29699C5.43712 8.38898 5.50345 8.46915 5.58523 8.53125L8.19045 11.138C8.25254 11.2019 8.32679 11.2526 8.40882 11.2873C8.49085 11.322 8.57899 11.3398 8.66803 11.3398Z" fill="#FF5B5B"/>
</svg>
