<svg width="16" height="16" viewBox="0 0 16 16" fill="none" xmlns="http://www.w3.org/2000/svg">
<path d="M8 3.5C8.41421 3.5 8.75 3.83579 8.75 4.25V7.25H11.75C12.1642 7.25 12.5 7.58579 12.5 8C12.5 8.41421 12.1642 8.75 11.75 8.75H8.75V11.75C8.75 12.1642 8.41421 12.5 8 12.5C7.58579 12.5 7.25 12.1642 7.25 11.75V8.75H4.25781C3.8436 8.75 3.50781 8.41421 3.50781 8C3.50781 7.58579 3.8436 7.25 4.25781 7.25H7.25V4.25C7.25 3.83579 7.58579 3.5 8 3.5Z" fill="white"/>
<path fill-rule="evenodd" clip-rule="evenodd" d="M0.25 8C0.25 3.71979 3.71979 0.25 8 0.25C12.2802 0.25 15.75 3.71979 15.75 8C15.75 12.2802 12.2802 15.75 8 15.75C3.71979 15.75 0.25 12.2802 0.25 8ZM8 1.75C4.54822 1.75 1.75 4.54822 1.75 8C1.75 11.4518 4.54822 14.25 8 14.25C11.4518 14.25 14.25 11.4518 14.25 8C14.25 4.54822 11.4518 1.75 8 1.75Z" fill="white"/>
</svg>
