<svg width="12" height="12" viewBox="0 0 12 12" fill="none" xmlns="http://www.w3.org/2000/svg">
<path d="M8.75817 7.87675C8.53512 8.17655 8.56678 8.59481 8.83243 8.85761L11.2499 11.2492V11.2492L11.2499 11.2497L11.2471 11.247L8.81872 8.84459C8.54347 8.57228 8.10616 8.55426 7.80943 8.80301L7.79069 8.81861C7.06111 9.34203 6.16761 9.65 5.2 9.65C2.74233 9.65 0.75 7.65767 0.75 5.2C0.75 2.74233 2.74233 0.75 5.2 0.75C7.65767 0.75 9.65 2.74233 9.65 5.2C9.65 6.17617 9.33656 7.07692 8.80466 7.81002C8.79732 7.82015 8.79023 7.83045 8.7834 7.84093C8.77781 7.84951 8.76959 7.86141 8.75817 7.87675ZM8.29424 8.28725L8.1592 8.14668L8.29424 8.28724C8.39838 8.1872 8.49532 8.08911 8.57606 8.0003C8.63064 7.94028 8.66585 7.89805 8.68707 7.87146C8.69589 7.86058 8.70445 7.84939 8.71274 7.8379C8.72221 7.82482 8.73049 7.81251 8.73764 7.80133C8.74362 7.79236 8.74977 7.78351 8.75611 7.77478C9.28086 7.05151 9.59 6.16301 9.59 5.2C9.59 2.77547 7.62453 0.81 5.2 0.81C2.77547 0.81 0.81 2.77547 0.81 5.2C0.81 7.62453 2.77547 9.59 5.2 9.59C6.14228 9.59 7.0134 9.29401 7.72815 8.78947C7.74534 8.77734 7.76201 8.76449 7.77812 8.75096C7.91098 8.63932 8.10607 8.46802 8.29424 8.28725Z" fill="#181B2B" stroke="#181B2B" stroke-width="1.5" stroke-linecap="round" stroke-linejoin="round"/>
</svg>
