<svg width="16" height="16" viewBox="0 0 16 16" fill="none" xmlns="http://www.w3.org/2000/svg">
<path fill-rule="evenodd" clip-rule="evenodd" d="M11.9828 10.9272C12.0464 10.85 12.1015 10.7767 12.1449 10.7097C12.9471 9.59745 13.4201 8.2293 13.4201 6.75C13.4201 3.02208 10.4159 0 6.71007 0C3.0042 0 0 3.02208 0 6.75C0 10.4779 3.0042 13.5 6.71007 13.5C8.1807 13.5 9.54082 13.0241 10.6466 12.217C10.7226 12.1538 10.817 12.0732 10.9216 11.981L14.7292 15.7828C15.0215 16.0746 15.4935 16.0729 15.7836 15.7789C16.0737 15.4849 16.0719 15.01 15.7797 14.7182L11.9828 10.9272ZM6.71007 12C7.83915 12 8.88061 11.641 9.73339 11.03C9.89971 10.8901 10.1523 10.6676 10.394 10.434C10.5237 10.3086 10.6412 10.1888 10.7366 10.0833C10.7839 10.0309 10.8218 9.98649 10.8507 9.9504C10.865 9.93262 10.8758 9.91837 10.8837 9.90757L10.8926 9.89516L10.8949 9.89181L10.8956 9.8908C10.9092 9.86985 10.9233 9.8491 10.9379 9.82886C11.5616 8.96411 11.929 7.90242 11.929 6.75C11.929 3.85051 9.59242 1.5 6.71007 1.5C3.82773 1.5 1.49113 3.85051 1.49113 6.75C1.49113 9.6495 3.82773 12 6.71007 12Z" fill="#181B2B"/>
</svg>
